<svg xmlns="http://www.w3.org/2000/svg" xmlns:xlink="http://www.w3.org/1999/xlink" width="2240" zoomAndPan="magnify" viewBox="0 0 1680 284.999983" height="380" preserveAspectRatio="xMidYMid meet" version="1.0"><defs><g/></defs><path fill="#ffffff" d="M 631.882812 208.046875 C 631.882812 215.25 626.699219 218.15625 624.550781 219.167969 C 622.402344 220.054688 616.710938 221.695312 611.527344 216.769531 L 579.417969 185.808594 L 592.058594 173.675781 C 601.289062 164.832031 606.34375 152.953125 606.34375 140.191406 C 606.34375 127.429688 601.289062 115.550781 592.058594 106.703125 L 521.515625 38.847656 C 507.863281 25.703125 488.523438 22.164062 471.074219 29.621094 C 453.628906 37.078125 442.757812 53.378906 442.757812 72.332031 L 442.757812 207.921875 C 442.757812 226.878906 453.628906 243.179688 471.074219 250.632812 C 477.144531 253.160156 483.339844 254.425781 489.53125 254.425781 C 501.164062 254.425781 512.542969 249.875 521.515625 241.410156 L 546.800781 217.148438 L 522.023438 193.265625 L 497.75 216.640625 C 492.566406 221.570312 486.878906 219.925781 484.730469 219.042969 C 482.578125 218.15625 477.398438 215.125 477.398438 207.921875 L 477.398438 72.460938 C 477.398438 65.257812 482.578125 62.351562 484.730469 61.339844 C 485.742188 60.960938 487.511719 60.328125 489.660156 60.328125 C 492.0625 60.328125 494.96875 61.085938 497.75 63.738281 L 529.859375 94.699219 L 517.21875 106.832031 C 507.988281 115.675781 502.933594 127.554688 502.933594 140.316406 C 502.933594 153.078125 507.988281 164.957031 517.21875 173.804688 L 587.761719 241.660156 C 596.738281 250.253906 607.988281 254.675781 619.746094 254.675781 C 625.941406 254.675781 632.132812 253.414062 638.203125 250.886719 C 655.648438 243.429688 666.519531 227.128906 666.519531 208.175781 L 666.519531 131.851562 L 631.882812 164.707031 Z M 568.039062 148.910156 L 554.511719 161.925781 L 540.984375 148.910156 C 538.582031 146.636719 537.320312 143.476562 537.320312 140.191406 C 537.320312 136.90625 538.582031 133.746094 540.984375 131.472656 L 554.511719 118.457031 L 568.039062 131.472656 C 570.441406 133.746094 571.707031 136.90625 571.707031 140.191406 C 571.707031 143.601562 570.441406 146.636719 568.039062 148.910156 Z M 666.269531 72.460938 L 666.269531 115.675781 L 631.882812 115.675781 L 631.882812 72.460938 C 631.882812 65.257812 626.699219 62.351562 624.550781 61.339844 C 623.539062 60.960938 621.769531 60.328125 619.621094 60.328125 C 617.21875 60.328125 614.308594 61.085938 611.527344 63.738281 L 587.003906 87.242188 L 562.351562 63.234375 L 587.636719 38.847656 C 601.289062 25.703125 620.628906 22.164062 638.078125 29.621094 C 655.394531 37.078125 666.269531 53.503906 666.269531 72.460938 Z M 666.269531 72.460938 " fill-opacity="1" fill-rule="nonzero"/><g fill="#ffffff" fill-opacity="1"><g transform="translate(726.473833, 207.605828)"><g><path d="M 79.203125 0 L 57 0 L 53.203125 -25.40625 L 26.203125 -25.40625 L 22.40625 0 L 2.203125 0 L 24.59375 -140 L 56.796875 -140 Z M 29 -44.40625 L 50.203125 -44.40625 L 39.59375 -115.203125 Z M 29 -44.40625 "/></g></g></g><g fill="#ffffff" fill-opacity="1"><g transform="translate(807.871655, 207.605828)"><g><path d="M 27.59375 -101.40625 L 27.59375 0 L 7.796875 0 L 7.796875 -140 L 35.40625 -140 L 58 -56.203125 L 58 -140 L 77.59375 -140 L 77.59375 0 L 55 0 Z M 27.59375 -101.40625 "/></g></g></g><g fill="#ffffff" fill-opacity="1"><g transform="translate(893.26937, 207.605828)"><g><path d="M 79.203125 0 L 57 0 L 53.203125 -25.40625 L 26.203125 -25.40625 L 22.40625 0 L 2.203125 0 L 24.59375 -140 L 56.796875 -140 Z M 29 -44.40625 L 50.203125 -44.40625 L 39.59375 -115.203125 Z M 29 -44.40625 "/></g></g></g><g fill="#ffffff" fill-opacity="1"><g transform="translate(974.667182, 207.605828)"><g><path d="M 8 -140 L 30 -140 L 30 -20 L 66.203125 -20 L 66.203125 0 L 8 0 Z M 8 -140 "/></g></g></g><g fill="#ffffff" fill-opacity="1"><g transform="translate(1042.865356, 207.605828)"><g><path d="M 28.59375 -46.40625 L 0.796875 -140 L 23.796875 -140 L 40.59375 -76.203125 L 57.40625 -140 L 78.40625 -140 L 50.59375 -46.40625 L 50.59375 0 L 28.59375 0 Z M 28.59375 -46.40625 "/></g></g></g><g fill="#ffffff" fill-opacity="1"><g transform="translate(1122.063269, 207.605828)"><g><path d="M 5.203125 -106.40625 C 5.203125 -117.738281 7.898438 -126.4375 13.296875 -132.5 C 18.703125 -138.5625 26.800781 -141.59375 37.59375 -141.59375 C 48.394531 -141.59375 56.492188 -138.5625 61.890625 -132.5 C 67.296875 -126.4375 70 -117.738281 70 -106.40625 L 70 -101 L 49.203125 -101 L 49.203125 -107.796875 C 49.203125 -112.867188 48.234375 -116.4375 46.296875 -118.5 C 44.367188 -120.5625 41.671875 -121.59375 38.203125 -121.59375 C 34.734375 -121.59375 32.03125 -120.5625 30.09375 -118.5 C 28.164062 -116.4375 27.203125 -112.867188 27.203125 -107.796875 C 27.203125 -102.992188 28.265625 -98.757812 30.390625 -95.09375 C 32.523438 -91.425781 35.191406 -87.957031 38.390625 -84.6875 C 41.597656 -81.425781 45.035156 -78.160156 48.703125 -74.890625 C 52.367188 -71.628906 55.800781 -68.066406 59 -64.203125 C 62.195312 -60.335938 64.863281 -55.9375 67 -51 C 69.132812 -46.0625 70.203125 -40.257812 70.203125 -33.59375 C 70.203125 -22.257812 67.429688 -13.5625 61.890625 -7.5 C 56.359375 -1.4375 48.195312 1.59375 37.40625 1.59375 C 26.601562 1.59375 18.429688 -1.4375 12.890625 -7.5 C 7.359375 -13.5625 4.59375 -22.257812 4.59375 -33.59375 L 4.59375 -43.203125 L 25.40625 -43.203125 L 25.40625 -32.203125 C 25.40625 -27.128906 26.4375 -23.59375 28.5 -21.59375 C 30.5625 -19.59375 33.328125 -18.59375 36.796875 -18.59375 C 40.265625 -18.59375 43.03125 -19.59375 45.09375 -21.59375 C 47.164062 -23.59375 48.203125 -27.128906 48.203125 -32.203125 C 48.203125 -37.003906 47.132812 -41.238281 45 -44.90625 C 42.863281 -48.570312 40.195312 -52.035156 37 -55.296875 C 33.800781 -58.566406 30.367188 -61.832031 26.703125 -65.09375 C 23.035156 -68.363281 19.597656 -71.929688 16.390625 -75.796875 C 13.191406 -79.660156 10.523438 -84.0625 8.390625 -89 C 6.265625 -93.9375 5.203125 -99.738281 5.203125 -106.40625 Z M 5.203125 -106.40625 "/></g></g></g><g fill="#ffffff" fill-opacity="1"><g transform="translate(1196.861251, 207.605828)"><g><path d="M 30 -81 L 60.203125 -81 L 60.203125 -61 L 30 -61 L 30 -20 L 68 -20 L 68 0 L 8 0 L 8 -140 L 68 -140 L 68 -120 L 30 -120 Z M 30 -81 "/></g></g></g></svg>