<svg xmlns="http://www.w3.org/2000/svg" xmlns:xlink="http://www.w3.org/1999/xlink" width="2240" zoomAndPan="magnify" viewBox="0 0 1680 284.999983" height="380" preserveAspectRatio="xMidYMid meet" version="1.0"><defs><g/></defs><path fill="#ffffff" d="M 686.273438 203.585938 C 686.273438 210.789062 681.089844 213.695312 678.9375 214.703125 C 676.789062 215.589844 671.101562 217.230469 665.917969 212.304688 L 633.808594 181.34375 L 646.449219 169.214844 C 655.679688 160.367188 660.734375 148.488281 660.734375 135.726562 C 660.734375 122.964844 655.679688 111.085938 646.449219 102.238281 L 575.90625 34.382812 C 562.253906 21.238281 542.910156 17.703125 525.464844 25.15625 C 508.019531 32.613281 497.148438 48.914062 497.148438 67.867188 L 497.148438 203.457031 C 497.148438 222.414062 508.019531 238.714844 525.464844 246.167969 C 531.535156 248.695312 537.726562 249.960938 543.921875 249.960938 C 555.554688 249.960938 566.929688 245.410156 575.90625 236.945312 L 601.191406 212.683594 L 576.414062 188.800781 L 552.140625 212.175781 C 546.957031 217.105469 541.269531 215.460938 539.117188 214.578125 C 536.96875 213.695312 531.785156 210.660156 531.785156 203.457031 L 531.785156 67.996094 C 531.785156 60.792969 536.96875 57.886719 539.117188 56.875 C 540.128906 56.496094 541.898438 55.863281 544.050781 55.863281 C 546.449219 55.863281 549.359375 56.621094 552.140625 59.277344 L 584.25 90.234375 L 571.609375 102.367188 C 562.378906 111.210938 557.324219 123.089844 557.324219 135.851562 C 557.324219 148.617188 562.378906 160.492188 571.609375 169.339844 L 642.152344 237.199219 C 651.125 245.789062 662.378906 250.214844 674.136719 250.214844 C 680.328125 250.214844 686.523438 248.949219 692.59375 246.421875 C 710.039062 238.964844 720.910156 222.664062 720.910156 203.710938 L 720.910156 127.386719 L 686.273438 160.242188 Z M 622.429688 144.445312 L 608.902344 157.460938 L 595.375 144.445312 C 592.972656 142.171875 591.710938 139.011719 591.710938 135.726562 C 591.710938 132.441406 592.972656 129.28125 595.375 127.007812 L 608.902344 113.992188 L 622.429688 127.007812 C 624.832031 129.28125 626.09375 132.441406 626.09375 135.726562 C 626.09375 139.136719 624.832031 142.171875 622.429688 144.445312 Z M 720.65625 67.996094 L 720.65625 111.210938 L 686.273438 111.210938 L 686.273438 67.996094 C 686.273438 60.792969 681.089844 57.886719 678.9375 56.875 C 677.929688 56.496094 676.15625 55.863281 674.007812 55.863281 C 671.605469 55.863281 668.699219 56.621094 665.917969 59.277344 L 641.390625 82.78125 L 616.742188 58.769531 L 642.023438 34.382812 C 655.679688 21.238281 675.019531 17.703125 692.464844 25.15625 C 709.785156 32.613281 720.65625 49.039062 720.65625 67.996094 Z M 720.65625 67.996094 " fill-opacity="1" fill-rule="nonzero"/><g fill="#ffffff" fill-opacity="1"><g transform="translate(786.81297, 127.400602)"><g><path d="M 4.953125 -86.75 L 26.515625 -86.75 C 33.378906 -86.75 38.484375 -84.929688 41.828125 -81.296875 C 45.171875 -77.660156 46.84375 -72.332031 46.84375 -65.3125 L 46.84375 -21.4375 C 46.84375 -14.414062 45.171875 -9.085938 41.828125 -5.453125 C 38.484375 -1.816406 33.378906 0 26.515625 0 L 4.953125 0 Z M 18.59375 -74.359375 L 18.59375 -12.390625 L 26.265625 -12.390625 C 28.421875 -12.390625 30.117188 -13.007812 31.359375 -14.25 C 32.597656 -15.488281 33.21875 -17.675781 33.21875 -20.8125 L 33.21875 -65.921875 C 33.21875 -69.066406 32.597656 -71.257812 31.359375 -72.5 C 30.117188 -73.738281 28.421875 -74.359375 26.265625 -74.359375 Z M 18.59375 -74.359375 "/></g></g></g><g fill="#ffffff" fill-opacity="1"><g transform="translate(845.30116, 127.400602)"><g><path d="M 18.59375 -50.1875 L 37.296875 -50.1875 L 37.296875 -37.796875 L 18.59375 -37.796875 L 18.59375 -12.390625 L 42.140625 -12.390625 L 42.140625 0 L 4.953125 0 L 4.953125 -86.75 L 42.140625 -86.75 L 42.140625 -74.359375 L 18.59375 -74.359375 Z M 18.59375 -50.1875 "/></g></g></g><g fill="#ffffff" fill-opacity="1"><g transform="translate(898.832788, 127.400602)"><g><path d="M 1.234375 -86.75 L 43.375 -86.75 L 43.375 -74.359375 L 29.125 -74.359375 L 29.125 0 L 15.484375 0 L 15.484375 -74.359375 L 1.234375 -74.359375 Z M 1.234375 -86.75 "/></g></g></g><g fill="#ffffff" fill-opacity="1"><g transform="translate(951.373088, 127.400602)"><g><path d="M 18.59375 -50.1875 L 37.296875 -50.1875 L 37.296875 -37.796875 L 18.59375 -37.796875 L 18.59375 -12.390625 L 42.140625 -12.390625 L 42.140625 0 L 4.953125 0 L 4.953125 -86.75 L 42.140625 -86.75 L 42.140625 -74.359375 L 18.59375 -74.359375 Z M 18.59375 -50.1875 "/></g></g></g><g fill="#ffffff" fill-opacity="1"><g transform="translate(1004.904722, 127.400602)"><g><path d="M 25.40625 -48.328125 L 44.484375 -48.328125 L 44.484375 -20.8125 C 44.484375 -13.789062 42.769531 -8.398438 39.34375 -4.640625 C 35.914062 -0.890625 30.859375 0.984375 24.171875 0.984375 C 17.472656 0.984375 12.410156 -0.890625 8.984375 -4.640625 C 5.554688 -8.398438 3.84375 -13.789062 3.84375 -20.8125 L 3.84375 -65.921875 C 3.84375 -72.941406 5.554688 -78.332031 8.984375 -82.09375 C 12.410156 -85.851562 17.472656 -87.734375 24.171875 -87.734375 C 30.859375 -87.734375 35.914062 -85.851562 39.34375 -82.09375 C 42.769531 -78.332031 44.484375 -72.941406 44.484375 -65.921875 L 44.484375 -57.5 L 31.59375 -57.5 L 31.59375 -66.796875 C 31.59375 -69.929688 30.953125 -72.140625 29.671875 -73.421875 C 28.398438 -74.703125 26.6875 -75.34375 24.53125 -75.34375 C 22.382812 -75.34375 20.671875 -74.703125 19.390625 -73.421875 C 18.109375 -72.140625 17.46875 -69.929688 17.46875 -66.796875 L 17.46875 -19.953125 C 17.46875 -16.816406 18.109375 -14.628906 19.390625 -13.390625 C 20.671875 -12.148438 22.382812 -11.53125 24.53125 -11.53125 C 26.6875 -11.53125 28.398438 -12.148438 29.671875 -13.390625 C 30.953125 -14.628906 31.59375 -16.816406 31.59375 -19.953125 L 31.59375 -35.9375 L 25.40625 -35.9375 Z M 25.40625 -48.328125 "/></g></g></g><g fill="#ffffff" fill-opacity="1"><g transform="translate(1061.162453, 127.400602)"><g><path d="M 17.46875 -19.953125 C 17.46875 -16.816406 18.109375 -14.609375 19.390625 -13.328125 C 20.671875 -12.046875 22.382812 -11.40625 24.53125 -11.40625 C 26.6875 -11.40625 28.398438 -12.046875 29.671875 -13.328125 C 30.953125 -14.609375 31.59375 -16.816406 31.59375 -19.953125 L 31.59375 -66.796875 C 31.59375 -69.929688 30.953125 -72.140625 29.671875 -73.421875 C 28.398438 -74.703125 26.6875 -75.34375 24.53125 -75.34375 C 22.382812 -75.34375 20.671875 -74.703125 19.390625 -73.421875 C 18.109375 -72.140625 17.46875 -69.929688 17.46875 -66.796875 Z M 3.84375 -65.921875 C 3.84375 -72.941406 5.617188 -78.332031 9.171875 -82.09375 C 12.722656 -85.851562 17.84375 -87.734375 24.53125 -87.734375 C 31.226562 -87.734375 36.351562 -85.851562 39.90625 -82.09375 C 43.457031 -78.332031 45.234375 -72.941406 45.234375 -65.921875 L 45.234375 -20.8125 C 45.234375 -13.789062 43.457031 -8.398438 39.90625 -4.640625 C 36.351562 -0.890625 31.226562 0.984375 24.53125 0.984375 C 17.84375 0.984375 12.722656 -0.890625 9.171875 -4.640625 C 5.617188 -8.398438 3.84375 -13.789062 3.84375 -20.8125 Z M 3.84375 -65.921875 "/></g></g></g><g fill="#ffffff" fill-opacity="1"><g transform="translate(786.81297, 241.400591)"><g><path d="M 4.953125 -86.75 L 18.59375 -86.75 L 18.59375 -12.390625 L 41.015625 -12.390625 L 41.015625 0 L 4.953125 0 Z M 4.953125 -86.75 "/></g></g></g><g fill="#ffffff" fill-opacity="1"><g transform="translate(836.998907, 241.400591)"><g><path d="M 18.59375 -50.1875 L 37.296875 -50.1875 L 37.296875 -37.796875 L 18.59375 -37.796875 L 18.59375 -12.390625 L 42.140625 -12.390625 L 42.140625 0 L 4.953125 0 L 4.953125 -86.75 L 42.140625 -86.75 L 42.140625 -74.359375 L 18.59375 -74.359375 Z M 18.59375 -50.1875 "/></g></g></g><g fill="#ffffff" fill-opacity="1"><g transform="translate(890.530535, 241.400591)"><g><path d="M 49.078125 0 L 35.3125 0 L 32.96875 -15.734375 L 16.234375 -15.734375 L 13.875 0 L 1.359375 0 L 15.25 -86.75 L 35.1875 -86.75 Z M 17.96875 -27.515625 L 31.109375 -27.515625 L 24.53125 -71.375 Z M 17.96875 -27.515625 "/></g></g></g><g fill="#ffffff" fill-opacity="1"><g transform="translate(948.894802, 241.400591)"><g><path d="M 33.453125 0 C 33.296875 -0.582031 33.132812 -1.117188 32.96875 -1.609375 C 32.800781 -2.109375 32.65625 -2.726562 32.53125 -3.46875 C 32.40625 -4.207031 32.320312 -5.15625 32.28125 -6.3125 C 32.238281 -7.476562 32.21875 -8.925781 32.21875 -10.65625 L 32.21875 -24.28125 C 32.21875 -28.332031 31.515625 -31.179688 30.109375 -32.828125 C 28.703125 -34.484375 26.429688 -35.3125 23.296875 -35.3125 L 18.59375 -35.3125 L 18.59375 0 L 4.953125 0 L 4.953125 -86.75 L 25.53125 -86.75 C 32.632812 -86.75 37.773438 -85.09375 40.953125 -81.78125 C 44.140625 -78.476562 45.734375 -73.484375 45.734375 -66.796875 L 45.734375 -59.984375 C 45.734375 -51.054688 42.757812 -45.1875 36.8125 -42.375 C 40.28125 -40.976562 42.648438 -38.6875 43.921875 -35.5 C 45.203125 -32.320312 45.84375 -28.460938 45.84375 -23.921875 L 45.84375 -10.53125 C 45.84375 -8.382812 45.925781 -6.503906 46.09375 -4.890625 C 46.257812 -3.285156 46.675781 -1.65625 47.34375 0 Z M 18.59375 -74.359375 L 18.59375 -47.703125 L 23.921875 -47.703125 C 26.484375 -47.703125 28.484375 -48.363281 29.921875 -49.6875 C 31.367188 -51.007812 32.09375 -53.40625 32.09375 -56.875 L 32.09375 -65.4375 C 32.09375 -68.570312 31.535156 -70.84375 30.421875 -72.25 C 29.304688 -73.65625 27.550781 -74.359375 25.15625 -74.359375 Z M 18.59375 -74.359375 "/></g></g></g><g fill="#ffffff" fill-opacity="1"><g transform="translate(1006.639509, 241.400591)"><g><path d="M 17.09375 -62.828125 L 17.09375 0 L 4.828125 0 L 4.828125 -86.75 L 21.9375 -86.75 L 35.9375 -34.828125 L 35.9375 -86.75 L 48.078125 -86.75 L 48.078125 0 L 34.078125 0 Z M 17.09375 -62.828125 "/></g></g></g><g fill="#ffffff" fill-opacity="1"><g transform="translate(1067.482062, 241.400591)"><g><path d="M 4.953125 -86.75 L 18.59375 -86.75 L 18.59375 0 L 4.953125 0 Z M 4.953125 -86.75 "/></g></g></g><g fill="#ffffff" fill-opacity="1"><g transform="translate(1098.956974, 241.400591)"><g><path d="M 17.09375 -62.828125 L 17.09375 0 L 4.828125 0 L 4.828125 -86.75 L 21.9375 -86.75 L 35.9375 -34.828125 L 35.9375 -86.75 L 48.078125 -86.75 L 48.078125 0 L 34.078125 0 Z M 17.09375 -62.828125 "/></g></g></g><g fill="#ffffff" fill-opacity="1"><g transform="translate(1159.799528, 241.400591)"><g><path d="M 25.40625 -48.328125 L 44.484375 -48.328125 L 44.484375 -20.8125 C 44.484375 -13.789062 42.769531 -8.398438 39.34375 -4.640625 C 35.914062 -0.890625 30.859375 0.984375 24.171875 0.984375 C 17.472656 0.984375 12.410156 -0.890625 8.984375 -4.640625 C 5.554688 -8.398438 3.84375 -13.789062 3.84375 -20.8125 L 3.84375 -65.921875 C 3.84375 -72.941406 5.554688 -78.332031 8.984375 -82.09375 C 12.410156 -85.851562 17.472656 -87.734375 24.171875 -87.734375 C 30.859375 -87.734375 35.914062 -85.851562 39.34375 -82.09375 C 42.769531 -78.332031 44.484375 -72.941406 44.484375 -65.921875 L 44.484375 -57.5 L 31.59375 -57.5 L 31.59375 -66.796875 C 31.59375 -69.929688 30.953125 -72.140625 29.671875 -73.421875 C 28.398438 -74.703125 26.6875 -75.34375 24.53125 -75.34375 C 22.382812 -75.34375 20.671875 -74.703125 19.390625 -73.421875 C 18.109375 -72.140625 17.46875 -69.929688 17.46875 -66.796875 L 17.46875 -19.953125 C 17.46875 -16.816406 18.109375 -14.628906 19.390625 -13.390625 C 20.671875 -12.148438 22.382812 -11.53125 24.53125 -11.53125 C 26.6875 -11.53125 28.398438 -12.148438 29.671875 -13.390625 C 30.953125 -14.628906 31.59375 -16.816406 31.59375 -19.953125 L 31.59375 -35.9375 L 25.40625 -35.9375 Z M 25.40625 -48.328125 "/></g></g></g></svg>