<svg xmlns="http://www.w3.org/2000/svg" xmlns:xlink="http://www.w3.org/1999/xlink" width="2240" zoomAndPan="magnify" viewBox="0 0 1680 284.999983" height="380" preserveAspectRatio="xMidYMid meet" version="1.0"><defs><g/></defs><path fill="#ffffff" d="M 693.3125 208.050781 C 693.3125 215.25 688.128906 218.15625 685.976562 219.167969 C 683.828125 220.054688 678.140625 221.695312 672.957031 216.769531 L 640.847656 185.808594 L 653.488281 173.675781 C 662.71875 164.832031 667.773438 152.953125 667.773438 140.191406 C 667.773438 127.429688 662.71875 115.550781 653.488281 106.703125 L 582.945312 38.847656 C 569.292969 25.703125 549.949219 22.167969 532.503906 29.621094 C 515.058594 37.078125 504.1875 53.378906 504.1875 72.332031 L 504.1875 207.921875 C 504.1875 226.878906 515.058594 243.179688 532.503906 250.632812 C 538.574219 253.160156 544.765625 254.425781 550.960938 254.425781 C 562.59375 254.425781 573.96875 249.875 582.945312 241.410156 L 608.230469 217.148438 L 583.453125 193.265625 L 559.179688 216.640625 C 553.996094 221.570312 548.308594 219.925781 546.15625 219.042969 C 544.007812 218.15625 538.824219 215.125 538.824219 207.921875 L 538.824219 72.460938 C 538.824219 65.257812 544.007812 62.351562 546.15625 61.339844 C 547.167969 60.960938 548.9375 60.328125 551.089844 60.328125 C 553.492188 60.328125 556.398438 61.085938 559.179688 63.738281 L 591.289062 94.699219 L 578.648438 106.832031 C 569.417969 115.675781 564.363281 127.554688 564.363281 140.316406 C 564.363281 153.082031 569.417969 164.957031 578.648438 173.804688 L 649.191406 241.660156 C 658.167969 250.253906 669.417969 254.675781 681.175781 254.675781 C 687.367188 254.675781 693.5625 253.414062 699.632812 250.886719 C 717.078125 243.429688 727.949219 227.128906 727.949219 208.175781 L 727.949219 131.851562 L 693.3125 164.707031 Z M 629.46875 148.910156 L 615.941406 161.925781 L 602.414062 148.910156 C 600.011719 146.636719 598.75 143.476562 598.75 140.191406 C 598.75 136.90625 600.011719 133.746094 602.414062 131.472656 L 615.941406 118.457031 L 629.46875 131.472656 C 631.871094 133.746094 633.136719 136.90625 633.136719 140.191406 C 633.136719 143.601562 631.871094 146.636719 629.46875 148.910156 Z M 727.695312 72.460938 L 727.695312 115.675781 L 693.3125 115.675781 L 693.3125 72.460938 C 693.3125 65.257812 688.128906 62.351562 685.976562 61.339844 C 684.96875 60.960938 683.195312 60.328125 681.046875 60.328125 C 678.644531 60.328125 675.738281 61.085938 672.957031 63.738281 L 648.433594 87.242188 L 623.78125 63.234375 L 649.0625 38.847656 C 662.71875 25.703125 682.058594 22.167969 699.503906 29.621094 C 716.824219 37.078125 727.695312 53.503906 727.695312 72.460938 Z M 727.695312 72.460938 " fill-opacity="1" fill-rule="nonzero"/><g fill="#ffffff" fill-opacity="1"><g transform="translate(779.275339, 163.515399)"><g><path d="M 6.421875 -112.5 L 34.390625 -112.5 C 43.285156 -112.5 49.898438 -110.140625 54.234375 -105.421875 C 58.578125 -100.710938 60.75 -93.804688 60.75 -84.703125 L 60.75 -27.796875 C 60.75 -18.691406 58.578125 -11.78125 54.234375 -7.0625 C 49.898438 -2.351562 43.285156 0 34.390625 0 L 6.421875 0 Z M 24.109375 -96.4375 L 24.109375 -16.078125 L 34.078125 -16.078125 C 36.859375 -16.078125 39.050781 -16.878906 40.65625 -18.484375 C 42.269531 -20.085938 43.078125 -22.925781 43.078125 -27 L 43.078125 -85.5 C 43.078125 -89.570312 42.269531 -92.410156 40.65625 -94.015625 C 39.050781 -95.628906 36.859375 -96.4375 34.078125 -96.4375 Z M 24.109375 -96.4375 "/></g></g></g><g fill="#ffffff" fill-opacity="1"><g transform="translate(855.130932, 163.515399)"><g><path d="M 24.109375 -65.09375 L 48.375 -65.09375 L 48.375 -49.015625 L 24.109375 -49.015625 L 24.109375 -16.078125 L 54.640625 -16.078125 L 54.640625 0 L 6.421875 0 L 6.421875 -112.5 L 54.640625 -112.5 L 54.640625 -96.4375 L 24.109375 -96.4375 Z M 24.109375 -65.09375 "/></g></g></g><g fill="#ffffff" fill-opacity="1"><g transform="translate(924.558167, 163.515399)"><g><path d="M 1.609375 -112.5 L 56.25 -112.5 L 56.25 -96.4375 L 37.765625 -96.4375 L 37.765625 0 L 20.09375 0 L 20.09375 -96.4375 L 1.609375 -96.4375 Z M 1.609375 -112.5 "/></g></g></g><g fill="#ffffff" fill-opacity="1"><g transform="translate(992.699712, 163.515399)"><g><path d="M 24.109375 -65.09375 L 48.375 -65.09375 L 48.375 -49.015625 L 24.109375 -49.015625 L 24.109375 -16.078125 L 54.640625 -16.078125 L 54.640625 0 L 6.421875 0 L 6.421875 -112.5 L 54.640625 -112.5 L 54.640625 -96.4375 L 24.109375 -96.4375 Z M 24.109375 -65.09375 "/></g></g></g><g fill="#ffffff" fill-opacity="1"><g transform="translate(1062.126956, 163.515399)"><g><path d="M 32.953125 -62.6875 L 57.703125 -62.6875 L 57.703125 -27 C 57.703125 -17.894531 55.476562 -10.90625 51.03125 -6.03125 C 46.582031 -1.15625 40.019531 1.28125 31.34375 1.28125 C 22.664062 1.28125 16.101562 -1.15625 11.65625 -6.03125 C 7.207031 -10.90625 4.984375 -17.894531 4.984375 -27 L 4.984375 -85.5 C 4.984375 -94.601562 7.207031 -101.59375 11.65625 -106.46875 C 16.101562 -111.34375 22.664062 -113.78125 31.34375 -113.78125 C 40.019531 -113.78125 46.582031 -111.34375 51.03125 -106.46875 C 55.476562 -101.59375 57.703125 -94.601562 57.703125 -85.5 L 57.703125 -74.578125 L 40.984375 -74.578125 L 40.984375 -86.625 C 40.984375 -90.695312 40.148438 -93.5625 38.484375 -95.21875 C 36.828125 -96.882812 34.609375 -97.71875 31.828125 -97.71875 C 29.035156 -97.71875 26.804688 -96.882812 25.140625 -95.21875 C 23.484375 -93.5625 22.65625 -90.695312 22.65625 -86.625 L 22.65625 -25.875 C 22.65625 -21.800781 23.484375 -18.960938 25.140625 -17.359375 C 26.804688 -15.753906 29.035156 -14.953125 31.828125 -14.953125 C 34.609375 -14.953125 36.828125 -15.753906 38.484375 -17.359375 C 40.148438 -18.960938 40.984375 -21.800781 40.984375 -25.875 L 40.984375 -46.609375 L 32.953125 -46.609375 Z M 32.953125 -62.6875 "/></g></g></g><g fill="#ffffff" fill-opacity="1"><g transform="translate(1135.089779, 163.515399)"><g><path d="M 22.65625 -25.875 C 22.65625 -21.800781 23.484375 -18.929688 25.140625 -17.265625 C 26.804688 -15.609375 29.035156 -14.78125 31.828125 -14.78125 C 34.609375 -14.78125 36.828125 -15.609375 38.484375 -17.265625 C 40.148438 -18.929688 40.984375 -21.800781 40.984375 -25.875 L 40.984375 -86.625 C 40.984375 -90.695312 40.148438 -93.5625 38.484375 -95.21875 C 36.828125 -96.882812 34.609375 -97.71875 31.828125 -97.71875 C 29.035156 -97.71875 26.804688 -96.882812 25.140625 -95.21875 C 23.484375 -93.5625 22.65625 -90.695312 22.65625 -86.625 Z M 4.984375 -85.5 C 4.984375 -94.601562 7.285156 -101.59375 11.890625 -106.46875 C 16.492188 -111.34375 23.140625 -113.78125 31.828125 -113.78125 C 40.503906 -113.78125 47.144531 -111.34375 51.75 -106.46875 C 56.351562 -101.59375 58.65625 -94.601562 58.65625 -85.5 L 58.65625 -27 C 58.65625 -17.894531 56.351562 -10.90625 51.75 -6.03125 C 47.144531 -1.15625 40.503906 1.28125 31.828125 1.28125 C 23.140625 1.28125 16.492188 -1.15625 11.890625 -6.03125 C 7.285156 -10.90625 4.984375 -17.894531 4.984375 -27 Z M 4.984375 -85.5 "/></g></g></g><g fill="#ffffff" fill-opacity="1"><g transform="translate(781.02253, 234.770287)"><g><path d="M 2.5 -43.859375 L 13.40625 -43.859375 C 16.875 -43.859375 19.453125 -42.9375 21.140625 -41.09375 C 22.835938 -39.257812 23.6875 -36.566406 23.6875 -33.015625 L 23.6875 -10.84375 C 23.6875 -7.289062 22.835938 -4.59375 21.140625 -2.75 C 19.453125 -0.914062 16.875 0 13.40625 0 L 2.5 0 Z M 9.390625 -37.59375 L 9.390625 -6.265625 L 13.28125 -6.265625 C 14.363281 -6.265625 15.21875 -6.578125 15.84375 -7.203125 C 16.476562 -7.828125 16.796875 -8.9375 16.796875 -10.53125 L 16.796875 -33.328125 C 16.796875 -34.921875 16.476562 -36.03125 15.84375 -36.65625 C 15.21875 -37.28125 14.363281 -37.59375 13.28125 -37.59375 Z M 9.390625 -37.59375 "/></g></g></g><g fill="#ffffff" fill-opacity="1"><g transform="translate(810.028615, 234.770287)"><g><path d="M 2.5 -43.859375 L 9.390625 -43.859375 L 9.390625 0 L 2.5 0 Z M 2.5 -43.859375 "/></g></g></g><g fill="#ffffff" fill-opacity="1"><g transform="translate(825.377634, 234.770287)"><g><path d="M 12.84375 -24.4375 L 22.5 -24.4375 L 22.5 -10.53125 C 22.5 -6.976562 21.628906 -4.25 19.890625 -2.34375 C 18.160156 -0.445312 15.601562 0.5 12.21875 0.5 C 8.832031 0.5 6.269531 -0.445312 4.53125 -2.34375 C 2.800781 -4.25 1.9375 -6.976562 1.9375 -10.53125 L 1.9375 -33.328125 C 1.9375 -36.878906 2.800781 -39.601562 4.53125 -41.5 C 6.269531 -43.40625 8.832031 -44.359375 12.21875 -44.359375 C 15.601562 -44.359375 18.160156 -43.40625 19.890625 -41.5 C 21.628906 -39.601562 22.5 -36.878906 22.5 -33.328125 L 22.5 -29.078125 L 15.984375 -29.078125 L 15.984375 -33.765625 C 15.984375 -35.359375 15.65625 -36.476562 15 -37.125 C 14.351562 -37.769531 13.488281 -38.09375 12.40625 -38.09375 C 11.320312 -38.09375 10.453125 -37.769531 9.796875 -37.125 C 9.148438 -36.476562 8.828125 -35.359375 8.828125 -33.765625 L 8.828125 -10.09375 C 8.828125 -8.5 9.148438 -7.390625 9.796875 -6.765625 C 10.453125 -6.140625 11.320312 -5.828125 12.40625 -5.828125 C 13.488281 -5.828125 14.351562 -6.140625 15 -6.765625 C 15.65625 -7.390625 15.984375 -8.5 15.984375 -10.09375 L 15.984375 -18.171875 L 12.84375 -18.171875 Z M 12.84375 -24.4375 "/></g></g></g><g fill="#ffffff" fill-opacity="1"><g transform="translate(853.256073, 234.770287)"><g><path d="M 2.5 -43.859375 L 9.390625 -43.859375 L 9.390625 0 L 2.5 0 Z M 2.5 -43.859375 "/></g></g></g><g fill="#ffffff" fill-opacity="1"><g transform="translate(868.605091, 234.770287)"><g><path d="M 0.625 -43.859375 L 21.921875 -43.859375 L 21.921875 -37.59375 L 14.71875 -37.59375 L 14.71875 0 L 7.828125 0 L 7.828125 -37.59375 L 0.625 -37.59375 Z M 0.625 -43.859375 "/></g></g></g><g fill="#ffffff" fill-opacity="1"><g transform="translate(894.604122, 234.770287)"><g><path d="M 24.8125 0 L 17.859375 0 L 16.671875 -7.953125 L 8.203125 -7.953125 L 7.015625 0 L 0.6875 0 L 7.703125 -43.859375 L 17.796875 -43.859375 Z M 9.078125 -13.90625 L 15.734375 -13.90625 L 12.40625 -36.09375 Z M 9.078125 -13.90625 "/></g></g></g><g fill="#ffffff" fill-opacity="1"><g transform="translate(923.547563, 234.770287)"><g><path d="M 2.5 -43.859375 L 9.390625 -43.859375 L 9.390625 -6.265625 L 20.734375 -6.265625 L 20.734375 0 L 2.5 0 Z M 2.5 -43.859375 "/></g></g></g><g fill="#ffffff" fill-opacity="1"><g transform="translate(948.356294, 234.770287)"><g/></g></g><g fill="#ffffff" fill-opacity="1"><g transform="translate(961.512664, 234.770287)"><g><path d="M 9.390625 -24.375 L 18.296875 -24.375 L 18.296875 -18.109375 L 9.390625 -18.109375 L 9.390625 0 L 2.5 0 L 2.5 -43.859375 L 20.734375 -43.859375 L 20.734375 -37.59375 L 9.390625 -37.59375 Z M 9.390625 -24.375 "/></g></g></g><g fill="#ffffff" fill-opacity="1"><g transform="translate(986.509336, 234.770287)"><g><path d="M 8.828125 -10.09375 C 8.828125 -8.5 9.148438 -7.378906 9.796875 -6.734375 C 10.453125 -6.085938 11.320312 -5.765625 12.40625 -5.765625 C 13.488281 -5.765625 14.351562 -6.085938 15 -6.734375 C 15.65625 -7.378906 15.984375 -8.5 15.984375 -10.09375 L 15.984375 -33.765625 C 15.984375 -35.359375 15.65625 -36.476562 15 -37.125 C 14.351562 -37.769531 13.488281 -38.09375 12.40625 -38.09375 C 11.320312 -38.09375 10.453125 -37.769531 9.796875 -37.125 C 9.148438 -36.476562 8.828125 -35.359375 8.828125 -33.765625 Z M 1.9375 -33.328125 C 1.9375 -36.878906 2.832031 -39.601562 4.625 -41.5 C 6.425781 -43.40625 9.019531 -44.359375 12.40625 -44.359375 C 15.789062 -44.359375 18.378906 -43.40625 20.171875 -41.5 C 21.972656 -39.601562 22.875 -36.878906 22.875 -33.328125 L 22.875 -10.53125 C 22.875 -6.976562 21.972656 -4.25 20.171875 -2.34375 C 18.378906 -0.445312 15.789062 0.5 12.40625 0.5 C 9.019531 0.5 6.425781 -0.445312 4.625 -2.34375 C 2.832031 -4.25 1.9375 -6.976562 1.9375 -10.53125 Z M 1.9375 -33.328125 "/></g></g></g><g fill="#ffffff" fill-opacity="1"><g transform="translate(1014.763669, 234.770287)"><g><path d="M 16.921875 0 C 16.835938 -0.289062 16.753906 -0.5625 16.671875 -0.8125 C 16.585938 -1.0625 16.515625 -1.375 16.453125 -1.75 C 16.390625 -2.125 16.347656 -2.601562 16.328125 -3.1875 C 16.304688 -3.78125 16.296875 -4.515625 16.296875 -5.390625 L 16.296875 -12.28125 C 16.296875 -14.320312 15.9375 -15.757812 15.21875 -16.59375 C 14.507812 -17.4375 13.363281 -17.859375 11.78125 -17.859375 L 9.390625 -17.859375 L 9.390625 0 L 2.5 0 L 2.5 -43.859375 L 12.90625 -43.859375 C 16.5 -43.859375 19.097656 -43.019531 20.703125 -41.34375 C 22.316406 -39.675781 23.125 -37.148438 23.125 -33.765625 L 23.125 -30.328125 C 23.125 -25.816406 21.617188 -22.847656 18.609375 -21.421875 C 20.359375 -20.710938 21.554688 -19.550781 22.203125 -17.9375 C 22.859375 -16.332031 23.1875 -14.382812 23.1875 -12.09375 L 23.1875 -5.328125 C 23.1875 -4.242188 23.226562 -3.289062 23.3125 -2.46875 C 23.394531 -1.65625 23.601562 -0.832031 23.9375 0 Z M 9.390625 -37.59375 L 9.390625 -24.125 L 12.09375 -24.125 C 13.382812 -24.125 14.394531 -24.457031 15.125 -25.125 C 15.863281 -25.789062 16.234375 -27.003906 16.234375 -28.765625 L 16.234375 -33.078125 C 16.234375 -34.671875 15.945312 -35.820312 15.375 -36.53125 C 14.8125 -37.238281 13.925781 -37.59375 12.71875 -37.59375 Z M 9.390625 -37.59375 "/></g></g></g><g fill="#ffffff" fill-opacity="1"><g transform="translate(1043.393884, 234.770287)"><g><path d="M 9.390625 -25.375 L 18.859375 -25.375 L 18.859375 -19.109375 L 9.390625 -19.109375 L 9.390625 -6.265625 L 21.296875 -6.265625 L 21.296875 0 L 2.5 0 L 2.5 -43.859375 L 21.296875 -43.859375 L 21.296875 -37.59375 L 9.390625 -37.59375 Z M 9.390625 -25.375 "/></g></g></g><g fill="#ffffff" fill-opacity="1"><g transform="translate(1069.894094, 234.770287)"><g><path d="M 8.640625 -31.765625 L 8.640625 0 L 2.4375 0 L 2.4375 -43.859375 L 11.09375 -43.859375 L 18.171875 -17.609375 L 18.171875 -43.859375 L 24.3125 -43.859375 L 24.3125 0 L 17.234375 0 Z M 8.640625 -31.765625 "/></g></g></g><g fill="#ffffff" fill-opacity="1"><g transform="translate(1100.090491, 234.770287)"><g><path d="M 1.625 -33.328125 C 1.625 -36.878906 2.46875 -39.601562 4.15625 -41.5 C 5.851562 -43.40625 8.394531 -44.359375 11.78125 -44.359375 C 15.164062 -44.359375 17.703125 -43.40625 19.390625 -41.5 C 21.078125 -39.601562 21.921875 -36.878906 21.921875 -33.328125 L 21.921875 -31.640625 L 15.40625 -31.640625 L 15.40625 -33.765625 C 15.40625 -35.359375 15.101562 -36.476562 14.5 -37.125 C 13.894531 -37.769531 13.050781 -38.09375 11.96875 -38.09375 C 10.882812 -38.09375 10.035156 -37.769531 9.421875 -37.125 C 8.816406 -36.476562 8.515625 -35.359375 8.515625 -33.765625 C 8.515625 -32.265625 8.847656 -30.9375 9.515625 -29.78125 C 10.191406 -28.632812 11.03125 -27.550781 12.03125 -26.53125 C 13.03125 -25.507812 14.101562 -24.484375 15.25 -23.453125 C 16.40625 -22.429688 17.484375 -21.316406 18.484375 -20.109375 C 19.484375 -18.898438 20.316406 -17.519531 20.984375 -15.96875 C 21.660156 -14.425781 22 -12.613281 22 -10.53125 C 22 -6.976562 21.128906 -4.25 19.390625 -2.34375 C 17.660156 -0.445312 15.101562 0.5 11.71875 0.5 C 8.332031 0.5 5.769531 -0.445312 4.03125 -2.34375 C 2.300781 -4.25 1.4375 -6.976562 1.4375 -10.53125 L 1.4375 -13.53125 L 7.953125 -13.53125 L 7.953125 -10.09375 C 7.953125 -8.5 8.273438 -7.390625 8.921875 -6.765625 C 9.578125 -6.140625 10.445312 -5.828125 11.53125 -5.828125 C 12.613281 -5.828125 13.476562 -6.140625 14.125 -6.765625 C 14.769531 -7.390625 15.09375 -8.5 15.09375 -10.09375 C 15.09375 -11.59375 14.757812 -12.914062 14.09375 -14.0625 C 13.425781 -15.21875 12.59375 -16.304688 11.59375 -17.328125 C 10.59375 -18.347656 9.515625 -19.367188 8.359375 -20.390625 C 7.210938 -21.410156 6.140625 -22.523438 5.140625 -23.734375 C 4.140625 -24.953125 3.300781 -26.332031 2.625 -27.875 C 1.957031 -29.425781 1.625 -31.242188 1.625 -33.328125 Z M 1.625 -33.328125 "/></g></g></g><g fill="#ffffff" fill-opacity="1"><g transform="translate(1126.966583, 234.770287)"><g><path d="M 2.5 -43.859375 L 9.390625 -43.859375 L 9.390625 0 L 2.5 0 Z M 2.5 -43.859375 "/></g></g></g><g fill="#ffffff" fill-opacity="1"><g transform="translate(1142.315601, 234.770287)"><g><path d="M 22.5 -16.359375 L 22.5 -10.53125 C 22.5 -6.976562 21.628906 -4.25 19.890625 -2.34375 C 18.160156 -0.445312 15.601562 0.5 12.21875 0.5 C 8.832031 0.5 6.269531 -0.445312 4.53125 -2.34375 C 2.800781 -4.25 1.9375 -6.976562 1.9375 -10.53125 L 1.9375 -33.328125 C 1.9375 -36.878906 2.800781 -39.601562 4.53125 -41.5 C 6.269531 -43.40625 8.832031 -44.359375 12.21875 -44.359375 C 15.601562 -44.359375 18.160156 -43.40625 19.890625 -41.5 C 21.628906 -39.601562 22.5 -36.878906 22.5 -33.328125 L 22.5 -29.078125 L 15.984375 -29.078125 L 15.984375 -33.765625 C 15.984375 -35.359375 15.65625 -36.476562 15 -37.125 C 14.351562 -37.769531 13.488281 -38.09375 12.40625 -38.09375 C 11.320312 -38.09375 10.453125 -37.769531 9.796875 -37.125 C 9.148438 -36.476562 8.828125 -35.359375 8.828125 -33.765625 L 8.828125 -10.09375 C 8.828125 -8.5 9.148438 -7.390625 9.796875 -6.765625 C 10.453125 -6.140625 11.320312 -5.828125 12.40625 -5.828125 C 13.488281 -5.828125 14.351562 -6.140625 15 -6.765625 C 15.65625 -7.390625 15.984375 -8.5 15.984375 -10.09375 L 15.984375 -16.359375 Z M 22.5 -16.359375 "/></g></g></g><g fill="#ffffff" fill-opacity="1"><g transform="translate(1169.943457, 234.770287)"><g><path d="M 1.625 -33.328125 C 1.625 -36.878906 2.46875 -39.601562 4.15625 -41.5 C 5.851562 -43.40625 8.394531 -44.359375 11.78125 -44.359375 C 15.164062 -44.359375 17.703125 -43.40625 19.390625 -41.5 C 21.078125 -39.601562 21.921875 -36.878906 21.921875 -33.328125 L 21.921875 -31.640625 L 15.40625 -31.640625 L 15.40625 -33.765625 C 15.40625 -35.359375 15.101562 -36.476562 14.5 -37.125 C 13.894531 -37.769531 13.050781 -38.09375 11.96875 -38.09375 C 10.882812 -38.09375 10.035156 -37.769531 9.421875 -37.125 C 8.816406 -36.476562 8.515625 -35.359375 8.515625 -33.765625 C 8.515625 -32.265625 8.847656 -30.9375 9.515625 -29.78125 C 10.191406 -28.632812 11.03125 -27.550781 12.03125 -26.53125 C 13.03125 -25.507812 14.101562 -24.484375 15.25 -23.453125 C 16.40625 -22.429688 17.484375 -21.316406 18.484375 -20.109375 C 19.484375 -18.898438 20.316406 -17.519531 20.984375 -15.96875 C 21.660156 -14.425781 22 -12.613281 22 -10.53125 C 22 -6.976562 21.128906 -4.25 19.390625 -2.34375 C 17.660156 -0.445312 15.101562 0.5 11.71875 0.5 C 8.332031 0.5 5.769531 -0.445312 4.03125 -2.34375 C 2.300781 -4.25 1.4375 -6.976562 1.4375 -10.53125 L 1.4375 -13.53125 L 7.953125 -13.53125 L 7.953125 -10.09375 C 7.953125 -8.5 8.273438 -7.390625 8.921875 -6.765625 C 9.578125 -6.140625 10.445312 -5.828125 11.53125 -5.828125 C 12.613281 -5.828125 13.476562 -6.140625 14.125 -6.765625 C 14.769531 -7.390625 15.09375 -8.5 15.09375 -10.09375 C 15.09375 -11.59375 14.757812 -12.914062 14.09375 -14.0625 C 13.425781 -15.21875 12.59375 -16.304688 11.59375 -17.328125 C 10.59375 -18.347656 9.515625 -19.367188 8.359375 -20.390625 C 7.210938 -21.410156 6.140625 -22.523438 5.140625 -23.734375 C 4.140625 -24.953125 3.300781 -26.332031 2.625 -27.875 C 1.957031 -29.425781 1.625 -31.242188 1.625 -33.328125 Z M 1.625 -33.328125 "/></g></g></g></svg>