<svg xmlns="http://www.w3.org/2000/svg" xmlns:xlink="http://www.w3.org/1999/xlink" width="2240" zoomAndPan="magnify" viewBox="0 0 1680 284.999983" height="380" preserveAspectRatio="xMidYMid meet" version="1.0"><defs><g/></defs><path fill="#ffffff" d="M 510.585938 208.046875 C 510.585938 215.25 505.402344 218.15625 503.253906 219.167969 C 501.105469 220.054688 495.414062 221.695312 490.230469 216.769531 L 458.121094 185.808594 L 470.761719 173.675781 C 479.992188 164.832031 485.046875 152.953125 485.046875 140.191406 C 485.046875 127.429688 479.992188 115.550781 470.761719 106.703125 L 400.21875 38.847656 C 386.566406 25.703125 367.226562 22.164062 349.777344 29.621094 C 332.332031 37.078125 321.460938 53.378906 321.460938 72.332031 L 321.460938 207.921875 C 321.460938 226.878906 332.332031 243.179688 349.777344 250.632812 C 355.847656 253.160156 362.042969 254.425781 368.234375 254.425781 C 379.867188 254.425781 391.246094 249.875 400.21875 241.410156 L 425.503906 217.148438 L 400.726562 193.265625 L 376.453125 216.640625 C 371.269531 221.570312 365.582031 219.925781 363.433594 219.042969 C 361.28125 218.15625 356.101562 215.125 356.101562 207.921875 L 356.101562 72.460938 C 356.101562 65.257812 361.28125 62.351562 363.433594 61.339844 C 364.445312 60.960938 366.214844 60.328125 368.363281 60.328125 C 370.765625 60.328125 373.671875 61.085938 376.453125 63.738281 L 408.5625 94.699219 L 395.921875 106.832031 C 386.695312 115.675781 381.636719 127.554688 381.636719 140.316406 C 381.636719 153.078125 386.695312 164.957031 395.921875 173.804688 L 466.464844 241.660156 C 475.441406 250.253906 486.691406 254.675781 498.449219 254.675781 C 504.644531 254.675781 510.839844 253.414062 516.90625 250.886719 C 534.351562 243.429688 545.222656 227.128906 545.222656 208.175781 L 545.222656 131.851562 L 510.585938 164.707031 Z M 446.742188 148.910156 L 433.214844 161.925781 L 419.6875 148.910156 C 417.285156 146.636719 416.023438 143.476562 416.023438 140.191406 C 416.023438 136.90625 417.285156 133.746094 419.6875 131.472656 L 433.214844 118.457031 L 446.742188 131.472656 C 449.144531 133.746094 450.410156 136.90625 450.410156 140.191406 C 450.410156 143.601562 449.144531 146.636719 446.742188 148.910156 Z M 544.972656 72.460938 L 544.972656 115.675781 L 510.585938 115.675781 L 510.585938 72.460938 C 510.585938 65.257812 505.402344 62.351562 503.253906 61.339844 C 502.242188 60.960938 500.472656 60.328125 498.324219 60.328125 C 495.921875 60.328125 493.011719 61.085938 490.230469 63.738281 L 465.707031 87.242188 L 441.054688 63.234375 L 466.339844 38.847656 C 479.992188 25.703125 499.332031 22.164062 516.78125 29.621094 C 534.097656 37.078125 544.972656 53.503906 544.972656 72.460938 Z M 544.972656 72.460938 " fill-opacity="1" fill-rule="nonzero"/><g fill="#ffffff" fill-opacity="1"><g transform="translate(607.186987, 207.605828)"><g><path d="M 30 -77.796875 L 58.40625 -77.796875 L 58.40625 -57.796875 L 30 -57.796875 L 30 0 L 8 0 L 8 -140 L 66.203125 -140 L 66.203125 -120 L 30 -120 Z M 30 -77.796875 "/></g></g></g><g fill="#ffffff" fill-opacity="1"><g transform="translate(675.985141, 207.605828)"><g><path d="M 8 -140 L 30 -140 L 30 0 L 8 0 Z M 8 -140 "/></g></g></g><g fill="#ffffff" fill-opacity="1"><g transform="translate(713.9841, 207.605828)"><g><path d="M 30 -81 L 60.203125 -81 L 60.203125 -61 L 30 -61 L 30 -20 L 68 -20 L 68 0 L 8 0 L 8 -140 L 68 -140 L 68 -120 L 30 -120 Z M 30 -81 "/></g></g></g><g fill="#ffffff" fill-opacity="1"><g transform="translate(787.582111, 207.605828)"><g><path d="M 8 -140 L 30 -140 L 30 -20 L 66.203125 -20 L 66.203125 0 L 8 0 Z M 8 -140 "/></g></g></g><g fill="#ffffff" fill-opacity="1"><g transform="translate(855.780285, 207.605828)"><g><path d="M 8 -140 L 42.796875 -140 C 53.867188 -140 62.101562 -137.066406 67.5 -131.203125 C 72.894531 -125.335938 75.59375 -116.738281 75.59375 -105.40625 L 75.59375 -34.59375 C 75.59375 -23.257812 72.894531 -14.660156 67.5 -8.796875 C 62.101562 -2.929688 53.867188 0 42.796875 0 L 8 0 Z M 30 -120 L 30 -20 L 42.40625 -20 C 45.863281 -20 48.59375 -21 50.59375 -23 C 52.59375 -25 53.59375 -28.53125 53.59375 -33.59375 L 53.59375 -106.40625 C 53.59375 -111.46875 52.59375 -115 50.59375 -117 C 48.59375 -119 45.863281 -120 42.40625 -120 Z M 30 -120 "/></g></g></g><g fill="#ffffff" fill-opacity="1"><g transform="translate(937.378094, 207.605828)"><g/></g></g><g fill="#ffffff" fill-opacity="1"><g transform="translate(968.377274, 207.605828)"><g><path d="M 2 -140 L 70 -140 L 70 -120 L 47 -120 L 47 0 L 25 0 L 25 -120 L 2 -120 Z M 2 -140 "/></g></g></g><g fill="#ffffff" fill-opacity="1"><g transform="translate(1040.375345, 207.605828)"><g><path d="M 54 0 C 53.726562 -0.9375 53.457031 -1.800781 53.1875 -2.59375 C 52.925781 -3.394531 52.695312 -4.394531 52.5 -5.59375 C 52.300781 -6.800781 52.164062 -8.335938 52.09375 -10.203125 C 52.03125 -12.066406 52 -14.398438 52 -17.203125 L 52 -39.203125 C 52 -45.734375 50.863281 -50.332031 48.59375 -53 C 46.332031 -55.664062 42.664062 -57 37.59375 -57 L 30 -57 L 30 0 L 8 0 L 8 -140 L 41.203125 -140 C 52.671875 -140 60.96875 -137.332031 66.09375 -132 C 71.226562 -126.664062 73.796875 -118.597656 73.796875 -107.796875 L 73.796875 -96.796875 C 73.796875 -82.398438 69 -72.9375 59.40625 -68.40625 C 65 -66.132812 68.828125 -62.429688 70.890625 -57.296875 C 72.960938 -52.160156 74 -45.925781 74 -38.59375 L 74 -17 C 74 -13.53125 74.128906 -10.492188 74.390625 -7.890625 C 74.660156 -5.296875 75.332031 -2.664062 76.40625 0 Z M 30 -120 L 30 -77 L 38.59375 -77 C 42.726562 -77 45.960938 -78.066406 48.296875 -80.203125 C 50.628906 -82.335938 51.796875 -86.203125 51.796875 -91.796875 L 51.796875 -105.59375 C 51.796875 -110.664062 50.894531 -114.332031 49.09375 -116.59375 C 47.300781 -118.863281 44.46875 -120 40.59375 -120 Z M 30 -120 "/></g></g></g><g fill="#ffffff" fill-opacity="1"><g transform="translate(1120.773149, 207.605828)"><g><path d="M 8 -140 L 30 -140 L 30 0 L 8 0 Z M 8 -140 "/></g></g></g><g fill="#ffffff" fill-opacity="1"><g transform="translate(1158.772107, 207.605828)"><g><path d="M 79.203125 0 L 57 0 L 53.203125 -25.40625 L 26.203125 -25.40625 L 22.40625 0 L 2.203125 0 L 24.59375 -140 L 56.796875 -140 Z M 29 -44.40625 L 50.203125 -44.40625 L 39.59375 -115.203125 Z M 29 -44.40625 "/></g></g></g><g fill="#ffffff" fill-opacity="1"><g transform="translate(1240.169942, 207.605828)"><g><path d="M 41 -78 L 71.796875 -78 L 71.796875 -33.59375 C 71.796875 -22.257812 69.03125 -13.5625 63.5 -7.5 C 57.96875 -1.4375 49.800781 1.59375 39 1.59375 C 28.195312 1.59375 20.03125 -1.4375 14.5 -7.5 C 8.96875 -13.5625 6.203125 -22.257812 6.203125 -33.59375 L 6.203125 -106.40625 C 6.203125 -117.738281 8.96875 -126.4375 14.5 -132.5 C 20.03125 -138.5625 28.195312 -141.59375 39 -141.59375 C 49.800781 -141.59375 57.96875 -138.5625 63.5 -132.5 C 69.03125 -126.4375 71.796875 -117.738281 71.796875 -106.40625 L 71.796875 -92.796875 L 51 -92.796875 L 51 -107.796875 C 51 -112.867188 49.960938 -116.4375 47.890625 -118.5 C 45.828125 -120.5625 43.0625 -121.59375 39.59375 -121.59375 C 36.132812 -121.59375 33.367188 -120.5625 31.296875 -118.5 C 29.234375 -116.4375 28.203125 -112.867188 28.203125 -107.796875 L 28.203125 -32.203125 C 28.203125 -27.128906 29.234375 -23.59375 31.296875 -21.59375 C 33.367188 -19.59375 36.132812 -18.59375 39.59375 -18.59375 C 43.0625 -18.59375 45.828125 -19.59375 47.890625 -21.59375 C 49.960938 -23.59375 51 -27.128906 51 -32.203125 L 51 -58 L 41 -58 Z M 41 -78 "/></g></g></g><g fill="#ffffff" fill-opacity="1"><g transform="translate(1318.167874, 207.605828)"><g><path d="M 30 -81 L 60.203125 -81 L 60.203125 -61 L 30 -61 L 30 -20 L 68 -20 L 68 0 L 8 0 L 8 -140 L 68 -140 L 68 -120 L 30 -120 Z M 30 -81 "/></g></g></g></svg>