<svg xmlns="http://www.w3.org/2000/svg" xmlns:xlink="http://www.w3.org/1999/xlink" width="2240" zoomAndPan="magnify" viewBox="0 0 1680 284.999983" height="380" preserveAspectRatio="xMidYMid meet" version="1.0"><defs><g/></defs><path fill="#ffffff" d="M 693.039062 207.296875 C 693.039062 214.5 687.855469 217.40625 685.707031 218.417969 C 683.558594 219.304688 677.867188 220.945312 672.683594 216.019531 L 640.574219 185.058594 L 653.214844 172.925781 C 662.445312 164.082031 667.5 152.203125 667.5 139.441406 C 667.5 126.679688 662.445312 114.800781 653.214844 105.953125 L 582.671875 38.097656 C 569.019531 24.953125 549.679688 21.414062 532.230469 28.871094 C 514.785156 36.328125 503.914062 52.628906 503.914062 71.582031 L 503.914062 207.171875 C 503.914062 226.128906 514.785156 242.429688 532.230469 249.882812 C 538.300781 252.410156 544.496094 253.675781 550.6875 253.675781 C 562.320312 253.675781 573.699219 249.125 582.671875 240.660156 L 607.957031 216.398438 L 583.179688 192.515625 L 558.90625 215.890625 C 553.722656 220.820312 548.035156 219.175781 545.886719 218.292969 C 543.734375 217.40625 538.554688 214.375 538.554688 207.171875 L 538.554688 71.710938 C 538.554688 64.507812 543.734375 61.601562 545.886719 60.589844 C 546.898438 60.210938 548.667969 59.578125 550.816406 59.578125 C 553.21875 59.578125 556.125 60.335938 558.90625 62.988281 L 591.015625 93.949219 L 578.375 106.082031 C 569.148438 114.925781 564.089844 126.804688 564.089844 139.566406 C 564.089844 152.328125 569.148438 164.207031 578.375 173.054688 L 648.917969 240.910156 C 657.894531 249.503906 669.144531 253.925781 680.902344 253.925781 C 687.097656 253.925781 693.292969 252.664062 699.359375 250.136719 C 716.804688 242.679688 727.675781 226.378906 727.675781 207.425781 L 727.675781 131.101562 L 693.039062 163.957031 Z M 629.195312 148.160156 L 615.667969 161.175781 L 602.140625 148.160156 C 599.742188 145.886719 598.476562 142.726562 598.476562 139.441406 C 598.476562 136.15625 599.742188 132.996094 602.140625 130.722656 L 615.667969 117.707031 L 629.195312 130.722656 C 631.597656 132.996094 632.863281 136.15625 632.863281 139.441406 C 632.863281 142.851562 631.597656 145.886719 629.195312 148.160156 Z M 727.425781 71.710938 L 727.425781 114.925781 L 693.039062 114.925781 L 693.039062 71.710938 C 693.039062 64.507812 687.855469 61.601562 685.707031 60.589844 C 684.695312 60.210938 682.925781 59.578125 680.777344 59.578125 C 678.375 59.578125 675.464844 60.335938 672.683594 62.988281 L 648.160156 86.492188 L 623.507812 62.484375 L 648.792969 38.097656 C 662.445312 24.953125 681.785156 21.414062 699.234375 28.871094 C 716.550781 36.328125 727.425781 52.753906 727.425781 71.710938 Z M 727.425781 71.710938 " fill-opacity="1" fill-rule="nonzero"/><g fill="#ffffff" fill-opacity="1"><g transform="translate(783.517363, 208.355828)"><g><path d="M 30 -77.796875 L 58.40625 -77.796875 L 58.40625 -57.796875 L 30 -57.796875 L 30 0 L 8 0 L 8 -140 L 66.203125 -140 L 66.203125 -120 L 30 -120 Z M 30 -77.796875 "/></g></g></g><g fill="#ffffff" fill-opacity="1"><g transform="translate(852.315517, 208.355828)"><g><path d="M 29 -140 L 29 -32 C 29 -26.9375 30.03125 -23.40625 32.09375 -21.40625 C 34.164062 -19.40625 36.9375 -18.40625 40.40625 -18.40625 C 43.863281 -18.40625 46.625 -19.40625 48.6875 -21.40625 C 50.757812 -23.40625 51.796875 -26.9375 51.796875 -32 L 51.796875 -140 L 72.59375 -140 L 72.59375 -33.40625 C 72.59375 -22.070312 69.828125 -13.367188 64.296875 -7.296875 C 58.765625 -1.234375 50.597656 1.796875 39.796875 1.796875 C 28.992188 1.796875 20.828125 -1.234375 15.296875 -7.296875 C 9.765625 -13.367188 7 -22.070312 7 -33.40625 L 7 -140 Z M 29 -140 "/></g></g></g><g fill="#ffffff" fill-opacity="1"><g transform="translate(931.913378, 208.355828)"><g><path d="M 5.203125 -106.40625 C 5.203125 -117.738281 7.898438 -126.4375 13.296875 -132.5 C 18.703125 -138.5625 26.800781 -141.59375 37.59375 -141.59375 C 48.394531 -141.59375 56.492188 -138.5625 61.890625 -132.5 C 67.296875 -126.4375 70 -117.738281 70 -106.40625 L 70 -101 L 49.203125 -101 L 49.203125 -107.796875 C 49.203125 -112.867188 48.234375 -116.4375 46.296875 -118.5 C 44.367188 -120.5625 41.671875 -121.59375 38.203125 -121.59375 C 34.734375 -121.59375 32.03125 -120.5625 30.09375 -118.5 C 28.164062 -116.4375 27.203125 -112.867188 27.203125 -107.796875 C 27.203125 -102.992188 28.265625 -98.757812 30.390625 -95.09375 C 32.523438 -91.425781 35.191406 -87.957031 38.390625 -84.6875 C 41.597656 -81.425781 45.035156 -78.160156 48.703125 -74.890625 C 52.367188 -71.628906 55.800781 -68.066406 59 -64.203125 C 62.195312 -60.335938 64.863281 -55.9375 67 -51 C 69.132812 -46.0625 70.203125 -40.257812 70.203125 -33.59375 C 70.203125 -22.257812 67.429688 -13.5625 61.890625 -7.5 C 56.359375 -1.4375 48.195312 1.59375 37.40625 1.59375 C 26.601562 1.59375 18.429688 -1.4375 12.890625 -7.5 C 7.359375 -13.5625 4.59375 -22.257812 4.59375 -33.59375 L 4.59375 -43.203125 L 25.40625 -43.203125 L 25.40625 -32.203125 C 25.40625 -27.128906 26.4375 -23.59375 28.5 -21.59375 C 30.5625 -19.59375 33.328125 -18.59375 36.796875 -18.59375 C 40.265625 -18.59375 43.03125 -19.59375 45.09375 -21.59375 C 47.164062 -23.59375 48.203125 -27.128906 48.203125 -32.203125 C 48.203125 -37.003906 47.132812 -41.238281 45 -44.90625 C 42.863281 -48.570312 40.195312 -52.035156 37 -55.296875 C 33.800781 -58.566406 30.367188 -61.832031 26.703125 -65.09375 C 23.035156 -68.363281 19.597656 -71.929688 16.390625 -75.796875 C 13.191406 -79.660156 10.523438 -84.0625 8.390625 -89 C 6.265625 -93.9375 5.203125 -99.738281 5.203125 -106.40625 Z M 5.203125 -106.40625 "/></g></g></g><g fill="#ffffff" fill-opacity="1"><g transform="translate(1006.711371, 208.355828)"><g><path d="M 8 -140 L 30 -140 L 30 0 L 8 0 Z M 8 -140 "/></g></g></g><g fill="#ffffff" fill-opacity="1"><g transform="translate(1044.710329, 208.355828)"><g><path d="M 28.203125 -32.203125 C 28.203125 -27.128906 29.234375 -23.5625 31.296875 -21.5 C 33.367188 -19.4375 36.132812 -18.40625 39.59375 -18.40625 C 43.0625 -18.40625 45.828125 -19.4375 47.890625 -21.5 C 49.960938 -23.5625 51 -27.128906 51 -32.203125 L 51 -107.796875 C 51 -112.867188 49.960938 -116.4375 47.890625 -118.5 C 45.828125 -120.5625 43.0625 -121.59375 39.59375 -121.59375 C 36.132812 -121.59375 33.367188 -120.5625 31.296875 -118.5 C 29.234375 -116.4375 28.203125 -112.867188 28.203125 -107.796875 Z M 6.203125 -106.40625 C 6.203125 -117.738281 9.066406 -126.4375 14.796875 -132.5 C 20.535156 -138.5625 28.800781 -141.59375 39.59375 -141.59375 C 50.394531 -141.59375 58.660156 -138.5625 64.390625 -132.5 C 70.128906 -126.4375 73 -117.738281 73 -106.40625 L 73 -33.59375 C 73 -22.257812 70.128906 -13.5625 64.390625 -7.5 C 58.660156 -1.4375 50.394531 1.59375 39.59375 1.59375 C 28.800781 1.59375 20.535156 -1.4375 14.796875 -7.5 C 9.066406 -13.5625 6.203125 -22.257812 6.203125 -33.59375 Z M 6.203125 -106.40625 "/></g></g></g><g fill="#ffffff" fill-opacity="1"><g transform="translate(1123.90822, 208.355828)"><g><path d="M 27.59375 -101.40625 L 27.59375 0 L 7.796875 0 L 7.796875 -140 L 35.40625 -140 L 58 -56.203125 L 58 -140 L 77.59375 -140 L 77.59375 0 L 55 0 Z M 27.59375 -101.40625 "/></g></g></g></svg>