<svg xmlns="http://www.w3.org/2000/svg" xmlns:xlink="http://www.w3.org/1999/xlink" width="2240" zoomAndPan="magnify" viewBox="0 0 1680 284.999983" height="380" preserveAspectRatio="xMidYMid meet" version="1.0"><defs><g/></defs><path fill="#ffffff" d="M 624.824219 208.046875 C 624.824219 215.25 619.640625 218.15625 617.492188 219.167969 C 615.34375 220.054688 609.652344 221.695312 604.46875 216.769531 L 572.359375 185.808594 L 585.003906 173.675781 C 594.230469 164.832031 599.289062 152.953125 599.289062 140.191406 C 599.289062 127.429688 594.230469 115.550781 585.003906 106.703125 L 514.460938 38.847656 C 500.804688 25.703125 481.464844 22.164062 464.019531 29.621094 C 446.570312 37.078125 435.699219 53.378906 435.699219 72.332031 L 435.699219 207.921875 C 435.699219 226.878906 446.570312 243.179688 464.019531 250.632812 C 470.085938 253.160156 476.28125 254.425781 482.476562 254.425781 C 494.105469 254.425781 505.484375 249.875 514.460938 241.410156 L 539.742188 217.148438 L 514.964844 193.265625 L 490.691406 216.640625 C 485.507812 221.570312 479.820312 219.925781 477.671875 219.042969 C 475.523438 218.15625 470.339844 215.125 470.339844 207.921875 L 470.339844 72.460938 C 470.339844 65.257812 475.523438 62.351562 477.671875 61.339844 C 478.683594 60.960938 480.453125 60.328125 482.601562 60.328125 C 485.003906 60.328125 487.910156 61.085938 490.691406 63.738281 L 522.804688 94.699219 L 510.160156 106.832031 C 500.933594 115.675781 495.875 127.554688 495.875 140.316406 C 495.875 153.078125 500.933594 164.957031 510.160156 173.804688 L 580.703125 241.660156 C 589.679688 250.253906 600.929688 254.675781 612.6875 254.675781 C 618.882812 254.675781 625.078125 253.414062 631.144531 250.886719 C 648.589844 243.429688 659.464844 227.128906 659.464844 208.175781 L 659.464844 131.851562 L 624.824219 164.707031 Z M 560.980469 148.910156 L 547.457031 161.925781 L 533.929688 148.910156 C 531.527344 146.636719 530.261719 143.476562 530.261719 140.191406 C 530.261719 136.90625 531.527344 133.746094 533.929688 131.472656 L 547.457031 118.457031 L 560.980469 131.472656 C 563.382812 133.746094 564.648438 136.90625 564.648438 140.191406 C 564.648438 143.601562 563.382812 146.636719 560.980469 148.910156 Z M 659.210938 72.460938 L 659.210938 115.675781 L 624.824219 115.675781 L 624.824219 72.460938 C 624.824219 65.257812 619.640625 62.351562 617.492188 61.339844 C 616.480469 60.960938 614.710938 60.328125 612.5625 60.328125 C 610.160156 60.328125 607.25 61.085938 604.46875 63.738281 L 579.945312 87.242188 L 555.292969 63.234375 L 580.578125 38.847656 C 594.230469 25.703125 613.574219 22.164062 631.019531 29.621094 C 648.339844 37.078125 659.210938 53.503906 659.210938 72.460938 Z M 659.210938 72.460938 " fill-opacity="1" fill-rule="nonzero"/><g fill="#ffffff" fill-opacity="1"><g transform="translate(712.147586, 207.605828)"><g><path d="M 54.59375 -40.59375 L 69.59375 -140 L 100.203125 -140 L 100.203125 0 L 79.40625 0 L 79.40625 -100.40625 L 64.203125 0 L 43.40625 0 L 27 -99 L 27 0 L 7.796875 0 L 7.796875 -140 L 38.40625 -140 Z M 54.59375 -40.59375 "/></g></g></g><g fill="#ffffff" fill-opacity="1"><g transform="translate(820.344711, 207.605828)"><g><path d="M 8 -140 L 42.796875 -140 C 53.867188 -140 62.101562 -137.066406 67.5 -131.203125 C 72.894531 -125.335938 75.59375 -116.738281 75.59375 -105.40625 L 75.59375 -34.59375 C 75.59375 -23.257812 72.894531 -14.660156 67.5 -8.796875 C 62.101562 -2.929688 53.867188 0 42.796875 0 L 8 0 Z M 30 -120 L 30 -20 L 42.40625 -20 C 45.863281 -20 48.59375 -21 50.59375 -23 C 52.59375 -25 53.59375 -28.53125 53.59375 -33.59375 L 53.59375 -106.40625 C 53.59375 -111.46875 52.59375 -115 50.59375 -117 C 48.59375 -119 45.863281 -120 42.40625 -120 Z M 30 -120 "/></g></g></g><g fill="#ffffff" fill-opacity="1"><g transform="translate(901.942519, 207.605828)"><g><path d="M 7 -80 L 47 -80 L 47 -60 L 7 -60 Z M 7 -80 "/></g></g></g><g fill="#ffffff" fill-opacity="1"><g transform="translate(955.941049, 207.605828)"><g><path d="M 8 -140 L 30 -140 L 30 -20 L 66.203125 -20 L 66.203125 0 L 8 0 Z M 8 -140 "/></g></g></g><g fill="#ffffff" fill-opacity="1"><g transform="translate(1024.139223, 207.605828)"><g><path d="M 8 -140 L 30 -140 L 30 0 L 8 0 Z M 8 -140 "/></g></g></g><g fill="#ffffff" fill-opacity="1"><g transform="translate(1062.138182, 207.605828)"><g><path d="M 41.203125 -25.796875 L 58 -140 L 78.203125 -140 L 56.59375 0 L 23.796875 0 L 2.203125 -140 L 24.40625 -140 Z M 41.203125 -25.796875 "/></g></g></g><g fill="#ffffff" fill-opacity="1"><g transform="translate(1142.536032, 207.605828)"><g><path d="M 30 -81 L 60.203125 -81 L 60.203125 -61 L 30 -61 L 30 -20 L 68 -20 L 68 0 L 8 0 L 8 -140 L 68 -140 L 68 -120 L 30 -120 Z M 30 -81 "/></g></g></g><g fill="#ffffff" fill-opacity="1"><g transform="translate(964.14516, 237.653404)"><g><path d="M 4.3125 -0.375 L 4.3125 5.609375 L 2.015625 5.609375 L 2.015625 -12.546875 L 4.3125 -12.546875 L 4.3125 -11.734375 L 4.359375 -11.703125 C 5.410156 -12.453125 6.601562 -12.828125 7.9375 -12.828125 C 9.644531 -12.828125 11.082031 -12.21875 12.25 -11 C 13.414062 -9.789062 14 -8.234375 14 -6.328125 C 14 -4.347656 13.367188 -2.75 12.109375 -1.53125 C 10.847656 -0.320312 9.296875 0.28125 7.453125 0.28125 C 6.335938 0.28125 5.304688 0.0507812 4.359375 -0.40625 Z M 4.3125 -2.59375 C 5.363281 -2.019531 6.425781 -1.734375 7.5 -1.734375 C 8.738281 -1.734375 9.742188 -2.144531 10.515625 -2.96875 C 11.285156 -3.789062 11.671875 -4.847656 11.671875 -6.140625 C 11.671875 -7.453125 11.289062 -8.550781 10.53125 -9.4375 C 9.769531 -10.320312 8.773438 -10.765625 7.546875 -10.765625 C 6.304688 -10.765625 5.226562 -10.378906 4.3125 -9.609375 Z M 4.3125 -2.59375 "/></g></g></g><g fill="#ffffff" fill-opacity="1"><g transform="translate(979.317621, 237.653404)"><g><path d="M 3.046875 -1.609375 C 1.773438 -2.867188 1.140625 -4.421875 1.140625 -6.265625 C 1.140625 -8.117188 1.773438 -9.675781 3.046875 -10.9375 C 4.316406 -12.195312 5.894531 -12.828125 7.78125 -12.828125 C 9.664062 -12.828125 11.238281 -12.195312 12.5 -10.9375 C 13.769531 -9.675781 14.40625 -8.117188 14.40625 -6.265625 C 14.40625 -4.421875 13.769531 -2.867188 12.5 -1.609375 C 11.238281 -0.347656 9.664062 0.28125 7.78125 0.28125 C 5.894531 0.28125 4.316406 -0.347656 3.046875 -1.609375 Z M 4.671875 -9.453125 C 3.847656 -8.609375 3.4375 -7.546875 3.4375 -6.265625 C 3.4375 -4.992188 3.847656 -3.929688 4.671875 -3.078125 C 5.503906 -2.234375 6.539062 -1.8125 7.78125 -1.8125 C 9.019531 -1.8125 10.050781 -2.234375 10.875 -3.078125 C 11.695312 -3.929688 12.109375 -4.992188 12.109375 -6.265625 C 12.109375 -7.546875 11.695312 -8.609375 10.875 -9.453125 C 10.050781 -10.304688 9.019531 -10.734375 7.78125 -10.734375 C 6.539062 -10.734375 5.503906 -10.304688 4.671875 -9.453125 Z M 4.671875 -9.453125 "/></g></g></g><g fill="#ffffff" fill-opacity="1"><g transform="translate(994.872578, 237.653404)"><g><path d="M 5.03125 0 L 0.65625 -12.546875 L 3.15625 -12.546875 L 5.03125 -6.96875 C 5.394531 -5.820312 5.804688 -4.523438 6.265625 -3.078125 L 6.328125 -3.078125 C 6.710938 -4.222656 7.171875 -5.519531 7.703125 -6.96875 L 9.765625 -12.546875 L 11.40625 -12.546875 L 13.46875 -6.96875 C 13.925781 -5.757812 14.382812 -4.460938 14.84375 -3.078125 L 14.890625 -3.078125 C 15.242188 -4.273438 15.648438 -5.5625 16.109375 -6.9375 L 17.984375 -12.546875 L 20.375 -12.546875 L 16.015625 0 L 13.75 0 L 11.78125 -5.375 C 11.40625 -6.382812 11 -7.5625 10.5625 -8.90625 L 10.5 -8.90625 C 10.0625 -7.5625 9.65625 -6.382812 9.28125 -5.375 L 7.3125 0 Z M 5.03125 0 "/></g></g></g><g fill="#ffffff" fill-opacity="1"><g transform="translate(1015.910021, 237.653404)"><g><path d="M 13.03125 -5.609375 L 3.4375 -5.609375 C 3.613281 -4.398438 4.117188 -3.457031 4.953125 -2.78125 C 5.785156 -2.113281 6.828125 -1.78125 8.078125 -1.78125 C 9.597656 -1.78125 11.046875 -2.300781 12.421875 -3.34375 L 12.421875 -0.890625 C 11.191406 -0.109375 9.695312 0.28125 7.9375 0.28125 C 5.957031 0.28125 4.328125 -0.320312 3.046875 -1.53125 C 1.773438 -2.738281 1.140625 -4.316406 1.140625 -6.265625 C 1.140625 -8.191406 1.75 -9.765625 2.96875 -10.984375 C 4.1875 -12.210938 5.660156 -12.828125 7.390625 -12.828125 C 9.003906 -12.828125 10.359375 -12.285156 11.453125 -11.203125 C 12.554688 -10.128906 13.109375 -8.644531 13.109375 -6.75 C 13.109375 -6.289062 13.082031 -5.910156 13.03125 -5.609375 Z M 7.34375 -10.765625 C 6.445312 -10.765625 5.628906 -10.476562 4.890625 -9.90625 C 4.148438 -9.332031 3.6875 -8.503906 3.5 -7.421875 L 10.890625 -7.421875 C 10.804688 -8.554688 10.414062 -9.394531 9.71875 -9.9375 C 9.019531 -10.488281 8.226562 -10.765625 7.34375 -10.765625 Z M 7.34375 -10.765625 "/></g></g></g><g fill="#ffffff" fill-opacity="1"><g transform="translate(1030.266484, 237.653404)"><g><path d="M 2.015625 0 L 2.015625 -12.546875 L 4.3125 -12.546875 L 4.3125 -10.703125 L 4.359375 -10.6875 C 5.296875 -11.988281 6.535156 -12.640625 8.078125 -12.640625 C 8.367188 -12.640625 8.644531 -12.609375 8.90625 -12.546875 L 8.90625 -10.28125 C 8.625 -10.34375 8.320312 -10.375 8 -10.375 C 6.40625 -10.375 5.175781 -9.632812 4.3125 -8.15625 L 4.3125 0 Z M 2.015625 0 "/></g></g></g><g fill="#ffffff" fill-opacity="1"><g transform="translate(1039.624958, 237.653404)"><g><path d="M 13.03125 -5.609375 L 3.4375 -5.609375 C 3.613281 -4.398438 4.117188 -3.457031 4.953125 -2.78125 C 5.785156 -2.113281 6.828125 -1.78125 8.078125 -1.78125 C 9.597656 -1.78125 11.046875 -2.300781 12.421875 -3.34375 L 12.421875 -0.890625 C 11.191406 -0.109375 9.695312 0.28125 7.9375 0.28125 C 5.957031 0.28125 4.328125 -0.320312 3.046875 -1.53125 C 1.773438 -2.738281 1.140625 -4.316406 1.140625 -6.265625 C 1.140625 -8.191406 1.75 -9.765625 2.96875 -10.984375 C 4.1875 -12.210938 5.660156 -12.828125 7.390625 -12.828125 C 9.003906 -12.828125 10.359375 -12.285156 11.453125 -11.203125 C 12.554688 -10.128906 13.109375 -8.644531 13.109375 -6.75 C 13.109375 -6.289062 13.082031 -5.910156 13.03125 -5.609375 Z M 7.34375 -10.765625 C 6.445312 -10.765625 5.628906 -10.476562 4.890625 -9.90625 C 4.148438 -9.332031 3.6875 -8.503906 3.5 -7.421875 L 10.890625 -7.421875 C 10.804688 -8.554688 10.414062 -9.394531 9.71875 -9.9375 C 9.019531 -10.488281 8.226562 -10.765625 7.34375 -10.765625 Z M 7.34375 -10.765625 "/></g></g></g><g fill="#ffffff" fill-opacity="1"><g transform="translate(1053.981421, 237.653404)"><g><path d="M 1.203125 -6.0625 C 1.203125 -8 1.820312 -9.609375 3.0625 -10.890625 C 4.300781 -12.179688 5.898438 -12.828125 7.859375 -12.828125 C 8.859375 -12.828125 9.859375 -12.601562 10.859375 -12.15625 L 10.90625 -12.1875 L 10.90625 -19.484375 L 13.203125 -19.484375 L 13.203125 0 L 10.90625 0 L 10.90625 -0.765625 L 10.859375 -0.796875 C 9.835938 -0.078125 8.664062 0.28125 7.34375 0.28125 C 5.613281 0.28125 4.15625 -0.300781 2.96875 -1.46875 C 1.789062 -2.644531 1.203125 -4.175781 1.203125 -6.0625 Z M 3.515625 -6.203125 C 3.515625 -4.921875 3.890625 -3.859375 4.640625 -3.015625 C 5.390625 -2.179688 6.394531 -1.765625 7.65625 -1.765625 C 8.789062 -1.765625 9.875 -2.117188 10.90625 -2.828125 L 10.90625 -10 C 9.894531 -10.519531 8.867188 -10.78125 7.828125 -10.78125 C 6.535156 -10.78125 5.492188 -10.347656 4.703125 -9.484375 C 3.910156 -8.617188 3.515625 -7.523438 3.515625 -6.203125 Z M 3.515625 -6.203125 "/></g></g></g><g fill="#ffffff" fill-opacity="1"><g transform="translate(1069.204888, 237.653404)"><g/></g></g><g fill="#ffffff" fill-opacity="1"><g transform="translate(1075.375874, 237.653404)"><g><path d="M 2.015625 0 L 2.015625 -19.484375 L 4.3125 -19.484375 L 4.3125 -11.828125 L 4.359375 -11.8125 C 5.410156 -12.488281 6.59375 -12.828125 7.90625 -12.828125 C 9.632812 -12.828125 11.085938 -12.226562 12.265625 -11.03125 C 13.441406 -9.84375 14.03125 -8.316406 14.03125 -6.453125 C 14.03125 -4.515625 13.398438 -2.90625 12.140625 -1.625 C 10.878906 -0.351562 9.289062 0.28125 7.375 0.28125 C 6.363281 0.28125 5.316406 0.0625 4.234375 -0.375 Z M 4.3125 -2.546875 C 5.226562 -2.003906 6.273438 -1.734375 7.453125 -1.734375 C 8.703125 -1.734375 9.722656 -2.164062 10.515625 -3.03125 C 11.304688 -3.894531 11.703125 -4.992188 11.703125 -6.328125 C 11.703125 -7.597656 11.328125 -8.65625 10.578125 -9.5 C 9.828125 -10.34375 8.84375 -10.765625 7.625 -10.765625 C 6.363281 -10.765625 5.257812 -10.375 4.3125 -9.59375 Z M 4.3125 -2.546875 "/></g></g></g><g fill="#ffffff" fill-opacity="1"><g transform="translate(1090.548335, 237.653404)"><g><path d="M 4.890625 5.609375 L 2.390625 5.609375 L 5.78125 -1.34375 L 0.5625 -12.546875 L 3.109375 -12.546875 L 5.296875 -7.796875 C 5.910156 -6.453125 6.484375 -5.195312 7.015625 -4.03125 L 7.0625 -4.03125 C 7.8125 -5.695312 8.378906 -6.953125 8.765625 -7.796875 L 10.96875 -12.546875 L 13.390625 -12.546875 Z M 4.890625 5.609375 "/></g></g></g><path fill="#eaeae9" d="M 1149.933594 224.261719 L 1157.78125 240.210938 L 1141.839844 240.210938 Z M 1149.933594 216.902344 L 1136.691406 243.398438 L 1163.179688 243.398438 Z M 1149.933594 216.902344 " fill-opacity="1" fill-rule="nonzero"/><path fill="#eaeae9" d="M 1201.925781 240.210938 C 1191.625 238.738281 1191.625 222.542969 1201.925781 221.316406 Z M 1205.113281 240.210938 L 1205.113281 221.316406 C 1208.058594 221.808594 1210.507812 223.527344 1211.980469 226.226562 L 1214.921875 224.753906 C 1209.28125 212.976562 1190.15625 217.636719 1190.644531 230.640625 C 1190.15625 243.890625 1209.28125 248.308594 1214.921875 236.53125 L 1211.980469 235.058594 C 1210.507812 237.757812 1208.058594 239.71875 1205.113281 240.210938 " fill-opacity="1" fill-rule="nonzero"/><path fill="#eaeae9" d="M 1131.785156 233.832031 L 1115.601562 233.832031 L 1115.601562 227.695312 L 1131.785156 227.695312 Z M 1131.785156 217.882812 L 1131.785156 224.261719 L 1115.601562 224.261719 L 1115.601562 217.882812 L 1112.414062 217.882812 L 1112.414062 243.15625 L 1115.601562 243.15625 L 1115.601562 236.777344 L 1131.785156 236.777344 L 1131.785156 243.15625 L 1135.21875 243.15625 L 1135.21875 217.882812 Z M 1131.785156 217.882812 " fill-opacity="1" fill-rule="nonzero"/><path fill="#eaeae9" d="M 1265.6875 239.964844 L 1250.484375 239.964844 L 1265.6875 224.753906 Z M 1247.050781 224.753906 L 1254.164062 231.867188 L 1247.050781 238.984375 Z M 1256.371094 229.660156 L 1243.617188 217.144531 L 1243.617188 243.398438 L 1268.875 243.398438 L 1268.875 216.902344 Z M 1256.371094 229.660156 " fill-opacity="1" fill-rule="nonzero"/><path fill="#eaeae9" d="M 1185.25 236.53125 L 1178.628906 230.152344 L 1178.628906 221.070312 L 1185.25 221.070312 Z M 1175.195312 239.964844 L 1167.835938 239.964844 L 1167.835938 224.753906 L 1175.195312 231.621094 Z M 1175.195312 217.882812 L 1175.195312 226.960938 L 1164.648438 216.902344 L 1164.648438 243.15625 L 1178.628906 243.15625 L 1178.628906 234.8125 L 1188.683594 244.136719 L 1188.683594 217.882812 Z M 1175.195312 217.882812 " fill-opacity="1" fill-rule="nonzero"/><path fill="#eaeae9" d="M 1228.902344 240.210938 C 1216.394531 240.457031 1216.394531 220.828125 1228.902344 221.070312 C 1241.410156 220.828125 1241.410156 240.457031 1228.902344 240.210938 M 1228.902344 217.636719 C 1212.226562 217.390625 1212.226562 243.890625 1228.902344 243.644531 C 1245.578125 243.890625 1245.578125 217.390625 1228.902344 217.636719 " fill-opacity="1" fill-rule="nonzero"/></svg>