<svg xmlns="http://www.w3.org/2000/svg" xmlns:xlink="http://www.w3.org/1999/xlink" width="2240" zoomAndPan="magnify" viewBox="0 0 1680 284.999983" height="380" preserveAspectRatio="xMidYMid meet" version="1.0"><defs><g/></defs><path fill="#ffffff" d="M 809.476562 208.046875 C 809.476562 215.25 804.292969 218.15625 802.144531 219.167969 C 799.996094 220.054688 794.304688 221.695312 789.121094 216.769531 L 757.011719 185.808594 L 769.652344 173.675781 C 778.882812 164.832031 783.9375 152.953125 783.9375 140.191406 C 783.9375 127.429688 778.882812 115.550781 769.652344 106.703125 L 699.109375 38.847656 C 685.457031 25.703125 666.117188 22.164062 648.667969 29.621094 C 631.222656 37.078125 620.351562 53.378906 620.351562 72.332031 L 620.351562 207.921875 C 620.351562 226.878906 631.222656 243.179688 648.667969 250.632812 C 654.738281 253.160156 660.933594 254.425781 667.125 254.425781 C 678.757812 254.425781 690.136719 249.875 699.109375 241.410156 L 724.394531 217.148438 L 699.617188 193.265625 L 675.34375 216.640625 C 670.160156 221.570312 664.472656 219.925781 662.324219 219.042969 C 660.171875 218.15625 654.992188 215.125 654.992188 207.921875 L 654.992188 72.460938 C 654.992188 65.257812 660.171875 62.351562 662.324219 61.339844 C 663.335938 60.960938 665.105469 60.328125 667.253906 60.328125 C 669.65625 60.328125 672.5625 61.085938 675.34375 63.738281 L 707.453125 94.699219 L 694.8125 106.832031 C 685.585938 115.675781 680.527344 127.554688 680.527344 140.316406 C 680.527344 153.078125 685.585938 164.957031 694.8125 173.804688 L 765.355469 241.660156 C 774.332031 250.253906 785.582031 254.675781 797.339844 254.675781 C 803.535156 254.675781 809.730469 253.414062 815.796875 250.886719 C 833.242188 243.429688 844.113281 227.128906 844.113281 208.175781 L 844.113281 131.851562 L 809.476562 164.707031 Z M 745.632812 148.910156 L 732.105469 161.925781 L 718.578125 148.910156 C 716.175781 146.636719 714.914062 143.476562 714.914062 140.191406 C 714.914062 136.90625 716.175781 133.746094 718.578125 131.472656 L 732.105469 118.457031 L 745.632812 131.472656 C 748.035156 133.746094 749.300781 136.90625 749.300781 140.191406 C 749.300781 143.601562 748.035156 146.636719 745.632812 148.910156 Z M 843.863281 72.460938 L 843.863281 115.675781 L 809.476562 115.675781 L 809.476562 72.460938 C 809.476562 65.257812 804.292969 62.351562 802.144531 61.339844 C 801.132812 60.960938 799.363281 60.328125 797.214844 60.328125 C 794.8125 60.328125 791.902344 61.085938 789.121094 63.738281 L 764.597656 87.242188 L 739.945312 63.234375 L 765.230469 38.847656 C 778.882812 25.703125 798.222656 22.164062 815.671875 29.621094 C 832.988281 37.078125 843.863281 53.503906 843.863281 72.460938 Z M 843.863281 72.460938 " fill-opacity="1" fill-rule="nonzero"/><g fill="#ffffff" fill-opacity="1"><g transform="translate(903.076783, 187.249996)"><g><path d="M 54.59375 -40.59375 L 69.59375 -140 L 100.203125 -140 L 100.203125 0 L 79.40625 0 L 79.40625 -100.40625 L 64.203125 0 L 43.40625 0 L 27 -99 L 27 0 L 7.796875 0 L 7.796875 -140 L 38.40625 -140 Z M 54.59375 -40.59375 "/></g></g></g><g fill="#ffffff" fill-opacity="1"><g transform="translate(1011.273908, 187.249996)"><g><path d="M 8 -140 L 42.796875 -140 C 53.867188 -140 62.101562 -137.066406 67.5 -131.203125 C 72.894531 -125.335938 75.59375 -116.738281 75.59375 -105.40625 L 75.59375 -34.59375 C 75.59375 -23.257812 72.894531 -14.660156 67.5 -8.796875 C 62.101562 -2.929688 53.867188 0 42.796875 0 L 8 0 Z M 30 -120 L 30 -20 L 42.40625 -20 C 45.863281 -20 48.59375 -21 50.59375 -23 C 52.59375 -25 53.59375 -28.53125 53.59375 -33.59375 L 53.59375 -106.40625 C 53.59375 -111.46875 52.59375 -115 50.59375 -117 C 48.59375 -119 45.863281 -120 42.40625 -120 Z M 30 -120 "/></g></g></g><g fill="#ffffff" fill-opacity="1"><g transform="translate(938.146066, 214.828372)"><g><path d="M 3.46875 -0.3125 L 3.46875 4.515625 L 1.625 4.515625 L 1.625 -10.09375 L 3.46875 -10.09375 L 3.46875 -9.4375 L 3.5 -9.40625 C 4.351562 -10.007812 5.3125 -10.3125 6.375 -10.3125 C 7.757812 -10.3125 8.914062 -9.820312 9.84375 -8.84375 C 10.78125 -7.863281 11.25 -6.609375 11.25 -5.078125 C 11.25 -3.492188 10.742188 -2.210938 9.734375 -1.234375 C 8.722656 -0.265625 7.472656 0.21875 5.984375 0.21875 C 5.097656 0.21875 4.269531 0.0351562 3.5 -0.328125 Z M 3.46875 -2.09375 C 4.3125 -1.625 5.164062 -1.390625 6.03125 -1.390625 C 7.03125 -1.390625 7.835938 -1.71875 8.453125 -2.375 C 9.078125 -3.039062 9.390625 -3.894531 9.390625 -4.9375 C 9.390625 -5.988281 9.082031 -6.867188 8.46875 -7.578125 C 7.851562 -8.296875 7.050781 -8.65625 6.0625 -8.65625 C 5.070312 -8.65625 4.207031 -8.347656 3.46875 -7.734375 Z M 3.46875 -2.09375 "/></g></g></g><g fill="#ffffff" fill-opacity="1"><g transform="translate(950.341186, 214.828372)"><g><path d="M 2.453125 -1.296875 C 1.429688 -2.304688 0.921875 -3.554688 0.921875 -5.046875 C 0.921875 -6.535156 1.429688 -7.785156 2.453125 -8.796875 C 3.472656 -9.804688 4.738281 -10.3125 6.25 -10.3125 C 7.769531 -10.3125 9.035156 -9.804688 10.046875 -8.796875 C 11.066406 -7.785156 11.578125 -6.535156 11.578125 -5.046875 C 11.578125 -3.554688 11.066406 -2.304688 10.046875 -1.296875 C 9.035156 -0.285156 7.769531 0.21875 6.25 0.21875 C 4.738281 0.21875 3.472656 -0.285156 2.453125 -1.296875 Z M 3.75 -7.59375 C 3.09375 -6.914062 2.765625 -6.0625 2.765625 -5.03125 C 2.765625 -4.007812 3.09375 -3.15625 3.75 -2.46875 C 4.414062 -1.789062 5.25 -1.453125 6.25 -1.453125 C 7.25 -1.453125 8.078125 -1.789062 8.734375 -2.46875 C 9.398438 -3.15625 9.734375 -4.007812 9.734375 -5.03125 C 9.734375 -6.0625 9.398438 -6.914062 8.734375 -7.59375 C 8.078125 -8.28125 7.25 -8.625 6.25 -8.625 C 5.25 -8.625 4.414062 -8.28125 3.75 -7.59375 Z M 3.75 -7.59375 "/></g></g></g><g fill="#ffffff" fill-opacity="1"><g transform="translate(962.843752, 214.828372)"><g><path d="M 4.03125 0 L 0.53125 -10.09375 L 2.546875 -10.09375 L 4.03125 -5.59375 C 4.332031 -4.675781 4.671875 -3.640625 5.046875 -2.484375 L 5.078125 -2.484375 C 5.398438 -3.398438 5.769531 -4.4375 6.1875 -5.59375 L 7.84375 -10.09375 L 9.15625 -10.09375 L 10.828125 -5.59375 C 11.191406 -4.625 11.5625 -3.585938 11.9375 -2.484375 L 11.96875 -2.484375 C 12.257812 -3.441406 12.585938 -4.472656 12.953125 -5.578125 L 14.453125 -10.09375 L 16.375 -10.09375 L 12.875 0 L 11.046875 0 L 9.46875 -4.328125 C 9.164062 -5.128906 8.835938 -6.070312 8.484375 -7.15625 L 8.453125 -7.15625 C 8.085938 -6.070312 7.757812 -5.128906 7.46875 -4.328125 L 5.890625 0 Z M 4.03125 0 "/></g></g></g><g fill="#ffffff" fill-opacity="1"><g transform="translate(979.752957, 214.828372)"><g><path d="M 10.46875 -4.515625 L 2.765625 -4.515625 C 2.898438 -3.535156 3.300781 -2.773438 3.96875 -2.234375 C 4.644531 -1.703125 5.488281 -1.4375 6.5 -1.4375 C 7.71875 -1.4375 8.878906 -1.851562 9.984375 -2.6875 L 9.984375 -0.71875 C 8.992188 -0.09375 7.789062 0.21875 6.375 0.21875 C 4.789062 0.21875 3.484375 -0.265625 2.453125 -1.234375 C 1.429688 -2.203125 0.921875 -3.472656 0.921875 -5.046875 C 0.921875 -6.585938 1.410156 -7.847656 2.390625 -8.828125 C 3.367188 -9.816406 4.550781 -10.3125 5.9375 -10.3125 C 7.238281 -10.3125 8.328125 -9.875 9.203125 -9 C 10.085938 -8.132812 10.53125 -6.945312 10.53125 -5.4375 C 10.53125 -5.0625 10.507812 -4.753906 10.46875 -4.515625 Z M 5.90625 -8.65625 C 5.175781 -8.65625 4.515625 -8.425781 3.921875 -7.96875 C 3.328125 -7.507812 2.957031 -6.84375 2.8125 -5.96875 L 8.75 -5.96875 C 8.6875 -6.882812 8.375 -7.5625 7.8125 -8 C 7.25 -8.4375 6.613281 -8.65625 5.90625 -8.65625 Z M 5.90625 -8.65625 "/></g></g></g><g fill="#ffffff" fill-opacity="1"><g transform="translate(991.292206, 214.828372)"><g><path d="M 1.625 0 L 1.625 -10.09375 L 3.46875 -10.09375 L 3.46875 -8.609375 L 3.5 -8.59375 C 4.257812 -9.644531 5.257812 -10.171875 6.5 -10.171875 C 6.726562 -10.171875 6.945312 -10.144531 7.15625 -10.09375 L 7.15625 -8.265625 C 6.9375 -8.316406 6.695312 -8.34375 6.4375 -8.34375 C 5.15625 -8.34375 4.164062 -7.75 3.46875 -6.5625 L 3.46875 0 Z M 1.625 0 "/></g></g></g><g fill="#ffffff" fill-opacity="1"><g transform="translate(998.814246, 214.828372)"><g><path d="M 10.46875 -4.515625 L 2.765625 -4.515625 C 2.898438 -3.535156 3.300781 -2.773438 3.96875 -2.234375 C 4.644531 -1.703125 5.488281 -1.4375 6.5 -1.4375 C 7.71875 -1.4375 8.878906 -1.851562 9.984375 -2.6875 L 9.984375 -0.71875 C 8.992188 -0.09375 7.789062 0.21875 6.375 0.21875 C 4.789062 0.21875 3.484375 -0.265625 2.453125 -1.234375 C 1.429688 -2.203125 0.921875 -3.472656 0.921875 -5.046875 C 0.921875 -6.585938 1.410156 -7.847656 2.390625 -8.828125 C 3.367188 -9.816406 4.550781 -10.3125 5.9375 -10.3125 C 7.238281 -10.3125 8.328125 -9.875 9.203125 -9 C 10.085938 -8.132812 10.53125 -6.945312 10.53125 -5.4375 C 10.53125 -5.0625 10.507812 -4.753906 10.46875 -4.515625 Z M 5.90625 -8.65625 C 5.175781 -8.65625 4.515625 -8.425781 3.921875 -7.96875 C 3.328125 -7.507812 2.957031 -6.84375 2.8125 -5.96875 L 8.75 -5.96875 C 8.6875 -6.882812 8.375 -7.5625 7.8125 -8 C 7.25 -8.4375 6.613281 -8.65625 5.90625 -8.65625 Z M 5.90625 -8.65625 "/></g></g></g><g fill="#ffffff" fill-opacity="1"><g transform="translate(1010.353494, 214.828372)"><g><path d="M 0.96875 -4.875 C 0.96875 -6.4375 1.460938 -7.734375 2.453125 -8.765625 C 3.453125 -9.796875 4.738281 -10.3125 6.3125 -10.3125 C 7.125 -10.3125 7.929688 -10.132812 8.734375 -9.78125 L 8.78125 -9.796875 L 8.78125 -15.65625 L 10.625 -15.65625 L 10.625 0 L 8.78125 0 L 8.78125 -0.609375 L 8.734375 -0.640625 C 7.910156 -0.0664062 6.96875 0.21875 5.90625 0.21875 C 4.507812 0.21875 3.335938 -0.25 2.390625 -1.1875 C 1.441406 -2.132812 0.96875 -3.363281 0.96875 -4.875 Z M 2.828125 -4.984375 C 2.828125 -3.953125 3.128906 -3.097656 3.734375 -2.421875 C 4.335938 -1.753906 5.144531 -1.421875 6.15625 -1.421875 C 7.070312 -1.421875 7.945312 -1.707031 8.78125 -2.28125 L 8.78125 -8.03125 C 7.957031 -8.457031 7.128906 -8.671875 6.296875 -8.671875 C 5.253906 -8.671875 4.414062 -8.320312 3.78125 -7.625 C 3.144531 -6.925781 2.828125 -6.046875 2.828125 -4.984375 Z M 2.828125 -4.984375 "/></g></g></g><g fill="#ffffff" fill-opacity="1"><g transform="translate(1022.589608, 214.828372)"><g/></g></g><g fill="#ffffff" fill-opacity="1"><g transform="translate(1027.549637, 214.828372)"><g><path d="M 1.625 0 L 1.625 -15.65625 L 3.46875 -15.65625 L 3.46875 -9.515625 L 3.5 -9.484375 C 4.351562 -10.035156 5.304688 -10.3125 6.359375 -10.3125 C 7.753906 -10.3125 8.921875 -9.832031 9.859375 -8.875 C 10.804688 -7.914062 11.28125 -6.6875 11.28125 -5.1875 C 11.28125 -3.625 10.769531 -2.332031 9.75 -1.3125 C 8.738281 -0.289062 7.460938 0.21875 5.921875 0.21875 C 5.117188 0.21875 4.28125 0.0390625 3.40625 -0.3125 Z M 3.46875 -2.046875 C 4.207031 -1.609375 5.046875 -1.390625 5.984375 -1.390625 C 6.992188 -1.390625 7.816406 -1.738281 8.453125 -2.4375 C 9.085938 -3.132812 9.40625 -4.015625 9.40625 -5.078125 C 9.40625 -6.109375 9.101562 -6.960938 8.5 -7.640625 C 7.90625 -8.316406 7.113281 -8.65625 6.125 -8.65625 C 5.113281 -8.65625 4.226562 -8.335938 3.46875 -7.703125 Z M 3.46875 -2.046875 "/></g></g></g><g fill="#ffffff" fill-opacity="1"><g transform="translate(1039.744757, 214.828372)"><g><path d="M 3.9375 4.515625 L 1.921875 4.515625 L 4.65625 -1.09375 L 0.453125 -10.09375 L 2.5 -10.09375 L 4.265625 -6.265625 C 4.753906 -5.191406 5.210938 -4.179688 5.640625 -3.234375 L 5.671875 -3.234375 C 6.273438 -4.578125 6.734375 -5.585938 7.046875 -6.265625 L 8.8125 -10.09375 L 10.765625 -10.09375 Z M 3.9375 4.515625 "/></g></g></g><path fill="#eaeae9" d="M 955.355469 231.070312 L 963.597656 247.839844 L 946.851562 247.839844 Z M 955.355469 223.328125 L 941.441406 251.195312 L 969.269531 251.195312 Z M 955.355469 223.328125 " fill-opacity="1" fill-rule="nonzero"/><path fill="#eaeae9" d="M 1009.980469 247.839844 C 999.15625 246.292969 999.15625 229.265625 1009.980469 227.972656 Z M 1013.328125 247.839844 L 1013.328125 227.972656 C 1016.421875 228.492188 1018.996094 230.296875 1020.542969 233.132812 L 1023.636719 231.585938 C 1017.710938 219.203125 997.613281 224.105469 998.125 237.777344 C 997.613281 251.710938 1017.710938 256.355469 1023.636719 243.972656 L 1020.542969 242.421875 C 1018.996094 245.261719 1016.421875 247.324219 1013.328125 247.839844 " fill-opacity="1" fill-rule="nonzero"/><path fill="#eaeae9" d="M 936.285156 241.132812 L 919.28125 241.132812 L 919.28125 234.683594 L 936.285156 234.683594 Z M 936.285156 224.363281 L 936.285156 231.070312 L 919.28125 231.070312 L 919.28125 224.363281 L 915.929688 224.363281 L 915.929688 250.9375 L 919.28125 250.9375 L 919.28125 244.230469 L 936.285156 244.230469 L 936.285156 250.9375 L 939.894531 250.9375 L 939.894531 224.363281 Z M 936.285156 224.363281 " fill-opacity="1" fill-rule="nonzero"/><path fill="#eaeae9" d="M 1076.972656 247.582031 L 1060.996094 247.582031 L 1076.972656 231.585938 Z M 1057.390625 231.585938 L 1064.863281 239.070312 L 1057.390625 246.550781 Z M 1067.183594 236.746094 L 1053.785156 223.589844 L 1053.785156 251.195312 L 1080.324219 251.195312 L 1080.324219 223.328125 Z M 1067.183594 236.746094 " fill-opacity="1" fill-rule="nonzero"/><path fill="#eaeae9" d="M 992.457031 243.972656 L 985.5 237.261719 L 985.5 227.714844 L 992.457031 227.714844 Z M 981.894531 247.582031 L 974.164062 247.582031 L 974.164062 231.585938 L 981.894531 238.8125 Z M 981.894531 224.363281 L 981.894531 233.910156 L 970.8125 223.328125 L 970.8125 250.9375 L 985.5 250.9375 L 985.5 242.164062 L 996.066406 251.96875 L 996.066406 224.363281 Z M 981.894531 224.363281 " fill-opacity="1" fill-rule="nonzero"/><path fill="#eaeae9" d="M 1038.324219 247.839844 C 1025.183594 248.097656 1025.183594 227.457031 1038.324219 227.714844 C 1051.464844 227.457031 1051.464844 248.097656 1038.324219 247.839844 M 1038.324219 224.105469 C 1020.800781 223.847656 1020.800781 251.710938 1038.324219 251.453125 C 1055.84375 251.710938 1055.84375 223.847656 1038.324219 224.105469 " fill-opacity="1" fill-rule="nonzero"/></svg>