<svg xmlns="http://www.w3.org/2000/svg" xmlns:xlink="http://www.w3.org/1999/xlink" width="2240" zoomAndPan="magnify" viewBox="0 0 1680 284.999983" height="380" preserveAspectRatio="xMidYMid meet" version="1.0"><defs><g/></defs><path fill="#ffffff" d="M 346.800781 208.046875 C 346.800781 215.25 341.617188 218.15625 339.46875 219.167969 C 337.320312 220.054688 331.632812 221.695312 326.449219 216.769531 L 294.339844 185.808594 L 306.980469 173.675781 C 316.207031 164.832031 321.265625 152.953125 321.265625 140.191406 C 321.265625 127.429688 316.207031 115.550781 306.980469 106.703125 L 236.4375 38.847656 C 222.785156 25.703125 203.441406 22.164062 185.996094 29.621094 C 168.550781 37.078125 157.679688 53.378906 157.679688 72.332031 L 157.679688 207.921875 C 157.679688 226.878906 168.550781 243.179688 185.996094 250.632812 C 192.0625 253.160156 198.257812 254.425781 204.453125 254.425781 C 216.082031 254.425781 227.460938 249.875 236.4375 241.410156 L 261.722656 217.148438 L 236.941406 193.265625 L 212.671875 216.640625 C 207.488281 221.570312 201.796875 219.925781 199.648438 219.042969 C 197.5 218.15625 192.316406 215.125 192.316406 207.921875 L 192.316406 72.460938 C 192.316406 65.257812 197.5 62.351562 199.648438 61.339844 C 200.660156 60.960938 202.429688 60.328125 204.578125 60.328125 C 206.980469 60.328125 209.890625 61.085938 212.671875 63.738281 L 244.78125 94.699219 L 232.140625 106.832031 C 222.910156 115.675781 217.855469 127.554688 217.855469 140.316406 C 217.855469 153.078125 222.910156 164.957031 232.140625 173.804688 L 302.683594 241.660156 C 311.65625 250.253906 322.910156 254.675781 334.664062 254.675781 C 340.859375 254.675781 347.054688 253.414062 353.125 250.886719 C 370.570312 243.429688 381.441406 227.128906 381.441406 208.175781 L 381.441406 131.851562 L 346.800781 164.707031 Z M 282.960938 148.910156 L 269.433594 161.925781 L 255.90625 148.910156 C 253.503906 146.636719 252.238281 143.476562 252.238281 140.191406 C 252.238281 136.90625 253.503906 133.746094 255.90625 131.472656 L 269.433594 118.457031 L 282.960938 131.472656 C 285.363281 133.746094 286.625 136.90625 286.625 140.191406 C 286.625 143.601562 285.363281 146.636719 282.960938 148.910156 Z M 381.1875 72.460938 L 381.1875 115.675781 L 346.800781 115.675781 L 346.800781 72.460938 C 346.800781 65.257812 341.617188 62.351562 339.46875 61.339844 C 338.457031 60.960938 336.6875 60.328125 334.539062 60.328125 C 332.136719 60.328125 329.230469 61.085938 326.449219 63.738281 L 301.921875 87.242188 L 277.269531 63.234375 L 302.554688 38.847656 C 316.207031 25.703125 335.550781 22.164062 352.996094 29.621094 C 370.316406 37.078125 381.1875 53.503906 381.1875 72.460938 Z M 381.1875 72.460938 " fill-opacity="1" fill-rule="nonzero"/><g fill="#ffffff" fill-opacity="1"><g transform="translate(436.971421, 207.605828)"><g><path d="M 54.59375 -40.59375 L 69.59375 -140 L 100.203125 -140 L 100.203125 0 L 79.40625 0 L 79.40625 -100.40625 L 64.203125 0 L 43.40625 0 L 27 -99 L 27 0 L 7.796875 0 L 7.796875 -140 L 38.40625 -140 Z M 54.59375 -40.59375 "/></g></g></g><g fill="#ffffff" fill-opacity="1"><g transform="translate(545.168546, 207.605828)"><g><path d="M 30 -81 L 60.203125 -81 L 60.203125 -61 L 30 -61 L 30 -20 L 68 -20 L 68 0 L 8 0 L 8 -140 L 68 -140 L 68 -120 L 30 -120 Z M 30 -81 "/></g></g></g><g fill="#ffffff" fill-opacity="1"><g transform="translate(618.766557, 207.605828)"><g><path d="M 8 -140 L 42.796875 -140 C 53.867188 -140 62.101562 -137.066406 67.5 -131.203125 C 72.894531 -125.335938 75.59375 -116.738281 75.59375 -105.40625 L 75.59375 -34.59375 C 75.59375 -23.257812 72.894531 -14.660156 67.5 -8.796875 C 62.101562 -2.929688 53.867188 0 42.796875 0 L 8 0 Z M 30 -120 L 30 -20 L 42.40625 -20 C 45.863281 -20 48.59375 -21 50.59375 -23 C 52.59375 -25 53.59375 -28.53125 53.59375 -33.59375 L 53.59375 -106.40625 C 53.59375 -111.46875 52.59375 -115 50.59375 -117 C 48.59375 -119 45.863281 -120 42.40625 -120 Z M 30 -120 "/></g></g></g><g fill="#ffffff" fill-opacity="1"><g transform="translate(700.364354, 207.605828)"><g><path d="M 8 -140 L 30 -140 L 30 0 L 8 0 Z M 8 -140 "/></g></g></g><g fill="#ffffff" fill-opacity="1"><g transform="translate(738.363312, 207.605828)"><g><path d="M 79.203125 0 L 57 0 L 53.203125 -25.40625 L 26.203125 -25.40625 L 22.40625 0 L 2.203125 0 L 24.59375 -140 L 56.796875 -140 Z M 29 -44.40625 L 50.203125 -44.40625 L 39.59375 -115.203125 Z M 29 -44.40625 "/></g></g></g><g fill="#ffffff" fill-opacity="1"><g transform="translate(819.761147, 207.605828)"><g/></g></g><g fill="#ffffff" fill-opacity="1"><g transform="translate(850.760304, 207.605828)"><g><path d="M 79.203125 0 L 57 0 L 53.203125 -25.40625 L 26.203125 -25.40625 L 22.40625 0 L 2.203125 0 L 24.59375 -140 L 56.796875 -140 Z M 29 -44.40625 L 50.203125 -44.40625 L 39.59375 -115.203125 Z M 29 -44.40625 "/></g></g></g><g fill="#ffffff" fill-opacity="1"><g transform="translate(932.158138, 207.605828)"><g><path d="M 71.796875 -52.203125 L 71.796875 -33.59375 C 71.796875 -22.257812 69.03125 -13.5625 63.5 -7.5 C 57.96875 -1.4375 49.800781 1.59375 39 1.59375 C 28.195312 1.59375 20.03125 -1.4375 14.5 -7.5 C 8.96875 -13.5625 6.203125 -22.257812 6.203125 -33.59375 L 6.203125 -106.40625 C 6.203125 -117.738281 8.96875 -126.4375 14.5 -132.5 C 20.03125 -138.5625 28.195312 -141.59375 39 -141.59375 C 49.800781 -141.59375 57.96875 -138.5625 63.5 -132.5 C 69.03125 -126.4375 71.796875 -117.738281 71.796875 -106.40625 L 71.796875 -92.796875 L 51 -92.796875 L 51 -107.796875 C 51 -112.867188 49.960938 -116.4375 47.890625 -118.5 C 45.828125 -120.5625 43.0625 -121.59375 39.59375 -121.59375 C 36.132812 -121.59375 33.367188 -120.5625 31.296875 -118.5 C 29.234375 -116.4375 28.203125 -112.867188 28.203125 -107.796875 L 28.203125 -32.203125 C 28.203125 -27.128906 29.234375 -23.59375 31.296875 -21.59375 C 33.367188 -19.59375 36.132812 -18.59375 39.59375 -18.59375 C 43.0625 -18.59375 45.828125 -19.59375 47.890625 -21.59375 C 49.960938 -23.59375 51 -27.128906 51 -32.203125 L 51 -52.203125 Z M 71.796875 -52.203125 "/></g></g></g><g fill="#ffffff" fill-opacity="1"><g transform="translate(1009.356083, 207.605828)"><g><path d="M 6.203125 -106.40625 C 6.203125 -117.738281 9.066406 -126.4375 14.796875 -132.5 C 20.535156 -138.5625 28.800781 -141.59375 39.59375 -141.59375 C 50.394531 -141.59375 58.660156 -138.5625 64.390625 -132.5 C 70.128906 -126.4375 73 -117.738281 73 -106.40625 L 73 -33.59375 C 73 -25.726562 71.597656 -19.195312 68.796875 -14 C 69.328125 -12.664062 70.023438 -11.832031 70.890625 -11.5 C 71.765625 -11.164062 73.132812 -11 75 -11 L 77 -11 L 77 8.59375 L 74 8.59375 C 69.0625 8.59375 65.023438 7.757812 61.890625 6.09375 C 58.765625 4.425781 56.46875 2.0625 55 -1 C 52.726562 -0.195312 50.328125 0.429688 47.796875 0.890625 C 45.265625 1.359375 42.53125 1.59375 39.59375 1.59375 C 28.800781 1.59375 20.535156 -1.4375 14.796875 -7.5 C 9.066406 -13.5625 6.203125 -22.257812 6.203125 -33.59375 Z M 28.203125 -32.203125 C 28.203125 -27.128906 29.234375 -23.5625 31.296875 -21.5 C 33.367188 -19.4375 36.132812 -18.40625 39.59375 -18.40625 C 43.0625 -18.40625 45.828125 -19.4375 47.890625 -21.5 C 49.960938 -23.5625 51 -27.128906 51 -32.203125 L 51 -107.796875 C 51 -112.867188 49.960938 -116.4375 47.890625 -118.5 C 45.828125 -120.5625 43.0625 -121.59375 39.59375 -121.59375 C 36.132812 -121.59375 33.367188 -120.5625 31.296875 -118.5 C 29.234375 -116.4375 28.203125 -112.867188 28.203125 -107.796875 Z M 28.203125 -32.203125 "/></g></g></g><g fill="#ffffff" fill-opacity="1"><g transform="translate(1088.553997, 207.605828)"><g><path d="M 29 -140 L 29 -32 C 29 -26.9375 30.03125 -23.40625 32.09375 -21.40625 C 34.164062 -19.40625 36.9375 -18.40625 40.40625 -18.40625 C 43.863281 -18.40625 46.625 -19.40625 48.6875 -21.40625 C 50.757812 -23.40625 51.796875 -26.9375 51.796875 -32 L 51.796875 -140 L 72.59375 -140 L 72.59375 -33.40625 C 72.59375 -22.070312 69.828125 -13.367188 64.296875 -7.296875 C 58.765625 -1.234375 50.597656 1.796875 39.796875 1.796875 C 28.992188 1.796875 20.828125 -1.234375 15.296875 -7.296875 C 9.765625 -13.367188 7 -22.070312 7 -33.40625 L 7 -140 Z M 29 -140 "/></g></g></g><g fill="#ffffff" fill-opacity="1"><g transform="translate(1168.151858, 207.605828)"><g><path d="M 8 -140 L 30 -140 L 30 0 L 8 0 Z M 8 -140 "/></g></g></g><g fill="#ffffff" fill-opacity="1"><g transform="translate(1206.150817, 207.605828)"><g><path d="M 5.203125 -106.40625 C 5.203125 -117.738281 7.898438 -126.4375 13.296875 -132.5 C 18.703125 -138.5625 26.800781 -141.59375 37.59375 -141.59375 C 48.394531 -141.59375 56.492188 -138.5625 61.890625 -132.5 C 67.296875 -126.4375 70 -117.738281 70 -106.40625 L 70 -101 L 49.203125 -101 L 49.203125 -107.796875 C 49.203125 -112.867188 48.234375 -116.4375 46.296875 -118.5 C 44.367188 -120.5625 41.671875 -121.59375 38.203125 -121.59375 C 34.734375 -121.59375 32.03125 -120.5625 30.09375 -118.5 C 28.164062 -116.4375 27.203125 -112.867188 27.203125 -107.796875 C 27.203125 -102.992188 28.265625 -98.757812 30.390625 -95.09375 C 32.523438 -91.425781 35.191406 -87.957031 38.390625 -84.6875 C 41.597656 -81.425781 45.035156 -78.160156 48.703125 -74.890625 C 52.367188 -71.628906 55.800781 -68.066406 59 -64.203125 C 62.195312 -60.335938 64.863281 -55.9375 67 -51 C 69.132812 -46.0625 70.203125 -40.257812 70.203125 -33.59375 C 70.203125 -22.257812 67.429688 -13.5625 61.890625 -7.5 C 56.359375 -1.4375 48.195312 1.59375 37.40625 1.59375 C 26.601562 1.59375 18.429688 -1.4375 12.890625 -7.5 C 7.359375 -13.5625 4.59375 -22.257812 4.59375 -33.59375 L 4.59375 -43.203125 L 25.40625 -43.203125 L 25.40625 -32.203125 C 25.40625 -27.128906 26.4375 -23.59375 28.5 -21.59375 C 30.5625 -19.59375 33.328125 -18.59375 36.796875 -18.59375 C 40.265625 -18.59375 43.03125 -19.59375 45.09375 -21.59375 C 47.164062 -23.59375 48.203125 -27.128906 48.203125 -32.203125 C 48.203125 -37.003906 47.132812 -41.238281 45 -44.90625 C 42.863281 -48.570312 40.195312 -52.035156 37 -55.296875 C 33.800781 -58.566406 30.367188 -61.832031 26.703125 -65.09375 C 23.035156 -68.363281 19.597656 -71.929688 16.390625 -75.796875 C 13.191406 -79.660156 10.523438 -84.0625 8.390625 -89 C 6.265625 -93.9375 5.203125 -99.738281 5.203125 -106.40625 Z M 5.203125 -106.40625 "/></g></g></g><g fill="#ffffff" fill-opacity="1"><g transform="translate(1280.948844, 207.605828)"><g><path d="M 2 -140 L 70 -140 L 70 -120 L 47 -120 L 47 0 L 25 0 L 25 -120 L 2 -120 Z M 2 -140 "/></g></g></g><g fill="#ffffff" fill-opacity="1"><g transform="translate(1352.946914, 207.605828)"><g><path d="M 8 -140 L 30 -140 L 30 0 L 8 0 Z M 8 -140 "/></g></g></g><g fill="#ffffff" fill-opacity="1"><g transform="translate(1390.945873, 207.605828)"><g><path d="M 28.203125 -32.203125 C 28.203125 -27.128906 29.234375 -23.5625 31.296875 -21.5 C 33.367188 -19.4375 36.132812 -18.40625 39.59375 -18.40625 C 43.0625 -18.40625 45.828125 -19.4375 47.890625 -21.5 C 49.960938 -23.5625 51 -27.128906 51 -32.203125 L 51 -107.796875 C 51 -112.867188 49.960938 -116.4375 47.890625 -118.5 C 45.828125 -120.5625 43.0625 -121.59375 39.59375 -121.59375 C 36.132812 -121.59375 33.367188 -120.5625 31.296875 -118.5 C 29.234375 -116.4375 28.203125 -112.867188 28.203125 -107.796875 Z M 6.203125 -106.40625 C 6.203125 -117.738281 9.066406 -126.4375 14.796875 -132.5 C 20.535156 -138.5625 28.800781 -141.59375 39.59375 -141.59375 C 50.394531 -141.59375 58.660156 -138.5625 64.390625 -132.5 C 70.128906 -126.4375 73 -117.738281 73 -106.40625 L 73 -33.59375 C 73 -22.257812 70.128906 -13.5625 64.390625 -7.5 C 58.660156 -1.4375 50.394531 1.59375 39.59375 1.59375 C 28.800781 1.59375 20.535156 -1.4375 14.796875 -7.5 C 9.066406 -13.5625 6.203125 -22.257812 6.203125 -33.59375 Z M 6.203125 -106.40625 "/></g></g></g><g fill="#ffffff" fill-opacity="1"><g transform="translate(1470.143741, 207.605828)"><g><path d="M 27.59375 -101.40625 L 27.59375 0 L 7.796875 0 L 7.796875 -140 L 35.40625 -140 L 58 -56.203125 L 58 -140 L 77.59375 -140 L 77.59375 0 L 55 0 Z M 27.59375 -101.40625 "/></g></g></g></svg>