<svg xmlns="http://www.w3.org/2000/svg" xmlns:xlink="http://www.w3.org/1999/xlink" width="2800" zoomAndPan="magnify" viewBox="0 0 2100 284.999983" height="380" preserveAspectRatio="xMidYMid meet" version="1.0"><defs><g/></defs><path fill="#ffffff" d="M 196.097656 215.441406 C 196.097656 222.644531 190.914062 225.550781 188.765625 226.5625 C 186.617188 227.449219 180.925781 229.089844 175.742188 224.160156 L 143.632812 193.203125 L 156.273438 181.070312 C 165.503906 172.226562 170.558594 160.347656 170.558594 147.585938 C 170.558594 134.820312 165.503906 122.945312 156.273438 114.097656 L 85.730469 46.242188 C 72.078125 33.097656 52.738281 29.558594 35.289062 37.015625 C 17.84375 44.472656 6.972656 60.773438 6.972656 79.726562 L 6.972656 215.316406 C 6.972656 234.269531 17.84375 250.570312 35.289062 258.027344 C 41.359375 260.554688 47.554688 261.820312 53.746094 261.820312 C 65.378906 261.820312 76.757812 257.269531 85.730469 248.804688 L 111.015625 224.542969 L 86.238281 200.65625 L 61.964844 224.035156 C 56.78125 228.964844 51.09375 227.320312 48.945312 226.4375 C 46.792969 225.550781 41.613281 222.519531 41.613281 215.316406 L 41.613281 79.851562 C 41.613281 72.652344 46.792969 69.746094 48.945312 68.734375 C 49.957031 68.355469 51.726562 67.722656 53.875 67.722656 C 56.277344 67.722656 59.183594 68.480469 61.964844 71.132812 L 94.074219 102.09375 L 81.433594 114.222656 C 72.207031 123.070312 67.148438 134.949219 67.148438 147.710938 C 67.148438 160.472656 72.207031 172.351562 81.433594 181.199219 L 151.976562 249.054688 C 160.953125 257.648438 172.203125 262.070312 183.960938 262.070312 C 190.15625 262.070312 196.351562 260.808594 202.417969 258.28125 C 219.863281 250.824219 230.734375 234.523438 230.734375 215.570312 L 230.734375 139.246094 L 196.097656 172.101562 Z M 132.253906 156.304688 L 118.726562 169.320312 L 105.199219 156.304688 C 102.796875 154.03125 101.535156 150.871094 101.535156 147.585938 C 101.535156 144.300781 102.796875 141.140625 105.199219 138.867188 L 118.726562 125.851562 L 132.253906 138.867188 C 134.65625 141.140625 135.921875 144.300781 135.921875 147.585938 C 135.921875 150.996094 134.65625 154.03125 132.253906 156.304688 Z M 230.484375 79.851562 L 230.484375 123.070312 L 196.097656 123.070312 L 196.097656 79.851562 C 196.097656 72.652344 190.914062 69.746094 188.765625 68.734375 C 187.753906 68.355469 185.984375 67.722656 183.835938 67.722656 C 181.433594 67.722656 178.523438 68.480469 175.742188 71.132812 L 151.21875 94.636719 L 126.566406 70.628906 L 151.851562 46.242188 C 165.503906 33.097656 184.84375 29.558594 202.292969 37.015625 C 219.609375 44.472656 230.484375 60.898438 230.484375 79.851562 Z M 230.484375 79.851562 " fill-opacity="1" fill-rule="nonzero"/><g fill="#ffffff" fill-opacity="1"><g transform="translate(281.081607, 215.000007)"><g><path d="M 54.59375 -40.59375 L 69.59375 -140 L 100.203125 -140 L 100.203125 0 L 79.40625 0 L 79.40625 -100.40625 L 64.203125 0 L 43.40625 0 L 27 -99 L 27 0 L 7.796875 0 L 7.796875 -140 L 38.40625 -140 Z M 54.59375 -40.59375 "/></g></g></g><g fill="#ffffff" fill-opacity="1"><g transform="translate(389.278732, 215.000007)"><g><path d="M 8 -140 L 30 -140 L 30 0 L 8 0 Z M 8 -140 "/></g></g></g><g fill="#ffffff" fill-opacity="1"><g transform="translate(427.27769, 215.000007)"><g><path d="M 8 -140 L 30 -140 L 30 -20 L 66.203125 -20 L 66.203125 0 L 8 0 Z M 8 -140 "/></g></g></g><g fill="#ffffff" fill-opacity="1"><g transform="translate(495.475842, 215.000007)"><g><path d="M 8 -140 L 30 -140 L 30 0 L 8 0 Z M 8 -140 "/></g></g></g><g fill="#ffffff" fill-opacity="1"><g transform="translate(533.4748, 215.000007)"><g><path d="M 2 -140 L 70 -140 L 70 -120 L 47 -120 L 47 0 L 25 0 L 25 -120 L 2 -120 Z M 2 -140 "/></g></g></g><g fill="#ffffff" fill-opacity="1"><g transform="translate(605.47287, 215.000007)"><g><path d="M 79.203125 0 L 57 0 L 53.203125 -25.40625 L 26.203125 -25.40625 L 22.40625 0 L 2.203125 0 L 24.59375 -140 L 56.796875 -140 Z M 29 -44.40625 L 50.203125 -44.40625 L 39.59375 -115.203125 Z M 29 -44.40625 "/></g></g></g><g fill="#ffffff" fill-opacity="1"><g transform="translate(686.870705, 215.000007)"><g><path d="M 54 0 C 53.726562 -0.9375 53.457031 -1.800781 53.1875 -2.59375 C 52.925781 -3.394531 52.695312 -4.394531 52.5 -5.59375 C 52.300781 -6.800781 52.164062 -8.335938 52.09375 -10.203125 C 52.03125 -12.066406 52 -14.398438 52 -17.203125 L 52 -39.203125 C 52 -45.734375 50.863281 -50.332031 48.59375 -53 C 46.332031 -55.664062 42.664062 -57 37.59375 -57 L 30 -57 L 30 0 L 8 0 L 8 -140 L 41.203125 -140 C 52.671875 -140 60.96875 -137.332031 66.09375 -132 C 71.226562 -126.664062 73.796875 -118.597656 73.796875 -107.796875 L 73.796875 -96.796875 C 73.796875 -82.398438 69 -72.9375 59.40625 -68.40625 C 65 -66.132812 68.828125 -62.429688 70.890625 -57.296875 C 72.960938 -52.160156 74 -45.925781 74 -38.59375 L 74 -17 C 74 -13.53125 74.128906 -10.492188 74.390625 -7.890625 C 74.660156 -5.296875 75.332031 -2.664062 76.40625 0 Z M 30 -120 L 30 -77 L 38.59375 -77 C 42.726562 -77 45.960938 -78.066406 48.296875 -80.203125 C 50.628906 -82.335938 51.796875 -86.203125 51.796875 -91.796875 L 51.796875 -105.59375 C 51.796875 -110.664062 50.894531 -114.332031 49.09375 -116.59375 C 47.300781 -118.863281 44.46875 -120 40.59375 -120 Z M 30 -120 "/></g></g></g><g fill="#ffffff" fill-opacity="1"><g transform="translate(767.268509, 215.000007)"><g><path d="M 28.59375 -46.40625 L 0.796875 -140 L 23.796875 -140 L 40.59375 -76.203125 L 57.40625 -140 L 78.40625 -140 L 50.59375 -46.40625 L 50.59375 0 L 28.59375 0 Z M 28.59375 -46.40625 "/></g></g></g><g fill="#ffffff" fill-opacity="1"><g transform="translate(877.465534, 215.000007)"><g><path d="M 8 -140 L 42.796875 -140 C 53.867188 -140 62.101562 -137.066406 67.5 -131.203125 C 72.894531 -125.335938 75.59375 -116.738281 75.59375 -105.40625 L 75.59375 -34.59375 C 75.59375 -23.257812 72.894531 -14.660156 67.5 -8.796875 C 62.101562 -2.929688 53.867188 0 42.796875 0 L 8 0 Z M 30 -120 L 30 -20 L 42.40625 -20 C 45.863281 -20 48.59375 -21 50.59375 -23 C 52.59375 -25 53.59375 -28.53125 53.59375 -33.59375 L 53.59375 -106.40625 C 53.59375 -111.46875 52.59375 -115 50.59375 -117 C 48.59375 -119 45.863281 -120 42.40625 -120 Z M 30 -120 "/></g></g></g><g fill="#ffffff" fill-opacity="1"><g transform="translate(959.06332, 215.000007)"><g><path d="M 30 -81 L 60.203125 -81 L 60.203125 -61 L 30 -61 L 30 -20 L 68 -20 L 68 0 L 8 0 L 8 -140 L 68 -140 L 68 -120 L 30 -120 Z M 30 -81 "/></g></g></g><g fill="#ffffff" fill-opacity="1"><g transform="translate(1032.661319, 215.000007)"><g><path d="M 40.40625 -140 C 51.46875 -140 59.695312 -137.066406 65.09375 -131.203125 C 70.5 -125.335938 73.203125 -116.738281 73.203125 -105.40625 L 73.203125 -87.203125 C 73.203125 -75.867188 70.5 -67.265625 65.09375 -61.390625 C 59.695312 -55.523438 51.46875 -52.59375 40.40625 -52.59375 L 30 -52.59375 L 30 0 L 8 0 L 8 -140 Z M 30 -120 L 30 -72.59375 L 40.40625 -72.59375 C 43.863281 -72.59375 46.523438 -73.523438 48.390625 -75.390625 C 50.265625 -77.265625 51.203125 -80.734375 51.203125 -85.796875 L 51.203125 -106.796875 C 51.203125 -111.867188 50.265625 -115.335938 48.390625 -117.203125 C 46.523438 -119.066406 43.863281 -120 40.40625 -120 Z M 30 -120 "/></g></g></g><g fill="#ffffff" fill-opacity="1"><g transform="translate(1108.059337, 215.000007)"><g><path d="M 8 -140 L 30 -140 L 30 -20 L 66.203125 -20 L 66.203125 0 L 8 0 Z M 8 -140 "/></g></g></g><g fill="#ffffff" fill-opacity="1"><g transform="translate(1176.257511, 215.000007)"><g><path d="M 28.203125 -32.203125 C 28.203125 -27.128906 29.234375 -23.5625 31.296875 -21.5 C 33.367188 -19.4375 36.132812 -18.40625 39.59375 -18.40625 C 43.0625 -18.40625 45.828125 -19.4375 47.890625 -21.5 C 49.960938 -23.5625 51 -27.128906 51 -32.203125 L 51 -107.796875 C 51 -112.867188 49.960938 -116.4375 47.890625 -118.5 C 45.828125 -120.5625 43.0625 -121.59375 39.59375 -121.59375 C 36.132812 -121.59375 33.367188 -120.5625 31.296875 -118.5 C 29.234375 -116.4375 28.203125 -112.867188 28.203125 -107.796875 Z M 6.203125 -106.40625 C 6.203125 -117.738281 9.066406 -126.4375 14.796875 -132.5 C 20.535156 -138.5625 28.800781 -141.59375 39.59375 -141.59375 C 50.394531 -141.59375 58.660156 -138.5625 64.390625 -132.5 C 70.128906 -126.4375 73 -117.738281 73 -106.40625 L 73 -33.59375 C 73 -22.257812 70.128906 -13.5625 64.390625 -7.5 C 58.660156 -1.4375 50.394531 1.59375 39.59375 1.59375 C 28.800781 1.59375 20.535156 -1.4375 14.796875 -7.5 C 9.066406 -13.5625 6.203125 -22.257812 6.203125 -33.59375 Z M 6.203125 -106.40625 "/></g></g></g><g fill="#ffffff" fill-opacity="1"><g transform="translate(1255.455379, 215.000007)"><g><path d="M 28.59375 -46.40625 L 0.796875 -140 L 23.796875 -140 L 40.59375 -76.203125 L 57.40625 -140 L 78.40625 -140 L 50.59375 -46.40625 L 50.59375 0 L 28.59375 0 Z M 28.59375 -46.40625 "/></g></g></g><g fill="#ffffff" fill-opacity="1"><g transform="translate(1334.653247, 215.000007)"><g><path d="M 54.59375 -40.59375 L 69.59375 -140 L 100.203125 -140 L 100.203125 0 L 79.40625 0 L 79.40625 -100.40625 L 64.203125 0 L 43.40625 0 L 27 -99 L 27 0 L 7.796875 0 L 7.796875 -140 L 38.40625 -140 Z M 54.59375 -40.59375 "/></g></g></g><g fill="#ffffff" fill-opacity="1"><g transform="translate(1442.850349, 215.000007)"><g><path d="M 30 -81 L 60.203125 -81 L 60.203125 -61 L 30 -61 L 30 -20 L 68 -20 L 68 0 L 8 0 L 8 -140 L 68 -140 L 68 -120 L 30 -120 Z M 30 -81 "/></g></g></g><g fill="#ffffff" fill-opacity="1"><g transform="translate(1516.448394, 215.000007)"><g><path d="M 27.59375 -101.40625 L 27.59375 0 L 7.796875 0 L 7.796875 -140 L 35.40625 -140 L 58 -56.203125 L 58 -140 L 77.59375 -140 L 77.59375 0 L 55 0 Z M 27.59375 -101.40625 "/></g></g></g><g fill="#ffffff" fill-opacity="1"><g transform="translate(1601.846121, 215.000007)"><g><path d="M 2 -140 L 70 -140 L 70 -120 L 47 -120 L 47 0 L 25 0 L 25 -120 L 2 -120 Z M 2 -140 "/></g></g></g><g fill="#ffffff" fill-opacity="1"><g transform="translate(1704.843395, 215.000007)"><g><path d="M 40.40625 -140 C 51.46875 -140 59.695312 -137.066406 65.09375 -131.203125 C 70.5 -125.335938 73.203125 -116.738281 73.203125 -105.40625 L 73.203125 -87.203125 C 73.203125 -75.867188 70.5 -67.265625 65.09375 -61.390625 C 59.695312 -55.523438 51.46875 -52.59375 40.40625 -52.59375 L 30 -52.59375 L 30 0 L 8 0 L 8 -140 Z M 30 -120 L 30 -72.59375 L 40.40625 -72.59375 C 43.863281 -72.59375 46.523438 -73.523438 48.390625 -75.390625 C 50.265625 -77.265625 51.203125 -80.734375 51.203125 -85.796875 L 51.203125 -106.796875 C 51.203125 -111.867188 50.265625 -115.335938 48.390625 -117.203125 C 46.523438 -119.066406 43.863281 -120 40.40625 -120 Z M 30 -120 "/></g></g></g><g fill="#ffffff" fill-opacity="1"><g transform="translate(1780.241367, 215.000007)"><g><path d="M 79.203125 0 L 57 0 L 53.203125 -25.40625 L 26.203125 -25.40625 L 22.40625 0 L 2.203125 0 L 24.59375 -140 L 56.796875 -140 Z M 29 -44.40625 L 50.203125 -44.40625 L 39.59375 -115.203125 Z M 29 -44.40625 "/></g></g></g><g fill="#ffffff" fill-opacity="1"><g transform="translate(1861.639247, 215.000007)"><g><path d="M 71.796875 -52.203125 L 71.796875 -33.59375 C 71.796875 -22.257812 69.03125 -13.5625 63.5 -7.5 C 57.96875 -1.4375 49.800781 1.59375 39 1.59375 C 28.195312 1.59375 20.03125 -1.4375 14.5 -7.5 C 8.96875 -13.5625 6.203125 -22.257812 6.203125 -33.59375 L 6.203125 -106.40625 C 6.203125 -117.738281 8.96875 -126.4375 14.5 -132.5 C 20.03125 -138.5625 28.195312 -141.59375 39 -141.59375 C 49.800781 -141.59375 57.96875 -138.5625 63.5 -132.5 C 69.03125 -126.4375 71.796875 -117.738281 71.796875 -106.40625 L 71.796875 -92.796875 L 51 -92.796875 L 51 -107.796875 C 51 -112.867188 49.960938 -116.4375 47.890625 -118.5 C 45.828125 -120.5625 43.0625 -121.59375 39.59375 -121.59375 C 36.132812 -121.59375 33.367188 -120.5625 31.296875 -118.5 C 29.234375 -116.4375 28.203125 -112.867188 28.203125 -107.796875 L 28.203125 -32.203125 C 28.203125 -27.128906 29.234375 -23.59375 31.296875 -21.59375 C 33.367188 -19.59375 36.132812 -18.59375 39.59375 -18.59375 C 43.0625 -18.59375 45.828125 -19.59375 47.890625 -21.59375 C 49.960938 -23.59375 51 -27.128906 51 -32.203125 L 51 -52.203125 Z M 71.796875 -52.203125 "/></g></g></g><g fill="#ffffff" fill-opacity="1"><g transform="translate(1938.837237, 215.000007)"><g><path d="M 36.796875 -55.796875 L 30 -43 L 30 0 L 8 0 L 8 -140 L 30 -140 L 30 -79 L 59.203125 -140 L 80.796875 -140 L 50.203125 -77.59375 L 80.796875 0 L 58.203125 0 Z M 36.796875 -55.796875 "/></g></g></g><g fill="#ffffff" fill-opacity="1"><g transform="translate(2021.634959, 215.000007)"><g><path d="M 5.203125 -106.40625 C 5.203125 -117.738281 7.898438 -126.4375 13.296875 -132.5 C 18.703125 -138.5625 26.800781 -141.59375 37.59375 -141.59375 C 48.394531 -141.59375 56.492188 -138.5625 61.890625 -132.5 C 67.296875 -126.4375 70 -117.738281 70 -106.40625 L 70 -101 L 49.203125 -101 L 49.203125 -107.796875 C 49.203125 -112.867188 48.234375 -116.4375 46.296875 -118.5 C 44.367188 -120.5625 41.671875 -121.59375 38.203125 -121.59375 C 34.734375 -121.59375 32.03125 -120.5625 30.09375 -118.5 C 28.164062 -116.4375 27.203125 -112.867188 27.203125 -107.796875 C 27.203125 -102.992188 28.265625 -98.757812 30.390625 -95.09375 C 32.523438 -91.425781 35.191406 -87.957031 38.390625 -84.6875 C 41.597656 -81.425781 45.035156 -78.160156 48.703125 -74.890625 C 52.367188 -71.628906 55.800781 -68.066406 59 -64.203125 C 62.195312 -60.335938 64.863281 -55.9375 67 -51 C 69.132812 -46.0625 70.203125 -40.257812 70.203125 -33.59375 C 70.203125 -22.257812 67.429688 -13.5625 61.890625 -7.5 C 56.359375 -1.4375 48.195312 1.59375 37.40625 1.59375 C 26.601562 1.59375 18.429688 -1.4375 12.890625 -7.5 C 7.359375 -13.5625 4.59375 -22.257812 4.59375 -33.59375 L 4.59375 -43.203125 L 25.40625 -43.203125 L 25.40625 -32.203125 C 25.40625 -27.128906 26.4375 -23.59375 28.5 -21.59375 C 30.5625 -19.59375 33.328125 -18.59375 36.796875 -18.59375 C 40.265625 -18.59375 43.03125 -19.59375 45.09375 -21.59375 C 47.164062 -23.59375 48.203125 -27.128906 48.203125 -32.203125 C 48.203125 -37.003906 47.132812 -41.238281 45 -44.90625 C 42.863281 -48.570312 40.195312 -52.035156 37 -55.296875 C 33.800781 -58.566406 30.367188 -61.832031 26.703125 -65.09375 C 23.035156 -68.363281 19.597656 -71.929688 16.390625 -75.796875 C 13.191406 -79.660156 10.523438 -84.0625 8.390625 -89 C 6.265625 -93.9375 5.203125 -99.738281 5.203125 -106.40625 Z M 5.203125 -106.40625 "/></g></g></g></svg>