<svg xmlns="http://www.w3.org/2000/svg" xmlns:xlink="http://www.w3.org/1999/xlink" width="2800" zoomAndPan="magnify" viewBox="0 0 2100 284.999983" height="380" preserveAspectRatio="xMidYMid meet" version="1.0"><defs><g/></defs><path fill="#ffffff" d="M 314.421875 208.046875 C 314.421875 215.25 309.238281 218.15625 307.089844 219.167969 C 304.9375 220.054688 299.25 221.695312 294.066406 216.769531 L 261.957031 185.808594 L 274.597656 173.675781 C 283.828125 164.832031 288.882812 152.953125 288.882812 140.191406 C 288.882812 127.429688 283.828125 115.550781 274.597656 106.703125 L 204.054688 38.847656 C 190.402344 25.703125 171.058594 22.164062 153.613281 29.621094 C 136.167969 37.078125 125.296875 53.378906 125.296875 72.332031 L 125.296875 207.921875 C 125.296875 226.878906 136.167969 243.179688 153.613281 250.632812 C 159.683594 253.160156 165.875 254.425781 172.070312 254.425781 C 183.703125 254.425781 195.078125 249.875 204.054688 241.410156 L 229.339844 217.148438 L 204.5625 193.265625 L 180.289062 216.640625 C 175.105469 221.570312 169.417969 219.925781 167.265625 219.042969 C 165.117188 218.15625 159.933594 215.125 159.933594 207.921875 L 159.933594 72.460938 C 159.933594 65.257812 165.117188 62.351562 167.265625 61.339844 C 168.277344 60.960938 170.046875 60.328125 172.199219 60.328125 C 174.601562 60.328125 177.507812 61.085938 180.289062 63.738281 L 212.398438 94.699219 L 199.757812 106.832031 C 190.527344 115.675781 185.472656 127.554688 185.472656 140.316406 C 185.472656 153.078125 190.527344 164.957031 199.757812 173.804688 L 270.300781 241.660156 C 279.277344 250.253906 290.527344 254.675781 302.285156 254.675781 C 308.480469 254.675781 314.671875 253.414062 320.742188 250.886719 C 338.1875 243.429688 349.058594 227.128906 349.058594 208.175781 L 349.058594 131.851562 L 314.421875 164.707031 Z M 250.578125 148.910156 L 237.050781 161.925781 L 223.523438 148.910156 C 221.121094 146.636719 219.859375 143.476562 219.859375 140.191406 C 219.859375 136.90625 221.121094 133.746094 223.523438 131.472656 L 237.050781 118.457031 L 250.578125 131.472656 C 252.980469 133.746094 254.246094 136.90625 254.246094 140.191406 C 254.246094 143.601562 252.980469 146.636719 250.578125 148.910156 Z M 348.804688 72.460938 L 348.804688 115.675781 L 314.421875 115.675781 L 314.421875 72.460938 C 314.421875 65.257812 309.238281 62.351562 307.089844 61.339844 C 306.078125 60.960938 304.304688 60.328125 302.15625 60.328125 C 299.753906 60.328125 296.847656 61.085938 294.066406 63.738281 L 269.542969 87.242188 L 244.890625 63.234375 L 270.171875 38.847656 C 283.828125 25.703125 303.167969 22.164062 320.613281 29.621094 C 337.933594 37.078125 348.804688 53.503906 348.804688 72.460938 Z M 348.804688 72.460938 " fill-opacity="1" fill-rule="nonzero"/><g fill="#ffffff" fill-opacity="1"><g transform="translate(401.176135, 207.605828)"><g><path d="M 54 0 C 53.726562 -0.9375 53.457031 -1.800781 53.1875 -2.59375 C 52.925781 -3.394531 52.695312 -4.394531 52.5 -5.59375 C 52.300781 -6.800781 52.164062 -8.335938 52.09375 -10.203125 C 52.03125 -12.066406 52 -14.398438 52 -17.203125 L 52 -39.203125 C 52 -45.734375 50.863281 -50.332031 48.59375 -53 C 46.332031 -55.664062 42.664062 -57 37.59375 -57 L 30 -57 L 30 0 L 8 0 L 8 -140 L 41.203125 -140 C 52.671875 -140 60.96875 -137.332031 66.09375 -132 C 71.226562 -126.664062 73.796875 -118.597656 73.796875 -107.796875 L 73.796875 -96.796875 C 73.796875 -82.398438 69 -72.9375 59.40625 -68.40625 C 65 -66.132812 68.828125 -62.429688 70.890625 -57.296875 C 72.960938 -52.160156 74 -45.925781 74 -38.59375 L 74 -17 C 74 -13.53125 74.128906 -10.492188 74.390625 -7.890625 C 74.660156 -5.296875 75.332031 -2.664062 76.40625 0 Z M 30 -120 L 30 -77 L 38.59375 -77 C 42.726562 -77 45.960938 -78.066406 48.296875 -80.203125 C 50.628906 -82.335938 51.796875 -86.203125 51.796875 -91.796875 L 51.796875 -105.59375 C 51.796875 -110.664062 50.894531 -114.332031 49.09375 -116.59375 C 47.300781 -118.863281 44.46875 -120 40.59375 -120 Z M 30 -120 "/></g></g></g><g fill="#ffffff" fill-opacity="1"><g transform="translate(481.573962, 207.605828)"><g><path d="M 79.203125 0 L 57 0 L 53.203125 -25.40625 L 26.203125 -25.40625 L 22.40625 0 L 2.203125 0 L 24.59375 -140 L 56.796875 -140 Z M 29 -44.40625 L 50.203125 -44.40625 L 39.59375 -115.203125 Z M 29 -44.40625 "/></g></g></g><g fill="#ffffff" fill-opacity="1"><g transform="translate(562.971784, 207.605828)"><g><path d="M 40.40625 -140 C 51.46875 -140 59.695312 -137.066406 65.09375 -131.203125 C 70.5 -125.335938 73.203125 -116.738281 73.203125 -105.40625 L 73.203125 -87.203125 C 73.203125 -75.867188 70.5 -67.265625 65.09375 -61.390625 C 59.695312 -55.523438 51.46875 -52.59375 40.40625 -52.59375 L 30 -52.59375 L 30 0 L 8 0 L 8 -140 Z M 30 -120 L 30 -72.59375 L 40.40625 -72.59375 C 43.863281 -72.59375 46.523438 -73.523438 48.390625 -75.390625 C 50.265625 -77.265625 51.203125 -80.734375 51.203125 -85.796875 L 51.203125 -106.796875 C 51.203125 -111.867188 50.265625 -115.335938 48.390625 -117.203125 C 46.523438 -119.066406 43.863281 -120 40.40625 -120 Z M 30 -120 "/></g></g></g><g fill="#ffffff" fill-opacity="1"><g transform="translate(638.369768, 207.605828)"><g><path d="M 8 -140 L 30 -140 L 30 0 L 8 0 Z M 8 -140 "/></g></g></g><g fill="#ffffff" fill-opacity="1"><g transform="translate(676.368726, 207.605828)"><g><path d="M 8 -140 L 42.796875 -140 C 53.867188 -140 62.101562 -137.066406 67.5 -131.203125 C 72.894531 -125.335938 75.59375 -116.738281 75.59375 -105.40625 L 75.59375 -34.59375 C 75.59375 -23.257812 72.894531 -14.660156 67.5 -8.796875 C 62.101562 -2.929688 53.867188 0 42.796875 0 L 8 0 Z M 30 -120 L 30 -20 L 42.40625 -20 C 45.863281 -20 48.59375 -21 50.59375 -23 C 52.59375 -25 53.59375 -28.53125 53.59375 -33.59375 L 53.59375 -106.40625 C 53.59375 -111.46875 52.59375 -115 50.59375 -117 C 48.59375 -119 45.863281 -120 42.40625 -120 Z M 30 -120 "/></g></g></g><g fill="#ffffff" fill-opacity="1"><g transform="translate(757.966535, 207.605828)"><g/></g></g><g fill="#ffffff" fill-opacity="1"><g transform="translate(788.965692, 207.605828)"><g><path d="M 8 -140 L 42.796875 -140 C 53.867188 -140 62.101562 -137.066406 67.5 -131.203125 C 72.894531 -125.335938 75.59375 -116.738281 75.59375 -105.40625 L 75.59375 -34.59375 C 75.59375 -23.257812 72.894531 -14.660156 67.5 -8.796875 C 62.101562 -2.929688 53.867188 0 42.796875 0 L 8 0 Z M 30 -120 L 30 -20 L 42.40625 -20 C 45.863281 -20 48.59375 -21 50.59375 -23 C 52.59375 -25 53.59375 -28.53125 53.59375 -33.59375 L 53.59375 -106.40625 C 53.59375 -111.46875 52.59375 -115 50.59375 -117 C 48.59375 -119 45.863281 -120 42.40625 -120 Z M 30 -120 "/></g></g></g><g fill="#ffffff" fill-opacity="1"><g transform="translate(870.563477, 207.605828)"><g><path d="M 30 -81 L 60.203125 -81 L 60.203125 -61 L 30 -61 L 30 -20 L 68 -20 L 68 0 L 8 0 L 8 -140 L 68 -140 L 68 -120 L 30 -120 Z M 30 -81 "/></g></g></g><g fill="#ffffff" fill-opacity="1"><g transform="translate(944.161477, 207.605828)"><g><path d="M 40.40625 -140 C 51.46875 -140 59.695312 -137.066406 65.09375 -131.203125 C 70.5 -125.335938 73.203125 -116.738281 73.203125 -105.40625 L 73.203125 -87.203125 C 73.203125 -75.867188 70.5 -67.265625 65.09375 -61.390625 C 59.695312 -55.523438 51.46875 -52.59375 40.40625 -52.59375 L 30 -52.59375 L 30 0 L 8 0 L 8 -140 Z M 30 -120 L 30 -72.59375 L 40.40625 -72.59375 C 43.863281 -72.59375 46.523438 -73.523438 48.390625 -75.390625 C 50.265625 -77.265625 51.203125 -80.734375 51.203125 -85.796875 L 51.203125 -106.796875 C 51.203125 -111.867188 50.265625 -115.335938 48.390625 -117.203125 C 46.523438 -119.066406 43.863281 -120 40.40625 -120 Z M 30 -120 "/></g></g></g><g fill="#ffffff" fill-opacity="1"><g transform="translate(1019.559449, 207.605828)"><g><path d="M 8 -140 L 30 -140 L 30 -20 L 66.203125 -20 L 66.203125 0 L 8 0 Z M 8 -140 "/></g></g></g><g fill="#ffffff" fill-opacity="1"><g transform="translate(1087.757623, 207.605828)"><g><path d="M 28.203125 -32.203125 C 28.203125 -27.128906 29.234375 -23.5625 31.296875 -21.5 C 33.367188 -19.4375 36.132812 -18.40625 39.59375 -18.40625 C 43.0625 -18.40625 45.828125 -19.4375 47.890625 -21.5 C 49.960938 -23.5625 51 -27.128906 51 -32.203125 L 51 -107.796875 C 51 -112.867188 49.960938 -116.4375 47.890625 -118.5 C 45.828125 -120.5625 43.0625 -121.59375 39.59375 -121.59375 C 36.132812 -121.59375 33.367188 -120.5625 31.296875 -118.5 C 29.234375 -116.4375 28.203125 -112.867188 28.203125 -107.796875 Z M 6.203125 -106.40625 C 6.203125 -117.738281 9.066406 -126.4375 14.796875 -132.5 C 20.535156 -138.5625 28.800781 -141.59375 39.59375 -141.59375 C 50.394531 -141.59375 58.660156 -138.5625 64.390625 -132.5 C 70.128906 -126.4375 73 -117.738281 73 -106.40625 L 73 -33.59375 C 73 -22.257812 70.128906 -13.5625 64.390625 -7.5 C 58.660156 -1.4375 50.394531 1.59375 39.59375 1.59375 C 28.800781 1.59375 20.535156 -1.4375 14.796875 -7.5 C 9.066406 -13.5625 6.203125 -22.257812 6.203125 -33.59375 Z M 6.203125 -106.40625 "/></g></g></g><g fill="#ffffff" fill-opacity="1"><g transform="translate(1166.955537, 207.605828)"><g><path d="M 28.59375 -46.40625 L 0.796875 -140 L 23.796875 -140 L 40.59375 -76.203125 L 57.40625 -140 L 78.40625 -140 L 50.59375 -46.40625 L 50.59375 0 L 28.59375 0 Z M 28.59375 -46.40625 "/></g></g></g><g fill="#ffffff" fill-opacity="1"><g transform="translate(1246.153405, 207.605828)"><g><path d="M 54.59375 -40.59375 L 69.59375 -140 L 100.203125 -140 L 100.203125 0 L 79.40625 0 L 79.40625 -100.40625 L 64.203125 0 L 43.40625 0 L 27 -99 L 27 0 L 7.796875 0 L 7.796875 -140 L 38.40625 -140 Z M 54.59375 -40.59375 "/></g></g></g><g fill="#ffffff" fill-opacity="1"><g transform="translate(1354.350507, 207.605828)"><g><path d="M 30 -81 L 60.203125 -81 L 60.203125 -61 L 30 -61 L 30 -20 L 68 -20 L 68 0 L 8 0 L 8 -140 L 68 -140 L 68 -120 L 30 -120 Z M 30 -81 "/></g></g></g><g fill="#ffffff" fill-opacity="1"><g transform="translate(1427.948552, 207.605828)"><g><path d="M 27.59375 -101.40625 L 27.59375 0 L 7.796875 0 L 7.796875 -140 L 35.40625 -140 L 58 -56.203125 L 58 -140 L 77.59375 -140 L 77.59375 0 L 55 0 Z M 27.59375 -101.40625 "/></g></g></g><g fill="#ffffff" fill-opacity="1"><g transform="translate(1513.346279, 207.605828)"><g><path d="M 2 -140 L 70 -140 L 70 -120 L 47 -120 L 47 0 L 25 0 L 25 -120 L 2 -120 Z M 2 -140 "/></g></g></g><g fill="#ffffff" fill-opacity="1"><g transform="translate(1585.344349, 207.605828)"><g/></g></g><g fill="#ffffff" fill-opacity="1"><g transform="translate(1616.343552, 207.605828)"><g><path d="M 40.40625 -140 C 51.46875 -140 59.695312 -137.066406 65.09375 -131.203125 C 70.5 -125.335938 73.203125 -116.738281 73.203125 -105.40625 L 73.203125 -87.203125 C 73.203125 -75.867188 70.5 -67.265625 65.09375 -61.390625 C 59.695312 -55.523438 51.46875 -52.59375 40.40625 -52.59375 L 30 -52.59375 L 30 0 L 8 0 L 8 -140 Z M 30 -120 L 30 -72.59375 L 40.40625 -72.59375 C 43.863281 -72.59375 46.523438 -73.523438 48.390625 -75.390625 C 50.265625 -77.265625 51.203125 -80.734375 51.203125 -85.796875 L 51.203125 -106.796875 C 51.203125 -111.867188 50.265625 -115.335938 48.390625 -117.203125 C 46.523438 -119.066406 43.863281 -120 40.40625 -120 Z M 30 -120 "/></g></g></g><g fill="#ffffff" fill-opacity="1"><g transform="translate(1691.741525, 207.605828)"><g><path d="M 79.203125 0 L 57 0 L 53.203125 -25.40625 L 26.203125 -25.40625 L 22.40625 0 L 2.203125 0 L 24.59375 -140 L 56.796875 -140 Z M 29 -44.40625 L 50.203125 -44.40625 L 39.59375 -115.203125 Z M 29 -44.40625 "/></g></g></g><g fill="#ffffff" fill-opacity="1"><g transform="translate(1773.139313, 207.605828)"><g><path d="M 71.796875 -52.203125 L 71.796875 -33.59375 C 71.796875 -22.257812 69.03125 -13.5625 63.5 -7.5 C 57.96875 -1.4375 49.800781 1.59375 39 1.59375 C 28.195312 1.59375 20.03125 -1.4375 14.5 -7.5 C 8.96875 -13.5625 6.203125 -22.257812 6.203125 -33.59375 L 6.203125 -106.40625 C 6.203125 -117.738281 8.96875 -126.4375 14.5 -132.5 C 20.03125 -138.5625 28.195312 -141.59375 39 -141.59375 C 49.800781 -141.59375 57.96875 -138.5625 63.5 -132.5 C 69.03125 -126.4375 71.796875 -117.738281 71.796875 -106.40625 L 71.796875 -92.796875 L 51 -92.796875 L 51 -107.796875 C 51 -112.867188 49.960938 -116.4375 47.890625 -118.5 C 45.828125 -120.5625 43.0625 -121.59375 39.59375 -121.59375 C 36.132812 -121.59375 33.367188 -120.5625 31.296875 -118.5 C 29.234375 -116.4375 28.203125 -112.867188 28.203125 -107.796875 L 28.203125 -32.203125 C 28.203125 -27.128906 29.234375 -23.59375 31.296875 -21.59375 C 33.367188 -19.59375 36.132812 -18.59375 39.59375 -18.59375 C 43.0625 -18.59375 45.828125 -19.59375 47.890625 -21.59375 C 49.960938 -23.59375 51 -27.128906 51 -32.203125 L 51 -52.203125 Z M 71.796875 -52.203125 "/></g></g></g><g fill="#ffffff" fill-opacity="1"><g transform="translate(1850.337304, 207.605828)"><g><path d="M 36.796875 -55.796875 L 30 -43 L 30 0 L 8 0 L 8 -140 L 30 -140 L 30 -79 L 59.203125 -140 L 80.796875 -140 L 50.203125 -77.59375 L 80.796875 0 L 58.203125 0 Z M 36.796875 -55.796875 "/></g></g></g><g fill="#ffffff" fill-opacity="1"><g transform="translate(1933.135116, 207.605828)"><g><path d="M 5.203125 -106.40625 C 5.203125 -117.738281 7.898438 -126.4375 13.296875 -132.5 C 18.703125 -138.5625 26.800781 -141.59375 37.59375 -141.59375 C 48.394531 -141.59375 56.492188 -138.5625 61.890625 -132.5 C 67.296875 -126.4375 70 -117.738281 70 -106.40625 L 70 -101 L 49.203125 -101 L 49.203125 -107.796875 C 49.203125 -112.867188 48.234375 -116.4375 46.296875 -118.5 C 44.367188 -120.5625 41.671875 -121.59375 38.203125 -121.59375 C 34.734375 -121.59375 32.03125 -120.5625 30.09375 -118.5 C 28.164062 -116.4375 27.203125 -112.867188 27.203125 -107.796875 C 27.203125 -102.992188 28.265625 -98.757812 30.390625 -95.09375 C 32.523438 -91.425781 35.191406 -87.957031 38.390625 -84.6875 C 41.597656 -81.425781 45.035156 -78.160156 48.703125 -74.890625 C 52.367188 -71.628906 55.800781 -68.066406 59 -64.203125 C 62.195312 -60.335938 64.863281 -55.9375 67 -51 C 69.132812 -46.0625 70.203125 -40.257812 70.203125 -33.59375 C 70.203125 -22.257812 67.429688 -13.5625 61.890625 -7.5 C 56.359375 -1.4375 48.195312 1.59375 37.40625 1.59375 C 26.601562 1.59375 18.429688 -1.4375 12.890625 -7.5 C 7.359375 -13.5625 4.59375 -22.257812 4.59375 -33.59375 L 4.59375 -43.203125 L 25.40625 -43.203125 L 25.40625 -32.203125 C 25.40625 -27.128906 26.4375 -23.59375 28.5 -21.59375 C 30.5625 -19.59375 33.328125 -18.59375 36.796875 -18.59375 C 40.265625 -18.59375 43.03125 -19.59375 45.09375 -21.59375 C 47.164062 -23.59375 48.203125 -27.128906 48.203125 -32.203125 C 48.203125 -37.003906 47.132812 -41.238281 45 -44.90625 C 42.863281 -48.570312 40.195312 -52.035156 37 -55.296875 C 33.800781 -58.566406 30.367188 -61.832031 26.703125 -65.09375 C 23.035156 -68.363281 19.597656 -71.929688 16.390625 -75.796875 C 13.191406 -79.660156 10.523438 -84.0625 8.390625 -89 C 6.265625 -93.9375 5.203125 -99.738281 5.203125 -106.40625 Z M 5.203125 -106.40625 "/></g></g></g></svg>