<?xml version="1.0" encoding="utf-8"?>
<!-- Generator: Adobe Illustrator 26.0.3, SVG Export Plug-In . SVG Version: 6.00 Build 0)  -->
<svg version="1.1" id="Layer_1" xmlns="http://www.w3.org/2000/svg" xmlns:xlink="http://www.w3.org/1999/xlink" x="0px" y="0px"
	 viewBox="0 0 841.9 595.3" style="enable-background:new 0 0 841.9 595.3;" xml:space="preserve">
<style type="text/css">
	.st0{fill:#FFFFFF;}
</style>
<path class="st0" d="M427.4,293.5c1.1,1.1,1.8,2.6,1.8,4.1c0,1.6-0.6,3-1.8,4.1l-6.4,6.2l-6.4-6.2v0c-1.1-1.1-1.8-2.6-1.8-4.1
	c0-1.6,0.6-3,1.8-4.1l6.4-6.2L427.4,293.5z M511.4,260.5v74.3c0,29.4-23.9,53.3-53.3,53.3h-74.3c-29.4,0-53.3-23.9-53.3-53.3v-74.3
	c0-29.4,23.9-53.3,53.3-53.3h74.3C487.6,207.1,511.4,231,511.4,260.5z M474.1,293.6l-16.4,15.7v20.6c0,3.4-2.4,4.8-3.5,5.3
	c-1,0.4-3.8,1.2-6.2-1.1l-15.3-14.7l6-5.8c4.4-4.2,6.8-9.9,6.8-15.9c0-6.1-2.4-11.7-6.8-15.9l-33.5-32.3c-6.5-6.2-15.7-7.9-24-4.4
	c-8.3,3.5-13.4,11.3-13.4,20.3v64.5c0,9,5.1,16.8,13.4,20.3c2.9,1.2,5.8,1.8,8.8,1.8c5.5,0,10.9-2.1,15.2-6.2l12-11.5l-11.8-11.3
	L393.8,334c-2.5,2.4-5.2,1.6-6.2,1.1c-1-0.4-3.5-1.9-3.5-5.3v-64.5c0-3.4,2.4-4.8,3.5-5.3c0.5-0.2,1.3-0.5,2.4-0.5
	c1.2,0,2.5,0.4,3.9,1.6l15.3,14.7l-6,5.8c-4.4,4.2-6.8,9.9-6.8,15.9c0,6.1,2.4,11.7,6.8,15.9l33.5,32.3c4.2,4.1,9.6,6.2,15.2,6.2
	c2.9,0,5.9-0.6,8.8-1.8c8.3-3.5,13.4-11.3,13.4-20.3V293.6z M474.1,265.4c0-9-5.1-16.8-13.4-20.3c-8.3-3.5-17.5-1.8-24,4.4l-12,11.6
	l11.7,11.4l11.7-11.2c1.3-1.3,2.7-1.6,3.9-1.6c1,0,1.9,0.3,2.4,0.5c1,0.4,3.5,1.9,3.5,5.3v20.6h16.4V265.4z"/>
</svg>
