<?xml version="1.0" encoding="utf-8"?>
<!-- Generator: Adobe Illustrator 26.0.3, SVG Export Plug-In . SVG Version: 6.00 Build 0)  -->
<svg version="1.1" id="Layer_1" xmlns="http://www.w3.org/2000/svg" xmlns:xlink="http://www.w3.org/1999/xlink" x="0px" y="0px"
	 viewBox="0 0 841.9 595.3" style="enable-background:new 0 0 841.9 595.3;" xml:space="preserve">
<style type="text/css">
	.st0{fill:#414042;}
	.st1{fill:#424143;}
	.st2{fill:url(#SVGID_1_);}
	.st3{fill:#FFFFFF;}
	.st4{fill:none;stroke:#414042;stroke-width:0.5823;stroke-miterlimit:10;}
</style>
<g>
	<g>
		<g>
			<path class="st0" d="M431.7,404.6h2.2c1.1,0,1.9,0.1,2.5,0.5c0.6,0.4,1,1,1,1.9c0,0.8-0.4,1.5-1,1.9c-0.6,0.4-1.5,0.5-2.6,0.5
				h-1.4v3.5h-0.7V404.6z M433.8,408.9c1.2,0,1.7-0.2,2.1-0.4c0.4-0.3,0.7-0.8,0.7-1.4c0-0.7-0.3-1.1-0.7-1.4
				c-0.5-0.3-1.1-0.4-2.1-0.4h-1.4v3.6H433.8z"/>
			<path class="st0" d="M439.4,404.6h2.3c1,0,1.7,0.1,2.3,0.5c0.6,0.4,1,1,1,1.8c0,0.8-0.3,1.4-0.9,1.8c-0.4,0.3-0.8,0.4-1.4,0.5
				l2.8,3.8h-0.9l-2.7-3.8h-1.8v3.8h-0.7V404.6z M441.8,408.6c0.9,0,1.4-0.2,1.8-0.5c0.4-0.3,0.5-0.7,0.5-1.2c0-0.6-0.3-1-0.7-1.3
				c-0.5-0.3-1-0.4-2-0.4h-1.5v3.4H441.8z"/>
			<path class="st0" d="M451.1,404.4c2.4,0,4.2,1.9,4.2,4.3c0,2.4-1.8,4.3-4.2,4.3s-4.2-1.9-4.2-4.3
				C446.8,406.4,448.6,404.4,451.1,404.4z M451.1,412.5c2,0,3.5-1.6,3.5-3.7c0-2-1.5-3.7-3.5-3.7s-3.5,1.6-3.5,3.7
				C447.5,410.8,449,412.5,451.1,412.5z"/>
			<path class="st0" d="M457.6,404.6h4.8v0.7h-4.1v3.2h3.6v0.7h-3.6v3.9h-0.7V404.6z"/>
			<path class="st0" d="M464.5,404.6h4.7v0.7h-4v3.1h3.5v0.7h-3.5v3.4h4.1v0.7h-4.8V404.6z"/>
			<path class="st0" d="M471.2,411.6c0.7,0.6,1.7,0.9,2.5,0.9c1.1,0,2-0.5,2-1.6c0-1.2-1.1-1.5-2.2-1.8c-1.2-0.3-2.4-0.8-2.4-2.3
				c0-1.4,1-2.3,2.6-2.3c0.8,0,1.7,0.2,2.4,0.7v0.8c-0.7-0.5-1.6-0.8-2.4-0.8c-1.1,0-1.9,0.5-1.9,1.5c0,1.2,1.1,1.4,2.1,1.7
				c1.2,0.3,2.5,0.8,2.5,2.4c0,1.5-1.1,2.3-2.7,2.3c-0.8,0-1.8-0.2-2.5-0.7V411.6z"/>
			<path class="st0" d="M478.2,411.6c0.7,0.6,1.7,0.9,2.5,0.9c1.1,0,2-0.5,2-1.6c0-1.2-1.1-1.5-2.2-1.8c-1.2-0.3-2.4-0.8-2.4-2.3
				c0-1.4,1-2.3,2.6-2.3c0.8,0,1.7,0.2,2.4,0.7v0.8c-0.7-0.5-1.6-0.8-2.4-0.8c-1.1,0-1.9,0.5-1.9,1.5c0,1.2,1.1,1.4,2.1,1.7
				c1.2,0.3,2.5,0.8,2.5,2.4c0,1.5-1.1,2.3-2.7,2.3c-0.8,0-1.8-0.2-2.5-0.7V411.6z"/>
			<path class="st0" d="M485.6,404.6h0.7v8.4h-0.7V404.6z"/>
			<path class="st0" d="M492.9,404.4c2.4,0,4.2,1.9,4.2,4.3c0,2.4-1.8,4.3-4.2,4.3s-4.2-1.9-4.2-4.3
				C488.6,406.4,490.4,404.4,492.9,404.4z M492.9,412.5c2,0,3.5-1.6,3.5-3.7c0-2-1.5-3.7-3.5-3.7s-3.5,1.6-3.5,3.7
				C489.3,410.8,490.8,412.5,492.9,412.5z"/>
			<path class="st0" d="M499.4,413v-8.4h0.7l3.9,5.1c0.6,0.7,1,1.4,1.6,2.1l0,0c0-0.8,0-1.7,0-2.5v-4.7h0.7v8.4h-0.7l-3.9-5.1
				c-0.6-0.7-1-1.4-1.6-2.1l0,0c0,0.8,0,1.7,0,2.5v4.7H499.4z"/>
			<path class="st0" d="M511.6,404.6h0.7l3.5,8.4H515l-1-2.5h-4.1l-1,2.5h-0.7L511.6,404.6z M512.9,407.7c-0.3-0.8-0.6-1.5-0.9-2.3
				h0c-0.3,0.7-0.6,1.5-0.9,2.3l-0.9,2.1h3.6L512.9,407.7z"/>
			<path class="st0" d="M517.6,404.6h0.7v7.8h4.2v0.7h-4.9V404.6z"/>
			<path class="st0" d="M528,411.6c0.7,0.6,1.7,0.9,2.5,0.9c1.1,0,2-0.5,2-1.6c0-1.2-1.1-1.5-2.2-1.8c-1.2-0.3-2.4-0.8-2.4-2.3
				c0-1.4,1-2.3,2.6-2.3c0.8,0,1.7,0.2,2.4,0.7v0.8c-0.7-0.5-1.6-0.8-2.4-0.8c-1.1,0-1.9,0.5-1.9,1.5c0,1.2,1.1,1.4,2.1,1.7
				c1.2,0.3,2.5,0.8,2.5,2.4c0,1.5-1.1,2.3-2.7,2.3c-0.8,0-1.8-0.2-2.5-0.7V411.6z"/>
			<path class="st0" d="M535.4,404.6h4.7v0.7h-4v3.1h3.5v0.7h-3.5v3.4h4.1v0.7h-4.8V404.6z"/>
			<path class="st0" d="M542.2,404.6h2.3c1,0,1.7,0.1,2.3,0.5c0.6,0.4,1,1,1,1.8c0,0.8-0.3,1.4-0.9,1.8c-0.4,0.3-0.8,0.4-1.4,0.5
				l2.8,3.8h-0.9l-2.7-3.8h-1.8v3.8h-0.7V404.6z M544.7,408.6c0.9,0,1.4-0.2,1.8-0.5c0.4-0.3,0.5-0.7,0.5-1.2c0-0.6-0.3-1-0.7-1.3
				c-0.5-0.3-1-0.4-2-0.4h-1.5v3.4H544.7z"/>
			<path class="st0" d="M555.8,404.6h0.7l-3.3,8.4h-0.7l-3.3-8.4h0.8l1.8,4.7c0.3,0.9,0.7,1.8,1,2.7h0c0.3-0.9,0.7-1.9,1-2.8
				L555.8,404.6z"/>
			<path class="st0" d="M558.4,404.6h0.7v8.4h-0.7V404.6z"/>
			<path class="st0" d="M568.2,412.5c-0.7,0.4-1.5,0.6-2.4,0.6c-2.6,0-4.4-1.9-4.4-4.3c0-2.4,1.7-4.4,4.4-4.4c0.8,0,1.6,0.2,2.3,0.5
				v0.8c-0.6-0.4-1.4-0.7-2.3-0.7c-2.2,0-3.7,1.6-3.7,3.7s1.5,3.7,3.7,3.7c0.9,0,1.7-0.3,2.4-0.7V412.5z"/>
			<path class="st0" d="M570.3,404.6h4.7v0.7h-4v3.1h3.5v0.7H571v3.4h4.1v0.7h-4.8V404.6z"/>
			<path class="st0" d="M577,411.6c0.7,0.6,1.7,0.9,2.5,0.9c1.1,0,2-0.5,2-1.6c0-1.2-1.1-1.5-2.2-1.8c-1.2-0.3-2.4-0.8-2.4-2.3
				c0-1.4,1-2.3,2.6-2.3c0.8,0,1.7,0.2,2.4,0.7v0.8c-0.7-0.5-1.6-0.8-2.4-0.8c-1.1,0-1.9,0.5-1.9,1.5c0,1.2,1.1,1.4,2.1,1.7
				c1.2,0.3,2.5,0.8,2.5,2.4c0,1.5-1.1,2.3-2.7,2.3c-0.8,0-1.8-0.2-2.5-0.7V411.6z"/>
		</g>
	</g>
	<g>
		<path class="st0" d="M438,391.8c-0.7,0.4-1.5,0.6-2.4,0.6c-2.6,0-4.4-1.9-4.4-4.3c0-2.4,1.7-4.4,4.4-4.4c0.8,0,1.6,0.2,2.3,0.5
			v0.8c-0.6-0.4-1.4-0.7-2.3-0.7c-2.2,0-3.7,1.6-3.7,3.7s1.5,3.7,3.7,3.7c0.9,0,1.7-0.3,2.4-0.7V391.8z"/>
		<path class="st0" d="M443,383.8h0.7l3.5,8.4h-0.8l-1-2.5h-4.1l-1,2.5h-0.7L443,383.8z M444.3,387c-0.3-0.8-0.6-1.5-0.9-2.3h0
			c-0.3,0.7-0.6,1.5-0.9,2.3l-0.9,2.1h3.6L444.3,387z"/>
		<path class="st0" d="M448.9,390.9c0.7,0.6,1.7,0.9,2.5,0.9c1.1,0,2-0.5,2-1.6c0-1.2-1.1-1.5-2.2-1.8c-1.2-0.3-2.4-0.8-2.4-2.3
			c0-1.4,1-2.3,2.6-2.3c0.8,0,1.7,0.2,2.4,0.7v0.8c-0.7-0.5-1.6-0.8-2.4-0.8c-1.1,0-1.9,0.5-1.9,1.5c0,1.2,1.1,1.4,2.1,1.7
			c1.2,0.3,2.5,0.8,2.5,2.4c0,1.5-1.1,2.3-2.7,2.3c-0.8,0-1.8-0.2-2.5-0.7V390.9z"/>
		<path class="st0" d="M456.3,383.8h4.7v0.7h-4v3.1h3.5v0.7H457v3.4h4.1v0.7h-4.8V383.8z"/>
		<path class="st0" d="M468.9,386.9c-0.4-0.6-0.9-1.2-1.3-1.8l0,0c0,0.7,0,1.4,0,2.2v5.1h-0.7v-8.4h0.7l3.3,4.7l3.3-4.7h0.7v8.4
			h-0.7v-5.1c0-0.7,0-1.5,0-2.2l0,0c-0.4,0.6-0.8,1.2-1.3,1.8l-2,2.9L468.9,386.9z"/>
		<path class="st0" d="M480.2,383.8h0.7l3.5,8.4h-0.8l-1-2.5h-4.1l-1,2.5h-0.7L480.2,383.8z M481.5,387c-0.3-0.8-0.6-1.5-0.9-2.3h0
			c-0.3,0.7-0.6,1.5-0.9,2.3l-0.9,2.1h3.6L481.5,387z"/>
		<path class="st0" d="M486.3,392.3v-8.4h0.7l3.9,5.1c0.6,0.7,1,1.4,1.6,2.1l0,0c0-0.8,0-1.7,0-2.5v-4.7h0.7v8.4h-0.7l-3.9-5.1
			c-0.6-0.7-1-1.4-1.6-2.1l0,0c0,0.8,0,1.7,0,2.5v4.7H486.3z"/>
		<path class="st0" d="M498.4,383.8h0.7l3.5,8.4h-0.8l-1-2.5h-4.1l-1,2.5h-0.7L498.4,383.8z M499.7,387c-0.3-0.8-0.6-1.5-0.9-2.3h0
			c-0.3,0.7-0.6,1.5-0.9,2.3l-0.9,2.1h3.6L499.7,387z"/>
		<path class="st0" d="M510.7,391.6c-0.7,0.5-1.8,0.8-2.8,0.8c-2.5,0-4.3-1.9-4.3-4.3c0-2.4,1.8-4.4,4.4-4.4c1,0,1.8,0.3,2.5,0.7
			v0.8c-0.7-0.5-1.5-0.8-2.5-0.8c-2.2,0-3.7,1.6-3.7,3.7c0,2,1.4,3.7,3.7,3.7c0.8,0,1.5-0.2,2-0.5v-2.4h-2.1v-0.7h2.9V391.6z"/>
		<path class="st0" d="M513.3,383.8h4.7v0.7h-4v3.1h3.5v0.7H514v3.4h4.1v0.7h-4.8V383.8z"/>
		<path class="st0" d="M522.1,386.9c-0.4-0.6-0.9-1.2-1.3-1.8l0,0c0,0.7,0,1.4,0,2.2v5.1h-0.7v-8.4h0.7l3.3,4.7l3.3-4.7h0.7v8.4
			h-0.7v-5.1c0-0.7,0-1.5,0-2.2l0,0c-0.4,0.6-0.8,1.2-1.3,1.8l-2,2.9L522.1,386.9z"/>
		<path class="st0" d="M530.9,383.8h4.7v0.7h-4v3.1h3.5v0.7h-3.5v3.4h4.1v0.7h-4.8V383.8z"/>
		<path class="st0" d="M537.8,392.3v-8.4h0.7l3.9,5.1c0.6,0.7,1,1.4,1.6,2.1l0,0c0-0.8,0-1.7,0-2.5v-4.7h0.7v8.4h-0.7l-3.9-5.1
			c-0.6-0.7-1-1.4-1.6-2.1l0,0c0,0.8,0,1.7,0,2.5v4.7H537.8z"/>
		<path class="st0" d="M549.4,384.5h-2.9v-0.7h6.5v0.7h-2.9v7.8h-0.7V384.5z"/>
	</g>
	<g>
		<path class="st0" d="M290.4,383.8h2.2c1.4,0,2.4,0.3,3.2,0.9c1,0.7,1.7,2,1.7,3.3c0,1.4-0.6,2.5-1.5,3.2c-0.8,0.7-1.9,1-3.6,1h-2
			V383.8z M292.5,391.6c1.2,0,2.2-0.2,3-0.8c0.8-0.6,1.3-1.6,1.3-2.7c0-1.2-0.5-2.2-1.3-2.8c-0.7-0.6-1.7-0.8-2.9-0.8h-1.4v7.1
			H292.5z"/>
		<path class="st0" d="M299.8,383.8h0.7v8.4h-0.7V383.8z"/>
		<path class="st0" d="M309.9,391.6c-0.7,0.5-1.8,0.8-2.8,0.8c-2.5,0-4.3-1.9-4.3-4.3c0-2.4,1.8-4.4,4.4-4.4c1,0,1.8,0.3,2.5,0.7
			v0.8c-0.7-0.5-1.5-0.8-2.5-0.8c-2.2,0-3.7,1.6-3.7,3.7c0,2,1.4,3.7,3.7,3.7c0.8,0,1.5-0.2,2-0.5v-2.4h-2.1v-0.7h2.9V391.6z"/>
		<path class="st0" d="M312.5,383.8h0.7v8.4h-0.7V383.8z"/>
		<path class="st0" d="M318.1,384.5h-2.9v-0.7h6.5v0.7h-2.9v7.8h-0.7V384.5z"/>
		<path class="st0" d="M325.2,383.8h0.7l3.5,8.4h-0.8l-1-2.5h-4.1l-1,2.5h-0.7L325.2,383.8z M326.5,387c-0.3-0.8-0.6-1.5-0.9-2.3h0
			c-0.3,0.7-0.6,1.5-0.9,2.3l-0.9,2.1h3.6L326.5,387z"/>
		<path class="st0" d="M331.3,383.8h0.7v7.8h4.2v0.7h-4.9V383.8z"/>
		<path class="st0" d="M341.9,383.8h4.8v0.7h-4.1v3.2h3.6v0.7h-3.6v3.9h-0.7V383.8z"/>
		<path class="st0" d="M352.6,383.7c2.4,0,4.2,1.9,4.2,4.3c0,2.4-1.8,4.3-4.2,4.3c-2.4,0-4.2-1.9-4.2-4.3
			C348.3,385.6,350.1,383.7,352.6,383.7z M352.6,391.7c2,0,3.5-1.6,3.5-3.7c0-2-1.5-3.7-3.5-3.7c-2,0-3.5,1.6-3.5,3.7
			C349,390.1,350.5,391.7,352.6,391.7z"/>
		<path class="st0" d="M359.1,383.8h2.3c1,0,1.7,0.1,2.3,0.5c0.6,0.4,1,1,1,1.8c0,0.8-0.3,1.4-0.9,1.8c-0.4,0.3-0.8,0.4-1.4,0.5
			l2.8,3.8h-0.9l-2.7-3.8h-1.8v3.8h-0.7V383.8z M361.6,387.9c0.9,0,1.4-0.2,1.8-0.5c0.4-0.3,0.5-0.7,0.5-1.2c0-0.6-0.3-1-0.7-1.3
			c-0.5-0.3-1-0.4-2-0.4h-1.5v3.4H361.6z"/>
		<path class="st0" d="M367.2,383.8h4.7v0.7h-4v3.1h3.5v0.7h-3.5v3.4h4.1v0.7h-4.8V383.8z"/>
		<path class="st0" d="M374,392.3v-8.4h0.7l3.9,5.1c0.6,0.7,1,1.4,1.6,2.1l0,0c0-0.8,0-1.7,0-2.5v-4.7h0.7v8.4h-0.7l-3.9-5.1
			c-0.6-0.7-1-1.4-1.6-2.1l0,0c0,0.8,0,1.7,0,2.5v4.7H374z"/>
		<path class="st0" d="M383.4,390.9c0.7,0.6,1.7,0.9,2.5,0.9c1.1,0,2-0.5,2-1.6c0-1.2-1.1-1.5-2.2-1.8c-1.2-0.3-2.4-0.8-2.4-2.3
			c0-1.4,1-2.3,2.6-2.3c0.8,0,1.7,0.2,2.4,0.7v0.8c-0.7-0.5-1.6-0.8-2.4-0.8c-1.1,0-1.9,0.5-1.9,1.5c0,1.2,1.1,1.4,2.1,1.7
			c1.2,0.3,2.5,0.8,2.5,2.4c0,1.5-1.1,2.3-2.7,2.3c-0.8,0-1.8-0.2-2.5-0.7V390.9z"/>
		<path class="st0" d="M390.7,383.8h0.7v8.4h-0.7V383.8z"/>
		<path class="st0" d="M400.6,391.8c-0.7,0.4-1.5,0.6-2.4,0.6c-2.6,0-4.4-1.9-4.4-4.3c0-2.4,1.7-4.4,4.4-4.4c0.8,0,1.6,0.2,2.3,0.5
			v0.8c-0.6-0.4-1.4-0.7-2.3-0.7c-2.2,0-3.7,1.6-3.7,3.7s1.5,3.7,3.7,3.7c0.9,0,1.7-0.3,2.4-0.7V391.8z"/>
		<path class="st0" d="M402.5,390.9c0.7,0.6,1.7,0.9,2.5,0.9c1.1,0,2-0.5,2-1.6c0-1.2-1.1-1.5-2.2-1.8c-1.2-0.3-2.4-0.8-2.4-2.3
			c0-1.4,1-2.3,2.6-2.3c0.8,0,1.7,0.2,2.4,0.7v0.8c-0.7-0.5-1.6-0.8-2.4-0.8c-1.1,0-1.9,0.5-1.9,1.5c0,1.2,1.1,1.4,2.1,1.7
			c1.2,0.3,2.5,0.8,2.5,2.4c0,1.5-1.1,2.3-2.7,2.3c-0.8,0-1.8-0.2-2.5-0.7V390.9z"/>
	</g>
	<g>
		<path class="st0" d="M259.6,404.6h4.7v0.7h-4v3.1h3.5v0.7h-3.5v3.4h4.1v0.7h-4.8V404.6z"/>
		<path class="st0" d="M266.4,413v-8.4h0.7l3.9,5.1c0.6,0.7,1,1.4,1.6,2.1l0,0c0-0.8,0-1.7,0-2.5v-4.7h0.7v8.4h-0.7l-3.9-5.1
			c-0.6-0.7-1-1.4-1.6-2.1l0,0c0,0.8,0,1.7,0,2.5v4.7H266.4z"/>
		<path class="st0" d="M276,404.6h2.2c1.4,0,2.4,0.3,3.2,0.9c1,0.7,1.7,2,1.7,3.3c0,1.4-0.6,2.5-1.5,3.2c-0.8,0.7-1.9,1-3.6,1h-2
			V404.6z M278.1,412.3c1.2,0,2.2-0.2,3-0.8c0.8-0.6,1.3-1.6,1.3-2.7c0-1.2-0.5-2.2-1.3-2.8c-0.7-0.6-1.7-0.8-2.9-0.8h-1.4v7.1
			H278.1z"/>
		<path class="st0" d="M285.3,404.6h2.2c1.1,0,1.9,0.1,2.5,0.5c0.6,0.4,1,1,1,1.9c0,0.8-0.4,1.5-1,1.9c-0.6,0.4-1.5,0.5-2.6,0.5H286
			v3.5h-0.7V404.6z M287.5,408.9c1.2,0,1.7-0.2,2.1-0.4c0.4-0.3,0.7-0.8,0.7-1.4c0-0.7-0.3-1.1-0.7-1.4c-0.5-0.3-1.1-0.4-2.1-0.4
			H286v3.6H287.5z"/>
		<path class="st0" d="M296.9,404.4c2.4,0,4.2,1.9,4.2,4.3c0,2.4-1.8,4.3-4.2,4.3c-2.4,0-4.2-1.9-4.2-4.3
			C292.7,406.4,294.5,404.4,296.9,404.4z M296.9,412.5c2,0,3.5-1.6,3.5-3.7c0-2-1.5-3.7-3.5-3.7c-2,0-3.5,1.6-3.5,3.7
			C293.4,410.8,294.9,412.5,296.9,412.5z"/>
		<path class="st0" d="M303.5,404.6h0.7v8.4h-0.7V404.6z"/>
		<path class="st0" d="M307,413v-8.4h0.7l3.9,5.1c0.6,0.7,1,1.4,1.6,2.1l0,0c0-0.8,0-1.7,0-2.5v-4.7h0.7v8.4h-0.7l-3.9-5.1
			c-0.6-0.7-1-1.4-1.6-2.1l0,0c0,0.8,0,1.7,0,2.5v4.7H307z"/>
		<path class="st0" d="M318.7,405.2h-2.9v-0.7h6.5v0.7h-2.9v7.8h-0.7V405.2z"/>
		<path class="st0" d="M329.9,407.6c-0.4-0.6-0.9-1.2-1.3-1.8l0,0c0,0.7,0,1.4,0,2.2v5.1h-0.7v-8.4h0.7l3.3,4.7l3.3-4.7h0.7v8.4
			h-0.7v-5.1c0-0.7,0-1.5,0-2.2l0,0c-0.4,0.6-0.8,1.2-1.3,1.8l-2,2.9L329.9,407.6z"/>
		<path class="st0" d="M342.4,404.4c2.4,0,4.2,1.9,4.2,4.3c0,2.4-1.8,4.3-4.2,4.3c-2.4,0-4.2-1.9-4.2-4.3
			C338.2,406.4,340,404.4,342.4,404.4z M342.4,412.5c2,0,3.5-1.6,3.5-3.7c0-2-1.5-3.7-3.5-3.7c-2,0-3.5,1.6-3.5,3.7
			C338.9,410.8,340.4,412.5,342.4,412.5z"/>
		<path class="st0" d="M349,413v-8.4h0.7l3.9,5.1c0.6,0.7,1,1.4,1.6,2.1l0,0c0-0.8,0-1.7,0-2.5v-4.7h0.7v8.4h-0.7l-3.9-5.1
			c-0.6-0.7-1-1.4-1.6-2.1l0,0c0,0.8,0,1.7,0,2.5v4.7H349z"/>
		<path class="st0" d="M358.6,404.6h0.7v8.4h-0.7V404.6z"/>
		<path class="st0" d="M364.1,405.2h-2.9v-0.7h6.5v0.7h-2.9v7.8h-0.7V405.2z"/>
		<path class="st0" d="M372.9,404.4c2.4,0,4.2,1.9,4.2,4.3c0,2.4-1.8,4.3-4.2,4.3c-2.4,0-4.2-1.9-4.2-4.3
			C368.7,406.4,370.5,404.4,372.9,404.4z M372.9,412.5c2,0,3.5-1.6,3.5-3.7c0-2-1.5-3.7-3.5-3.7c-2,0-3.5,1.6-3.5,3.7
			C369.4,410.8,370.9,412.5,372.9,412.5z"/>
		<path class="st0" d="M379.5,404.6h2.3c1,0,1.7,0.1,2.3,0.5c0.6,0.4,1,1,1,1.8c0,0.8-0.3,1.4-0.9,1.8c-0.4,0.3-0.8,0.4-1.4,0.5
			l2.8,3.8h-0.9l-2.7-3.8h-1.8v3.8h-0.7V404.6z M382,408.6c0.9,0,1.4-0.2,1.8-0.5c0.4-0.3,0.5-0.7,0.5-1.2c0-0.6-0.3-1-0.7-1.3
			c-0.5-0.3-1-0.4-2-0.4h-1.5v3.4H382z"/>
		<path class="st0" d="M387.5,404.6h0.7v8.4h-0.7V404.6z"/>
		<path class="st0" d="M391,413v-8.4h0.7l3.9,5.1c0.6,0.7,1,1.4,1.6,2.1l0,0c0-0.8,0-1.7,0-2.5v-4.7h0.7v8.4h-0.7l-3.9-5.1
			c-0.6-0.7-1-1.4-1.6-2.1l0,0c0,0.8,0,1.7,0,2.5v4.7H391z"/>
		<path class="st0" d="M407.3,412.3c-0.7,0.5-1.8,0.8-2.8,0.8c-2.5,0-4.3-1.9-4.3-4.3c0-2.4,1.8-4.4,4.4-4.4c1,0,1.8,0.3,2.5,0.7
			v0.8c-0.7-0.5-1.5-0.8-2.5-0.8c-2.2,0-3.7,1.6-3.7,3.7c0,2,1.4,3.7,3.7,3.7c0.8,0,1.5-0.2,2-0.5v-2.4h-2.1V409h2.9V412.3z"/>
	</g>
	<g>
		<g>
			<g>
				<g>
					<path class="st1" d="M317.1,304.5h8c5.1,0,9,0.8,12,2.9c3.5,2.4,5.5,6.5,5.5,11.4c0,4.5-1.7,8.3-4.7,10.8
						c-2.9,2.4-7,3.5-13,3.5h-7.7V304.5z M325.1,327.6c4.1,0,6.7-0.7,8.5-2.3c1.7-1.5,2.8-3.8,2.8-6.6c0-3-1.2-5.5-3.3-7
						c-2-1.4-4.7-1.7-7.9-1.7h-1.7v17.6H325.1z"/>
					<path class="st1" d="M356.3,304.5h17.7v5.5h-11.4v5.6h9.8v5.2h-9.8v6.8h11.8v5.5h-18.1V304.5z"/>
					<path class="st1" d="M395.2,309.9H386v-5.5h24.8v5.5h-9.2v23.1h-6.3V309.9z"/>
					<path class="st1" d="M423.2,304.5h17.7v5.5h-11.4v5.6h9.8v5.2h-9.8v6.8h11.8v5.5h-18.1V304.5z"/>
					<g>
						<path class="st1" d="M472.6,320.9v6.5c-0.9,0.4-2.2,0.6-3.5,0.6c-5.9,0-9.4-4.2-9.4-9.2c0-5.1,3.7-9.2,9.5-9.2
							c3.1,0,6.2,1.2,8.7,2.8v-6.3c-2.2-1.2-5.3-2.2-8.8-2.2c-9.1,0-15.6,6.4-15.6,14.9c0,8.4,6.4,14.6,15.6,14.6
							c3.6,0,7.2-0.9,9.7-2.4v-10.2H472.6z"/>
					</g>
					<path class="st1" d="M491.9,318.8c0-8.3,6.4-14.7,14.9-14.7c8.5,0,14.9,6.4,14.9,14.7c0,8.3-6.4,14.7-14.9,14.7
						C498.4,333.5,491.9,327.1,491.9,318.8z M515.5,318.8c0-5.1-3.7-9-8.7-9c-4.9,0-8.7,4-8.7,9s3.7,9,8.7,9
						C511.8,327.8,515.5,323.8,515.5,318.8z"/>
				</g>
			</g>
			<g>
				<g>
					<g>
						<path class="st1" d="M328,351v3.3c-0.8,0.4-1.7,0.6-2.8,0.6c-3.4,0-5.4-2.5-5.4-5.4c0-3,2.2-5.4,5.4-5.4
							c1.6,0,3.1,0.6,4.2,1.5v-2c-1-0.6-2.4-1.1-4.2-1.1c-4.2,0-7.2,3.1-7.2,7.1c0,4.1,3,7,7.1,7c1.8,0,3.5-0.5,4.7-1.4V351H328z"/>
					</g>
					<path class="st1" d="M358.3,342.7h1.8v12h6.4v1.6h-8.2V342.7z"/>
					<path class="st1" d="M400,342.5c4,0,6.9,3.1,6.9,7s-3,7-6.9,7c-4,0-6.9-3.1-6.9-7S396,342.5,400,342.5z M400,354.9
						c3,0,5.1-2.4,5.1-5.4s-2.2-5.4-5.1-5.4s-5.1,2.4-5.1,5.4S397,354.9,400,354.9z"/>
					<path class="st1" d="M434.9,342.7h3.7c1.7,0,2.7,0.2,3.6,0.7c1,0.6,1.6,1.6,1.6,2.8c0,1.6-0.9,2.5-2.1,2.9v0
						c1.6,0.4,2.6,1.4,2.6,3.2c0,1.3-0.6,2.4-1.6,3.1c-1,0.7-2.3,0.9-4.3,0.9h-3.6V342.7z M439.4,348.7c1.4,0,2.6-0.6,2.6-2.1
						c0-0.8-0.4-1.4-1-1.7c-0.6-0.4-1.4-0.5-2.7-0.5h-1.6v4.3H439.4z M438.6,354.8c1.5,0,2.4-0.2,3-0.6c0.4-0.3,0.9-0.9,0.9-1.8
						c0-1.5-1.2-2.3-3.2-2.3h-2.6v4.7H438.6z"/>
					<path class="st1" d="M476.6,342.7h1.7l5.6,13.6h-1.9l-1.5-3.8h-6.1l-1.5,3.8H471L476.6,342.7z M475,351h4.9l-1.1-2.8
						c-0.4-1.1-0.9-2.3-1.3-3.4h0c-0.4,1.1-0.9,2.3-1.3,3.4L475,351z"/>
					<path class="st1" d="M511.3,342.7h1.8v12h6.4v1.6h-8.2V342.7z"/>
				</g>
			</g>
		</g>
		<g>
			<g>
				<linearGradient id="SVGID_1_" gradientUnits="userSpaceOnUse" x1="377.1581" y1="272.4589" x2="461.6927" y2="187.9242">
					<stop  offset="0.1099" style="stop-color:#29AAE1"/>
					<stop  offset="1" style="stop-color:#2A3C90"/>
				</linearGradient>
				<path class="st2" d="M440.4,179.1h-42c-16.6,0-30.1,13.5-30.1,30.1v42c0,16.6,13.5,30.1,30.1,30.1h42
					c16.6,0,30.1-13.5,30.1-30.1v-42C470.5,192.6,457,179.1,440.4,179.1z"/>
			</g>
			<path class="st3" d="M449.4,212v11.6h-9.2V212c0-1.9-1.4-2.7-2-3c-0.6-0.3-2.1-0.7-3.5,0.6l-6.6,6.3l-6.6-6.4l6.8-6.5
				c3.7-3.5,8.8-4.5,13.5-2.5C446.5,202.5,449.4,206.9,449.4,212z M440.2,236.8l9.2-8.8v20.5c0,5.1-2.9,9.5-7.6,11.5
				c-1.6,0.7-3.3,1-5,1c-3.1,0-6.2-1.2-8.6-3.5l-18.9-18.2c-2.5-2.4-3.8-5.6-3.8-9s1.4-6.6,3.8-9l3.4-3.2l-8.6-8.3
				c-0.7-0.7-1.5-0.9-2.2-0.9c-0.6,0-1.1,0.2-1.3,0.3c-0.6,0.3-2,1-2,3v36.4c0,1.9,1.4,2.7,2,3c0.6,0.3,2.1,0.7,3.5-0.6l6.5-6.3
				l6.7,6.4l-6.8,6.5c-2.4,2.3-5.4,3.5-8.6,3.5c-1.7,0-3.3-0.3-5-1c-4.7-2-7.6-6.4-7.6-11.5V212c0-5.1,2.9-9.5,7.6-11.5
				c4.7-2,9.9-1,13.5,2.5l18.9,18.2c2.5,2.4,3.8,5.6,3.8,9s-1.4,6.6-3.8,9l-3.4,3.2l8.6,8.3c1.4,1.3,2.9,0.9,3.5,0.6
				c0.6-0.3,2-1,2-3V236.8z M419.4,236l3.6-3.5c0.6-0.6,1-1.4,1-2.3c0-0.9-0.4-1.7-1-2.3l-3.6-3.5l-3.6,3.5c-0.6,0.6-1,1.4-1,2.3
				c0,0.9,0.4,1.7,1,2.3L419.4,236z"/>
		</g>
	</g>
	<line class="st4" x1="419.4" y1="383.6" x2="419.4" y2="413.2"/>
</g>
</svg>
