<?xml version="1.0" encoding="utf-8"?>
<!-- Generator: Adobe Illustrator 26.0.3, SVG Export Plug-In . SVG Version: 6.00 Build 0)  -->
<svg version="1.1" id="Layer_1" xmlns="http://www.w3.org/2000/svg" xmlns:xlink="http://www.w3.org/1999/xlink" x="0px" y="0px"
	 viewBox="0 0 841.9 595.3" style="enable-background:new 0 0 841.9 595.3;" xml:space="preserve">
<style type="text/css">
	.st0{fill:#424143;}
	.st1{fill:url(#SVGID_1_);}
	.st2{fill:#FFFFFF;}
</style>
<g>
	<g>
		<g>
			<g>
				<path class="st0" d="M371.3,271.8h8c5.1,0,9,0.8,12,2.9c3.5,2.4,5.5,6.5,5.5,11.4c0,4.5-1.7,8.3-4.7,10.8c-2.9,2.4-7,3.5-13,3.5
					h-7.7V271.8z M379.4,294.9c4.1,0,6.7-0.7,8.5-2.3c1.7-1.5,2.8-3.8,2.8-6.6c0-3-1.2-5.5-3.3-7c-2-1.4-4.7-1.7-7.9-1.7h-1.7v17.6
					H379.4z"/>
				<path class="st0" d="M410.5,271.8h17.7v5.5h-11.4v5.6h9.8v5.2h-9.8v6.8h11.8v5.5h-18.1V271.8z"/>
				<path class="st0" d="M449.5,277.3h-9.2v-5.5H465v5.5h-9.2v23.1h-6.3V277.3z"/>
				<path class="st0" d="M477.4,271.8h17.7v5.5h-11.4v5.6h9.8v5.2h-9.8v6.8h11.8v5.5h-18.1V271.8z"/>
				<g>
					<path class="st0" d="M526.9,288.2v6.5c-0.9,0.4-2.2,0.6-3.5,0.6c-5.9,0-9.4-4.2-9.4-9.2c0-5.1,3.7-9.2,9.5-9.2
						c3.1,0,6.2,1.2,8.7,2.8v-6.3c-2.2-1.2-5.3-2.2-8.8-2.2c-9.1,0-15.6,6.4-15.6,14.9c0,8.4,6.4,14.6,15.6,14.6
						c3.6,0,7.2-0.9,9.7-2.4v-10.2H526.9z"/>
				</g>
				<path class="st0" d="M546.2,286.1c0-8.3,6.4-14.7,14.9-14.7c8.5,0,14.9,6.4,14.9,14.7c0,8.3-6.4,14.7-14.9,14.7
					C552.6,300.8,546.2,294.4,546.2,286.1z M569.8,286.1c0-5.1-3.7-9-8.7-9s-8.7,4-8.7,9s3.7,9,8.7,9S569.8,291.1,569.8,286.1z"/>
			</g>
		</g>
		<g>
			<g>
				<g>
					<path class="st0" d="M382.3,318.4v3.3c-0.8,0.4-1.7,0.6-2.8,0.6c-3.4,0-5.4-2.5-5.4-5.4c0-3,2.2-5.4,5.4-5.4
						c1.6,0,3.1,0.6,4.2,1.5v-2c-1-0.6-2.4-1.1-4.2-1.1c-4.2,0-7.2,3.1-7.2,7.1c0,4.1,3,7,7.1,7c1.8,0,3.5-0.5,4.7-1.4v-4.2H382.3z"
						/>
				</g>
				<path class="st0" d="M412.6,310.1h1.8v12h6.4v1.6h-8.2V310.1z"/>
				<path class="st0" d="M454.2,309.9c4,0,6.9,3.1,6.9,7c0,4-3,7-6.9,7s-6.9-3.1-6.9-7C447.3,312.9,450.3,309.9,454.2,309.9z
					 M454.2,322.3c3,0,5.1-2.4,5.1-5.4c0-3-2.2-5.4-5.1-5.4s-5.1,2.4-5.1,5.4C449.1,319.9,451.3,322.3,454.2,322.3z"/>
				<path class="st0" d="M489.2,310.1h3.7c1.7,0,2.7,0.2,3.6,0.7c1,0.6,1.6,1.6,1.6,2.8c0,1.6-0.9,2.5-2.1,2.9v0
					c1.6,0.4,2.6,1.4,2.6,3.2c0,1.3-0.6,2.4-1.6,3.1c-1,0.7-2.3,0.9-4.3,0.9h-3.6V310.1z M493.6,316c1.4,0,2.6-0.6,2.6-2.1
					c0-0.8-0.4-1.4-1-1.7c-0.6-0.4-1.4-0.5-2.7-0.5h-1.6v4.3H493.6z M492.9,322.1c1.5,0,2.4-0.2,3-0.6c0.4-0.3,0.9-0.9,0.9-1.8
					c0-1.5-1.2-2.3-3.2-2.3h-2.6v4.7H492.9z"/>
				<path class="st0" d="M530.9,310.1h1.7l5.6,13.6h-1.9l-1.5-3.8h-6.1l-1.5,3.8h-1.8L530.9,310.1z M529.3,318.4h4.9l-1.1-2.8
					c-0.4-1.1-0.9-2.3-1.3-3.4h0c-0.4,1.1-0.9,2.3-1.3,3.4L529.3,318.4z"/>
				<path class="st0" d="M565.6,310.1h1.8v12h6.4v1.6h-8.2V310.1z"/>
			</g>
		</g>
	</g>
	<g>
		<linearGradient id="SVGID_1_" gradientUnits="userSpaceOnUse" x1="273.5017" y1="334.3549" x2="346.9361" y2="260.9206">
			<stop  offset="0.1099" style="stop-color:#29AAE1"/>
			<stop  offset="1" style="stop-color:#2A3C90"/>
		</linearGradient>
		<path class="st1" d="M328.4,253.3H292c-14.4,0-26.1,11.7-26.1,26.1v36.5c0,14.4,11.7,26.1,26.1,26.1h36.5
			c14.4,0,26.1-11.7,26.1-26.1v-36.5C354.6,265,342.9,253.3,328.4,253.3z"/>
	</g>
	<path class="st2" d="M336.3,281.8v10.1h-8v-10.1c0-1.7-1.2-2.4-1.7-2.6c-0.5-0.2-1.8-0.6-3,0.6l-5.7,5.5l-5.8-5.6l5.9-5.7
		c3.2-3.1,7.7-3.9,11.8-2.2C333.8,273.6,336.3,277.4,336.3,281.8z M328.3,303.3l8-7.7v17.8c0,4.4-2.5,8.2-6.6,10
		c-1.4,0.6-2.9,0.9-4.3,0.9c-2.7,0-5.4-1-7.5-3l-16.4-15.8c-2.1-2.1-3.3-4.8-3.3-7.8s1.2-5.7,3.3-7.8l2.9-2.8l-7.5-7.2
		c-0.6-0.6-1.3-0.8-1.9-0.8c-0.5,0-0.9,0.1-1.2,0.2c-0.5,0.2-1.7,0.9-1.7,2.6v31.6c0,1.7,1.2,2.4,1.7,2.6c0.5,0.2,1.8,0.6,3-0.6
		l5.7-5.4l5.8,5.6l-5.9,5.7c-2.1,2-4.7,3-7.4,3c-1.4,0-2.9-0.3-4.3-0.9c-4.1-1.7-6.6-5.5-6.6-10v-31.6c0-4.4,2.5-8.2,6.6-10
		c4.1-1.7,8.6-0.9,11.7,2.2l16.4,15.8c2.1,2.1,3.3,4.8,3.3,7.8c0,3-1.2,5.7-3.3,7.8l-2.9,2.8l7.5,7.2c1.2,1.2,2.5,0.8,3,0.6
		c0.5-0.2,1.7-0.9,1.7-2.6V303.3z M310.2,302.7l3.2-3c0.6-0.5,0.9-1.3,0.9-2c0-0.8-0.3-1.5-0.9-2l-3.2-3l-3.2,3
		c-0.6,0.5-0.9,1.3-0.9,2c0,0.8,0.3,1.5,0.9,2L310.2,302.7z"/>
</g>
</svg>
