<?xml version="1.0" encoding="utf-8"?>
<!-- Generator: Adobe Illustrator 26.0.3, SVG Export Plug-In . SVG Version: 6.00 Build 0)  -->
<svg version="1.1" id="Layer_1" xmlns="http://www.w3.org/2000/svg" xmlns:xlink="http://www.w3.org/1999/xlink" x="0px" y="0px"
	 viewBox="0 0 841.9 595.3" style="enable-background:new 0 0 841.9 595.3;" xml:space="preserve">
<style type="text/css">
	.st0{fill:url(#SVGID_1_);}
	.st1{fill:#FFFFFF;}
</style>
<g>
	<linearGradient id="SVGID_1_" gradientUnits="userSpaceOnUse" x1="346.0665" y1="372.5162" x2="495.8233" y2="222.7594">
		<stop  offset="0.1099" style="stop-color:#29AAE1"/>
		<stop  offset="1" style="stop-color:#2A3C90"/>
	</linearGradient>
	<path class="st0" d="M458.1,207.1h-74.3c-29.4,0-53.3,23.9-53.3,53.3v74.3c0,29.4,23.9,53.3,53.3,53.3h74.3
		c29.4,0,53.3-23.9,53.3-53.3v-74.3C511.4,231,487.6,207.1,458.1,207.1z"/>
</g>
<path class="st1" d="M457.7,329.9c0,3.4-2.4,4.8-3.5,5.3c-1,0.4-3.8,1.2-6.2-1.1l-15.3-14.7l6-5.8c4.4-4.2,6.8-9.9,6.8-15.9
	c0-6.1-2.4-11.7-6.8-15.9l-33.5-32.3c-6.5-6.2-15.7-7.9-24-4.4c-8.3,3.5-13.4,11.3-13.4,20.3v64.5c0,9,5.1,16.8,13.4,20.3
	c2.9,1.2,5.8,1.8,8.8,1.8c5.5,0,10.9-2.1,15.2-6.2l12-11.5l-11.8-11.3L393.8,334c-2.5,2.4-5.2,1.6-6.2,1.1c-1-0.4-3.5-1.9-3.5-5.3
	v-64.5c0-3.4,2.4-4.8,3.5-5.3c0.5-0.2,1.3-0.5,2.4-0.5c1.2,0,2.5,0.4,3.9,1.6l15.3,14.7l-6,5.8c-4.4,4.2-6.8,9.9-6.8,15.9
	c0,6.1,2.4,11.7,6.8,15.9l33.5,32.3c4.2,4.1,9.6,6.2,15.2,6.2c2.9,0,5.9-0.6,8.8-1.8c8.3-3.5,13.4-11.3,13.4-20.3v-36.3l-16.4,15.7
	V329.9z M414.5,301.8L414.5,301.8c-1.1-1.1-1.8-2.6-1.8-4.1c0-1.6,0.6-3,1.8-4.1l6.4-6.2l6.4,6.2c1.1,1.1,1.8,2.6,1.8,4.1
	c0,1.6-0.6,3-1.8,4.1l-6.4,6.2L414.5,301.8z M474.1,265.4v20.6h-16.4v-20.6c0-3.4-2.4-4.8-3.5-5.3c-0.5-0.2-1.3-0.5-2.4-0.5
	c-1.2,0-2.5,0.4-3.9,1.6l-11.7,11.2L424.7,261l12-11.6c6.5-6.2,15.7-7.9,24-4.4C469,248.6,474.1,256.4,474.1,265.4z"/>
</svg>
