<?xml version="1.0" encoding="utf-8"?>
<!-- Generator: Adobe Illustrator 26.1.0, SVG Export Plug-In . SVG Version: 6.00 Build 0)  -->
<svg version="1.1" id="Layer_1" xmlns="http://www.w3.org/2000/svg" xmlns:xlink="http://www.w3.org/1999/xlink" x="0px" y="0px"
	 viewBox="0 0 841.9 595.3" style="enable-background:new 0 0 841.9 595.3;" xml:space="preserve">
<style type="text/css">
	.st0{fill:#424143;}
	.st1{fill:url(#SVGID_1_);}
	.st2{fill:#FFFFFF;}
</style>
<g>
	<g>
		<g>
			<g>
				<path class="st0" d="M318.6,334.2h8c5.1,0,9,0.8,12,2.9c3.5,2.4,5.5,6.5,5.5,11.4c0,4.5-1.7,8.3-4.7,10.8c-2.9,2.4-7,3.5-13,3.5
					h-7.7V334.2z M326.6,357.3c4.1,0,6.7-0.7,8.5-2.3c1.7-1.5,2.8-3.8,2.8-6.6c0-3-1.2-5.5-3.3-7c-2-1.4-4.7-1.7-7.9-1.7h-1.7v17.6
					H326.6z"/>
				<path class="st0" d="M357.8,334.2h17.7v5.5h-11.4v5.6h9.8v5.2h-9.8v6.8h11.8v5.5h-18.1V334.2z"/>
				<path class="st0" d="M396.7,339.7h-9.2v-5.5h24.8v5.5H403v23.1h-6.3V339.7z"/>
				<path class="st0" d="M424.7,334.2h17.7v5.5H431v5.6h9.8v5.2H431v6.8h11.8v5.5h-18.1V334.2z"/>
				<g>
					<path class="st0" d="M474.1,350.7v6.5c-0.9,0.4-2.2,0.6-3.5,0.6c-5.9,0-9.4-4.2-9.4-9.2c0-5.1,3.7-9.2,9.5-9.2
						c3.1,0,6.2,1.2,8.7,2.8V336c-2.2-1.2-5.3-2.2-8.8-2.2c-9.1,0-15.6,6.4-15.6,14.9c0,8.4,6.4,14.6,15.6,14.6
						c3.6,0,7.2-0.9,9.7-2.4v-10.2H474.1z"/>
				</g>
				<path class="st0" d="M493.4,348.5c0-8.3,6.4-14.7,14.9-14.7c8.5,0,14.9,6.4,14.9,14.7c0,8.3-6.4,14.7-14.9,14.7
					C499.9,363.3,493.4,356.9,493.4,348.5z M517,348.5c0-5.1-3.7-9-8.7-9c-4.9,0-8.7,4-8.7,9s3.7,9,8.7,9
					C513.3,357.6,517,353.6,517,348.5z"/>
			</g>
		</g>
		<g>
			<g>
				<g>
					<path class="st0" d="M329.6,380.8v3.3c-0.8,0.4-1.7,0.6-2.8,0.6c-3.4,0-5.4-2.5-5.4-5.4c0-3,2.2-5.4,5.4-5.4
						c1.6,0,3.1,0.6,4.2,1.5v-2c-1-0.6-2.4-1.1-4.2-1.1c-4.2,0-7.2,3.1-7.2,7.1c0,4.1,3,7,7.1,7c1.8,0,3.5-0.5,4.7-1.4v-4.2H329.6z"
						/>
				</g>
				<path class="st0" d="M359.8,372.5h1.8v12h6.4v1.6h-8.2V372.5z"/>
				<path class="st0" d="M401.5,372.3c4,0,6.9,3.1,6.9,7c0,4-3,7-6.9,7c-4,0-6.9-3.1-6.9-7C394.6,375.4,397.5,372.3,401.5,372.3z
					 M401.5,384.7c3,0,5.1-2.4,5.1-5.4c0-3-2.2-5.4-5.1-5.4s-5.1,2.4-5.1,5.4C396.3,382.4,398.5,384.7,401.5,384.7z"/>
				<path class="st0" d="M436.4,372.5h3.7c1.7,0,2.7,0.2,3.6,0.7c1,0.6,1.6,1.6,1.6,2.8c0,1.6-0.9,2.5-2.1,2.9v0
					c1.6,0.4,2.6,1.4,2.6,3.2c0,1.3-0.6,2.4-1.6,3.1c-1,0.7-2.3,0.9-4.3,0.9h-3.6V372.5z M440.9,378.5c1.4,0,2.6-0.6,2.6-2.1
					c0-0.8-0.4-1.4-1-1.7c-0.6-0.4-1.4-0.5-2.7-0.5h-1.6v4.3H440.9z M440.1,384.6c1.5,0,2.4-0.2,3-0.6c0.4-0.3,0.9-0.9,0.9-1.8
					c0-1.5-1.2-2.3-3.2-2.3h-2.6v4.7H440.1z"/>
				<path class="st0" d="M478.2,372.5h1.7l5.6,13.6h-1.9l-1.5-3.8h-6.1l-1.5,3.8h-1.8L478.2,372.5z M476.5,380.8h4.9l-1.1-2.8
					c-0.4-1.1-0.9-2.3-1.3-3.4h0c-0.4,1.1-0.9,2.3-1.3,3.4L476.5,380.8z"/>
				<path class="st0" d="M512.8,372.5h1.8v12h6.4v1.6h-8.2V372.5z"/>
			</g>
		</g>
	</g>
</g>
<g>
	<g>
		<linearGradient id="SVGID_1_" gradientUnits="userSpaceOnUse" x1="384.2281" y1="305.4001" x2="457.6625" y2="231.9657">
			<stop  offset="0.1099" style="stop-color:#29AAE1"/>
			<stop  offset="1" style="stop-color:#2A3C90"/>
		</linearGradient>
		<path class="st1" d="M439.2,224.3h-36.5c-14.4,0-26.1,11.7-26.1,26.1v36.5c0,14.4,11.7,26.1,26.1,26.1h36.5
			c14.4,0,26.1-11.7,26.1-26.1v-36.5C465.3,236,453.6,224.3,439.2,224.3z"/>
	</g>
	<path class="st2" d="M447,252.9v10.1h-8v-10.1c0-1.7-1.2-2.4-1.7-2.6c-0.5-0.2-1.8-0.6-3,0.6l-5.7,5.5l-5.8-5.6l5.9-5.7
		c3.2-3.1,7.7-3.9,11.8-2.2C444.5,244.6,447,248.5,447,252.9z M439,274.4l8-7.7v17.8c0,4.4-2.5,8.2-6.6,10c-1.4,0.6-2.9,0.9-4.3,0.9
		c-2.7,0-5.4-1-7.5-3l-16.4-15.8c-2.1-2.1-3.3-4.8-3.3-7.8s1.2-5.7,3.3-7.8l2.9-2.8l-7.5-7.2c-0.6-0.6-1.3-0.8-1.9-0.8
		c-0.5,0-0.9,0.1-1.2,0.2c-0.5,0.2-1.7,0.9-1.7,2.6v31.6c0,1.7,1.2,2.4,1.7,2.6c0.5,0.2,1.8,0.6,3-0.6l5.7-5.4l5.8,5.6l-5.9,5.7
		c-2.1,2-4.7,3-7.4,3c-1.4,0-2.9-0.3-4.3-0.9c-4.1-1.7-6.6-5.5-6.6-10v-31.6c0-4.4,2.5-8.2,6.6-10c4.1-1.7,8.6-0.9,11.7,2.2
		l16.4,15.8c2.1,2.1,3.3,4.8,3.3,7.8c0,3-1.2,5.7-3.3,7.8l-2.9,2.8l7.5,7.2c1.2,1.2,2.5,0.8,3,0.6c0.5-0.2,1.7-0.9,1.7-2.6V274.4z
		 M420.9,273.7l3.2-3c0.6-0.5,0.9-1.3,0.9-2c0-0.8-0.3-1.5-0.9-2l-3.2-3l-3.2,3c-0.6,0.5-0.9,1.3-0.9,2c0,0.8,0.3,1.5,0.9,2
		L420.9,273.7z"/>
</g>
</svg>
