<svg xmlns="http://www.w3.org/2000/svg" xmlns:xlink="http://www.w3.org/1999/xlink" width="2240" zoomAndPan="magnify" viewBox="0 0 1680 284.999983" height="380" preserveAspectRatio="xMidYMid meet" version="1.0"><defs><g/></defs><path fill="#414042" d="M 361.816406 208.046875 C 361.816406 215.25 356.632812 218.15625 354.480469 219.167969 C 352.332031 220.054688 346.644531 221.695312 341.460938 216.769531 L 309.351562 185.808594 L 321.992188 173.675781 C 331.222656 164.832031 336.277344 152.953125 336.277344 140.191406 C 336.277344 127.429688 331.222656 115.550781 321.992188 106.703125 L 251.449219 38.847656 C 237.796875 25.703125 218.453125 22.164062 201.007812 29.621094 C 183.5625 37.078125 172.691406 53.378906 172.691406 72.332031 L 172.691406 207.921875 C 172.691406 226.878906 183.5625 243.179688 201.007812 250.632812 C 207.078125 253.160156 213.269531 254.425781 219.464844 254.425781 C 231.097656 254.425781 242.472656 249.875 251.449219 241.410156 L 276.734375 217.148438 L 251.957031 193.265625 L 227.683594 216.640625 C 222.5 221.570312 216.8125 219.925781 214.660156 219.042969 C 212.511719 218.15625 207.328125 215.125 207.328125 207.921875 L 207.328125 72.460938 C 207.328125 65.257812 212.511719 62.351562 214.660156 61.339844 C 215.671875 60.960938 217.441406 60.328125 219.59375 60.328125 C 221.996094 60.328125 224.902344 61.085938 227.683594 63.738281 L 259.792969 94.699219 L 247.152344 106.832031 C 237.921875 115.675781 232.867188 127.554688 232.867188 140.316406 C 232.867188 153.078125 237.921875 164.957031 247.152344 173.804688 L 317.695312 241.660156 C 326.671875 250.253906 337.921875 254.675781 349.679688 254.675781 C 355.871094 254.675781 362.066406 253.414062 368.136719 250.886719 C 385.582031 243.429688 396.453125 227.128906 396.453125 208.175781 L 396.453125 131.851562 L 361.816406 164.707031 Z M 297.972656 148.910156 L 284.445312 161.925781 L 270.917969 148.910156 C 268.515625 146.636719 267.253906 143.476562 267.253906 140.191406 C 267.253906 136.90625 268.515625 133.746094 270.917969 131.472656 L 284.445312 118.457031 L 297.972656 131.472656 C 300.375 133.746094 301.640625 136.90625 301.640625 140.191406 C 301.640625 143.601562 300.375 146.636719 297.972656 148.910156 Z M 396.199219 72.460938 L 396.199219 115.675781 L 361.816406 115.675781 L 361.816406 72.460938 C 361.816406 65.257812 356.632812 62.351562 354.480469 61.339844 C 353.472656 60.960938 351.699219 60.328125 349.550781 60.328125 C 347.148438 60.328125 344.242188 61.085938 341.460938 63.738281 L 316.9375 87.242188 L 292.285156 63.234375 L 317.566406 38.847656 C 331.222656 25.703125 350.5625 22.164062 368.007812 29.621094 C 385.328125 37.078125 396.199219 53.503906 396.199219 72.460938 Z M 396.199219 72.460938 " fill-opacity="1" fill-rule="nonzero"/><g fill="#414042" fill-opacity="1"><g transform="translate(450.965188, 207.605828)"><g><path d="M 41.203125 -140 C 52.671875 -140 60.96875 -137.332031 66.09375 -132 C 71.226562 -126.664062 73.796875 -118.597656 73.796875 -107.796875 L 73.796875 -102.796875 C 73.796875 -95.597656 72.660156 -89.664062 70.390625 -85 C 68.128906 -80.332031 64.53125 -76.863281 59.59375 -74.59375 C 65.59375 -72.332031 69.828125 -68.632812 72.296875 -63.5 C 74.765625 -58.363281 76 -52.0625 76 -44.59375 L 76 -33.203125 C 76 -22.398438 73.195312 -14.164062 67.59375 -8.5 C 62 -2.832031 53.664062 0 42.59375 0 L 8 0 L 8 -140 Z M 30 -63 L 30 -20 L 42.59375 -20 C 46.332031 -20 49.164062 -21 51.09375 -23 C 53.03125 -25 54 -28.597656 54 -33.796875 L 54 -46 C 54 -52.53125 52.898438 -56.992188 50.703125 -59.390625 C 48.503906 -61.796875 44.867188 -63 39.796875 -63 Z M 30 -120 L 30 -83 L 38.59375 -83 C 42.726562 -83 45.960938 -84.066406 48.296875 -86.203125 C 50.628906 -88.335938 51.796875 -92.203125 51.796875 -97.796875 L 51.796875 -105.59375 C 51.796875 -110.664062 50.894531 -114.332031 49.09375 -116.59375 C 47.300781 -118.863281 44.46875 -120 40.59375 -120 Z M 30 -120 "/></g></g></g><g fill="#414042" fill-opacity="1"><g transform="translate(532.163037, 207.605828)"><g><path d="M 79.203125 0 L 57 0 L 53.203125 -25.40625 L 26.203125 -25.40625 L 22.40625 0 L 2.203125 0 L 24.59375 -140 L 56.796875 -140 Z M 29 -44.40625 L 50.203125 -44.40625 L 39.59375 -115.203125 Z M 29 -44.40625 "/></g></g></g><g fill="#414042" fill-opacity="1"><g transform="translate(613.560859, 207.605828)"><g><path d="M 8 -140 L 30 -140 L 30 -20 L 66.203125 -20 L 66.203125 0 L 8 0 Z M 8 -140 "/></g></g></g><g fill="#414042" fill-opacity="1"><g transform="translate(681.759034, 207.605828)"><g><path d="M 8 -140 L 30 -140 L 30 -20 L 66.203125 -20 L 66.203125 0 L 8 0 Z M 8 -140 "/></g></g></g><g fill="#414042" fill-opacity="1"><g transform="translate(749.957208, 207.605828)"><g><path d="M 8 -140 L 30 -140 L 30 0 L 8 0 Z M 8 -140 "/></g></g></g><g fill="#414042" fill-opacity="1"><g transform="translate(787.956166, 207.605828)"><g><path d="M 5.203125 -106.40625 C 5.203125 -117.738281 7.898438 -126.4375 13.296875 -132.5 C 18.703125 -138.5625 26.800781 -141.59375 37.59375 -141.59375 C 48.394531 -141.59375 56.492188 -138.5625 61.890625 -132.5 C 67.296875 -126.4375 70 -117.738281 70 -106.40625 L 70 -101 L 49.203125 -101 L 49.203125 -107.796875 C 49.203125 -112.867188 48.234375 -116.4375 46.296875 -118.5 C 44.367188 -120.5625 41.671875 -121.59375 38.203125 -121.59375 C 34.734375 -121.59375 32.03125 -120.5625 30.09375 -118.5 C 28.164062 -116.4375 27.203125 -112.867188 27.203125 -107.796875 C 27.203125 -102.992188 28.265625 -98.757812 30.390625 -95.09375 C 32.523438 -91.425781 35.191406 -87.957031 38.390625 -84.6875 C 41.597656 -81.425781 45.035156 -78.160156 48.703125 -74.890625 C 52.367188 -71.628906 55.800781 -68.066406 59 -64.203125 C 62.195312 -60.335938 64.863281 -55.9375 67 -51 C 69.132812 -46.0625 70.203125 -40.257812 70.203125 -33.59375 C 70.203125 -22.257812 67.429688 -13.5625 61.890625 -7.5 C 56.359375 -1.4375 48.195312 1.59375 37.40625 1.59375 C 26.601562 1.59375 18.429688 -1.4375 12.890625 -7.5 C 7.359375 -13.5625 4.59375 -22.257812 4.59375 -33.59375 L 4.59375 -43.203125 L 25.40625 -43.203125 L 25.40625 -32.203125 C 25.40625 -27.128906 26.4375 -23.59375 28.5 -21.59375 C 30.5625 -19.59375 33.328125 -18.59375 36.796875 -18.59375 C 40.265625 -18.59375 43.03125 -19.59375 45.09375 -21.59375 C 47.164062 -23.59375 48.203125 -27.128906 48.203125 -32.203125 C 48.203125 -37.003906 47.132812 -41.238281 45 -44.90625 C 42.863281 -48.570312 40.195312 -52.035156 37 -55.296875 C 33.800781 -58.566406 30.367188 -61.832031 26.703125 -65.09375 C 23.035156 -68.363281 19.597656 -71.929688 16.390625 -75.796875 C 13.191406 -79.660156 10.523438 -84.0625 8.390625 -89 C 6.265625 -93.9375 5.203125 -99.738281 5.203125 -106.40625 Z M 5.203125 -106.40625 "/></g></g></g><g fill="#414042" fill-opacity="1"><g transform="translate(862.754147, 207.605828)"><g><path d="M 2 -140 L 70 -140 L 70 -120 L 47 -120 L 47 0 L 25 0 L 25 -120 L 2 -120 Z M 2 -140 "/></g></g></g><g fill="#414042" fill-opacity="1"><g transform="translate(934.752218, 207.605828)"><g><path d="M 8 -140 L 30 -140 L 30 0 L 8 0 Z M 8 -140 "/></g></g></g><g fill="#414042" fill-opacity="1"><g transform="translate(972.751176, 207.605828)"><g><path d="M 71.796875 -52.203125 L 71.796875 -33.59375 C 71.796875 -22.257812 69.03125 -13.5625 63.5 -7.5 C 57.96875 -1.4375 49.800781 1.59375 39 1.59375 C 28.195312 1.59375 20.03125 -1.4375 14.5 -7.5 C 8.96875 -13.5625 6.203125 -22.257812 6.203125 -33.59375 L 6.203125 -106.40625 C 6.203125 -117.738281 8.96875 -126.4375 14.5 -132.5 C 20.03125 -138.5625 28.195312 -141.59375 39 -141.59375 C 49.800781 -141.59375 57.96875 -138.5625 63.5 -132.5 C 69.03125 -126.4375 71.796875 -117.738281 71.796875 -106.40625 L 71.796875 -92.796875 L 51 -92.796875 L 51 -107.796875 C 51 -112.867188 49.960938 -116.4375 47.890625 -118.5 C 45.828125 -120.5625 43.0625 -121.59375 39.59375 -121.59375 C 36.132812 -121.59375 33.367188 -120.5625 31.296875 -118.5 C 29.234375 -116.4375 28.203125 -112.867188 28.203125 -107.796875 L 28.203125 -32.203125 C 28.203125 -27.128906 29.234375 -23.59375 31.296875 -21.59375 C 33.367188 -19.59375 36.132812 -18.59375 39.59375 -18.59375 C 43.0625 -18.59375 45.828125 -19.59375 47.890625 -21.59375 C 49.960938 -23.59375 51 -27.128906 51 -32.203125 L 51 -52.203125 Z M 71.796875 -52.203125 "/></g></g></g><g fill="#414042" fill-opacity="1"><g transform="translate(1049.949121, 207.605828)"><g/></g></g><g fill="#414042" fill-opacity="1"><g transform="translate(1080.948278, 207.605828)"><g><path d="M 8 -140 L 30 -140 L 30 0 L 8 0 Z M 8 -140 "/></g></g></g><g fill="#414042" fill-opacity="1"><g transform="translate(1118.947236, 207.605828)"><g><path d="M 54.59375 -40.59375 L 69.59375 -140 L 100.203125 -140 L 100.203125 0 L 79.40625 0 L 79.40625 -100.40625 L 64.203125 0 L 43.40625 0 L 27 -99 L 27 0 L 7.796875 0 L 7.796875 -140 L 38.40625 -140 Z M 54.59375 -40.59375 "/></g></g></g><g fill="#414042" fill-opacity="1"><g transform="translate(1227.144338, 207.605828)"><g><path d="M 79.203125 0 L 57 0 L 53.203125 -25.40625 L 26.203125 -25.40625 L 22.40625 0 L 2.203125 0 L 24.59375 -140 L 56.796875 -140 Z M 29 -44.40625 L 50.203125 -44.40625 L 39.59375 -115.203125 Z M 29 -44.40625 "/></g></g></g><g fill="#414042" fill-opacity="1"><g transform="translate(1308.542127, 207.605828)"><g><path d="M 41 -78 L 71.796875 -78 L 71.796875 -33.59375 C 71.796875 -22.257812 69.03125 -13.5625 63.5 -7.5 C 57.96875 -1.4375 49.800781 1.59375 39 1.59375 C 28.195312 1.59375 20.03125 -1.4375 14.5 -7.5 C 8.96875 -13.5625 6.203125 -22.257812 6.203125 -33.59375 L 6.203125 -106.40625 C 6.203125 -117.738281 8.96875 -126.4375 14.5 -132.5 C 20.03125 -138.5625 28.195312 -141.59375 39 -141.59375 C 49.800781 -141.59375 57.96875 -138.5625 63.5 -132.5 C 69.03125 -126.4375 71.796875 -117.738281 71.796875 -106.40625 L 71.796875 -92.796875 L 51 -92.796875 L 51 -107.796875 C 51 -112.867188 49.960938 -116.4375 47.890625 -118.5 C 45.828125 -120.5625 43.0625 -121.59375 39.59375 -121.59375 C 36.132812 -121.59375 33.367188 -120.5625 31.296875 -118.5 C 29.234375 -116.4375 28.203125 -112.867188 28.203125 -107.796875 L 28.203125 -32.203125 C 28.203125 -27.128906 29.234375 -23.59375 31.296875 -21.59375 C 33.367188 -19.59375 36.132812 -18.59375 39.59375 -18.59375 C 43.0625 -18.59375 45.828125 -19.59375 47.890625 -21.59375 C 49.960938 -23.59375 51 -27.128906 51 -32.203125 L 51 -58 L 41 -58 Z M 41 -78 "/></g></g></g><g fill="#414042" fill-opacity="1"><g transform="translate(1386.540013, 207.605828)"><g><path d="M 30 -81 L 60.203125 -81 L 60.203125 -61 L 30 -61 L 30 -20 L 68 -20 L 68 0 L 8 0 L 8 -140 L 68 -140 L 68 -120 L 30 -120 Z M 30 -81 "/></g></g></g><g fill="#414042" fill-opacity="1"><g transform="translate(1460.138058, 207.605828)"><g><path d="M 54 0 C 53.726562 -0.9375 53.457031 -1.800781 53.1875 -2.59375 C 52.925781 -3.394531 52.695312 -4.394531 52.5 -5.59375 C 52.300781 -6.800781 52.164062 -8.335938 52.09375 -10.203125 C 52.03125 -12.066406 52 -14.398438 52 -17.203125 L 52 -39.203125 C 52 -45.734375 50.863281 -50.332031 48.59375 -53 C 46.332031 -55.664062 42.664062 -57 37.59375 -57 L 30 -57 L 30 0 L 8 0 L 8 -140 L 41.203125 -140 C 52.671875 -140 60.96875 -137.332031 66.09375 -132 C 71.226562 -126.664062 73.796875 -118.597656 73.796875 -107.796875 L 73.796875 -96.796875 C 73.796875 -82.398438 69 -72.9375 59.40625 -68.40625 C 65 -66.132812 68.828125 -62.429688 70.890625 -57.296875 C 72.960938 -52.160156 74 -45.925781 74 -38.59375 L 74 -17 C 74 -13.53125 74.128906 -10.492188 74.390625 -7.890625 C 74.660156 -5.296875 75.332031 -2.664062 76.40625 0 Z M 30 -120 L 30 -77 L 38.59375 -77 C 42.726562 -77 45.960938 -78.066406 48.296875 -80.203125 C 50.628906 -82.335938 51.796875 -86.203125 51.796875 -91.796875 L 51.796875 -105.59375 C 51.796875 -110.664062 50.894531 -114.332031 49.09375 -116.59375 C 47.300781 -118.863281 44.46875 -120 40.59375 -120 Z M 30 -120 "/></g></g></g></svg>