<svg xmlns="http://www.w3.org/2000/svg" xmlns:xlink="http://www.w3.org/1999/xlink" width="2240" zoomAndPan="magnify" viewBox="0 0 1680 284.999983" height="380" preserveAspectRatio="xMidYMid meet" version="1.0"><defs><g/></defs><path fill="#414042" d="M 443.558594 208.046875 C 443.558594 215.25 438.375 218.15625 436.226562 219.167969 C 434.074219 220.054688 428.386719 221.695312 423.203125 216.769531 L 391.09375 185.808594 L 403.734375 173.675781 C 412.964844 164.832031 418.019531 152.953125 418.019531 140.191406 C 418.019531 127.429688 412.964844 115.550781 403.734375 106.703125 L 333.191406 38.847656 C 319.539062 25.703125 300.195312 22.167969 282.75 29.621094 C 265.304688 37.078125 254.433594 53.378906 254.433594 72.332031 L 254.433594 207.921875 C 254.433594 226.878906 265.304688 243.179688 282.75 250.632812 C 288.820312 253.160156 295.015625 254.425781 301.207031 254.425781 C 312.839844 254.425781 324.21875 249.875 333.191406 241.410156 L 358.476562 217.148438 L 333.699219 193.265625 L 309.425781 216.640625 C 304.242188 221.570312 298.554688 219.925781 296.40625 219.042969 C 294.253906 218.15625 289.070312 215.125 289.070312 207.921875 L 289.070312 72.460938 C 289.070312 65.257812 294.253906 62.351562 296.40625 61.339844 C 297.414062 60.960938 299.1875 60.328125 301.335938 60.328125 C 303.738281 60.328125 306.644531 61.085938 309.425781 63.738281 L 341.535156 94.699219 L 328.894531 106.832031 C 319.664062 115.675781 314.609375 127.554688 314.609375 140.316406 C 314.609375 153.078125 319.664062 164.957031 328.894531 173.804688 L 399.4375 241.660156 C 408.414062 250.253906 419.664062 254.675781 431.421875 254.675781 C 437.617188 254.675781 443.808594 253.414062 449.878906 250.886719 C 467.324219 243.429688 478.195312 227.128906 478.195312 208.175781 L 478.195312 131.851562 L 443.558594 164.707031 Z M 379.714844 148.910156 L 366.1875 161.925781 L 352.660156 148.910156 C 350.257812 146.636719 348.996094 143.476562 348.996094 140.191406 C 348.996094 136.90625 350.257812 133.746094 352.660156 131.472656 L 366.1875 118.457031 L 379.714844 131.472656 C 382.117188 133.746094 383.382812 136.90625 383.382812 140.191406 C 383.382812 143.601562 382.117188 146.636719 379.714844 148.910156 Z M 477.945312 72.460938 L 477.945312 115.675781 L 443.558594 115.675781 L 443.558594 72.460938 C 443.558594 65.257812 438.375 62.351562 436.226562 61.339844 C 435.214844 60.960938 433.445312 60.328125 431.292969 60.328125 C 428.894531 60.328125 425.984375 61.085938 423.203125 63.738281 L 398.679688 87.242188 L 374.027344 63.234375 L 399.308594 38.847656 C 412.964844 25.703125 432.304688 22.167969 449.75 29.621094 C 467.070312 37.078125 477.945312 53.503906 477.945312 72.460938 Z M 477.945312 72.460938 " fill-opacity="1" fill-rule="nonzero"/><g fill="#414042" fill-opacity="1"><g transform="translate(532.417964, 207.605828)"><g><path d="M 71.796875 -52.203125 L 71.796875 -33.59375 C 71.796875 -22.257812 69.03125 -13.5625 63.5 -7.5 C 57.96875 -1.4375 49.800781 1.59375 39 1.59375 C 28.195312 1.59375 20.03125 -1.4375 14.5 -7.5 C 8.96875 -13.5625 6.203125 -22.257812 6.203125 -33.59375 L 6.203125 -106.40625 C 6.203125 -117.738281 8.96875 -126.4375 14.5 -132.5 C 20.03125 -138.5625 28.195312 -141.59375 39 -141.59375 C 49.800781 -141.59375 57.96875 -138.5625 63.5 -132.5 C 69.03125 -126.4375 71.796875 -117.738281 71.796875 -106.40625 L 71.796875 -92.796875 L 51 -92.796875 L 51 -107.796875 C 51 -112.867188 49.960938 -116.4375 47.890625 -118.5 C 45.828125 -120.5625 43.0625 -121.59375 39.59375 -121.59375 C 36.132812 -121.59375 33.367188 -120.5625 31.296875 -118.5 C 29.234375 -116.4375 28.203125 -112.867188 28.203125 -107.796875 L 28.203125 -32.203125 C 28.203125 -27.128906 29.234375 -23.59375 31.296875 -21.59375 C 33.367188 -19.59375 36.132812 -18.59375 39.59375 -18.59375 C 43.0625 -18.59375 45.828125 -19.59375 47.890625 -21.59375 C 49.960938 -23.59375 51 -27.128906 51 -32.203125 L 51 -52.203125 Z M 71.796875 -52.203125 "/></g></g></g><g fill="#414042" fill-opacity="1"><g transform="translate(609.615909, 207.605828)"><g><path d="M 79.203125 0 L 57 0 L 53.203125 -25.40625 L 26.203125 -25.40625 L 22.40625 0 L 2.203125 0 L 24.59375 -140 L 56.796875 -140 Z M 29 -44.40625 L 50.203125 -44.40625 L 39.59375 -115.203125 Z M 29 -44.40625 "/></g></g></g><g fill="#414042" fill-opacity="1"><g transform="translate(691.013731, 207.605828)"><g><path d="M 5.203125 -106.40625 C 5.203125 -117.738281 7.898438 -126.4375 13.296875 -132.5 C 18.703125 -138.5625 26.800781 -141.59375 37.59375 -141.59375 C 48.394531 -141.59375 56.492188 -138.5625 61.890625 -132.5 C 67.296875 -126.4375 70 -117.738281 70 -106.40625 L 70 -101 L 49.203125 -101 L 49.203125 -107.796875 C 49.203125 -112.867188 48.234375 -116.4375 46.296875 -118.5 C 44.367188 -120.5625 41.671875 -121.59375 38.203125 -121.59375 C 34.734375 -121.59375 32.03125 -120.5625 30.09375 -118.5 C 28.164062 -116.4375 27.203125 -112.867188 27.203125 -107.796875 C 27.203125 -102.992188 28.265625 -98.757812 30.390625 -95.09375 C 32.523438 -91.425781 35.191406 -87.957031 38.390625 -84.6875 C 41.597656 -81.425781 45.035156 -78.160156 48.703125 -74.890625 C 52.367188 -71.628906 55.800781 -68.066406 59 -64.203125 C 62.195312 -60.335938 64.863281 -55.9375 67 -51 C 69.132812 -46.0625 70.203125 -40.257812 70.203125 -33.59375 C 70.203125 -22.257812 67.429688 -13.5625 61.890625 -7.5 C 56.359375 -1.4375 48.195312 1.59375 37.40625 1.59375 C 26.601562 1.59375 18.429688 -1.4375 12.890625 -7.5 C 7.359375 -13.5625 4.59375 -22.257812 4.59375 -33.59375 L 4.59375 -43.203125 L 25.40625 -43.203125 L 25.40625 -32.203125 C 25.40625 -27.128906 26.4375 -23.59375 28.5 -21.59375 C 30.5625 -19.59375 33.328125 -18.59375 36.796875 -18.59375 C 40.265625 -18.59375 43.03125 -19.59375 45.09375 -21.59375 C 47.164062 -23.59375 48.203125 -27.128906 48.203125 -32.203125 C 48.203125 -37.003906 47.132812 -41.238281 45 -44.90625 C 42.863281 -48.570312 40.195312 -52.035156 37 -55.296875 C 33.800781 -58.566406 30.367188 -61.832031 26.703125 -65.09375 C 23.035156 -68.363281 19.597656 -71.929688 16.390625 -75.796875 C 13.191406 -79.660156 10.523438 -84.0625 8.390625 -89 C 6.265625 -93.9375 5.203125 -99.738281 5.203125 -106.40625 Z M 5.203125 -106.40625 "/></g></g></g><g fill="#414042" fill-opacity="1"><g transform="translate(765.811724, 207.605828)"><g><path d="M 30 -81 L 60.203125 -81 L 60.203125 -61 L 30 -61 L 30 -20 L 68 -20 L 68 0 L 8 0 L 8 -140 L 68 -140 L 68 -120 L 30 -120 Z M 30 -81 "/></g></g></g><g fill="#414042" fill-opacity="1"><g transform="translate(839.409723, 207.605828)"><g/></g></g><g fill="#414042" fill-opacity="1"><g transform="translate(870.408881, 207.605828)"><g><path d="M 54.59375 -40.59375 L 69.59375 -140 L 100.203125 -140 L 100.203125 0 L 79.40625 0 L 79.40625 -100.40625 L 64.203125 0 L 43.40625 0 L 27 -99 L 27 0 L 7.796875 0 L 7.796875 -140 L 38.40625 -140 Z M 54.59375 -40.59375 "/></g></g></g><g fill="#414042" fill-opacity="1"><g transform="translate(978.606028, 207.605828)"><g><path d="M 79.203125 0 L 57 0 L 53.203125 -25.40625 L 26.203125 -25.40625 L 22.40625 0 L 2.203125 0 L 24.59375 -140 L 56.796875 -140 Z M 29 -44.40625 L 50.203125 -44.40625 L 39.59375 -115.203125 Z M 29 -44.40625 "/></g></g></g><g fill="#414042" fill-opacity="1"><g transform="translate(1060.003863, 207.605828)"><g><path d="M 27.59375 -101.40625 L 27.59375 0 L 7.796875 0 L 7.796875 -140 L 35.40625 -140 L 58 -56.203125 L 58 -140 L 77.59375 -140 L 77.59375 0 L 55 0 Z M 27.59375 -101.40625 "/></g></g></g><g fill="#414042" fill-opacity="1"><g transform="translate(1145.401589, 207.605828)"><g><path d="M 79.203125 0 L 57 0 L 53.203125 -25.40625 L 26.203125 -25.40625 L 22.40625 0 L 2.203125 0 L 24.59375 -140 L 56.796875 -140 Z M 29 -44.40625 L 50.203125 -44.40625 L 39.59375 -115.203125 Z M 29 -44.40625 "/></g></g></g><g fill="#414042" fill-opacity="1"><g transform="translate(1226.799424, 207.605828)"><g><path d="M 41 -78 L 71.796875 -78 L 71.796875 -33.59375 C 71.796875 -22.257812 69.03125 -13.5625 63.5 -7.5 C 57.96875 -1.4375 49.800781 1.59375 39 1.59375 C 28.195312 1.59375 20.03125 -1.4375 14.5 -7.5 C 8.96875 -13.5625 6.203125 -22.257812 6.203125 -33.59375 L 6.203125 -106.40625 C 6.203125 -117.738281 8.96875 -126.4375 14.5 -132.5 C 20.03125 -138.5625 28.195312 -141.59375 39 -141.59375 C 49.800781 -141.59375 57.96875 -138.5625 63.5 -132.5 C 69.03125 -126.4375 71.796875 -117.738281 71.796875 -106.40625 L 71.796875 -92.796875 L 51 -92.796875 L 51 -107.796875 C 51 -112.867188 49.960938 -116.4375 47.890625 -118.5 C 45.828125 -120.5625 43.0625 -121.59375 39.59375 -121.59375 C 36.132812 -121.59375 33.367188 -120.5625 31.296875 -118.5 C 29.234375 -116.4375 28.203125 -112.867188 28.203125 -107.796875 L 28.203125 -32.203125 C 28.203125 -27.128906 29.234375 -23.59375 31.296875 -21.59375 C 33.367188 -19.59375 36.132812 -18.59375 39.59375 -18.59375 C 43.0625 -18.59375 45.828125 -19.59375 47.890625 -21.59375 C 49.960938 -23.59375 51 -27.128906 51 -32.203125 L 51 -58 L 41 -58 Z M 41 -78 "/></g></g></g><g fill="#414042" fill-opacity="1"><g transform="translate(1304.79731, 207.605828)"><g><path d="M 30 -81 L 60.203125 -81 L 60.203125 -61 L 30 -61 L 30 -20 L 68 -20 L 68 0 L 8 0 L 8 -140 L 68 -140 L 68 -120 L 30 -120 Z M 30 -81 "/></g></g></g><g fill="#414042" fill-opacity="1"><g transform="translate(1378.395355, 207.605828)"><g><path d="M 54 0 C 53.726562 -0.9375 53.457031 -1.800781 53.1875 -2.59375 C 52.925781 -3.394531 52.695312 -4.394531 52.5 -5.59375 C 52.300781 -6.800781 52.164062 -8.335938 52.09375 -10.203125 C 52.03125 -12.066406 52 -14.398438 52 -17.203125 L 52 -39.203125 C 52 -45.734375 50.863281 -50.332031 48.59375 -53 C 46.332031 -55.664062 42.664062 -57 37.59375 -57 L 30 -57 L 30 0 L 8 0 L 8 -140 L 41.203125 -140 C 52.671875 -140 60.96875 -137.332031 66.09375 -132 C 71.226562 -126.664062 73.796875 -118.597656 73.796875 -107.796875 L 73.796875 -96.796875 C 73.796875 -82.398438 69 -72.9375 59.40625 -68.40625 C 65 -66.132812 68.828125 -62.429688 70.890625 -57.296875 C 72.960938 -52.160156 74 -45.925781 74 -38.59375 L 74 -17 C 74 -13.53125 74.128906 -10.492188 74.390625 -7.890625 C 74.660156 -5.296875 75.332031 -2.664062 76.40625 0 Z M 30 -120 L 30 -77 L 38.59375 -77 C 42.726562 -77 45.960938 -78.066406 48.296875 -80.203125 C 50.628906 -82.335938 51.796875 -86.203125 51.796875 -91.796875 L 51.796875 -105.59375 C 51.796875 -110.664062 50.894531 -114.332031 49.09375 -116.59375 C 47.300781 -118.863281 44.46875 -120 40.59375 -120 Z M 30 -120 "/></g></g></g></svg>