<svg xmlns="http://www.w3.org/2000/svg" xmlns:xlink="http://www.w3.org/1999/xlink" width="2240" zoomAndPan="magnify" viewBox="0 0 1680 284.999983" height="380" preserveAspectRatio="xMidYMid meet" version="1.0"><defs><g/></defs><path fill="#414042" d="M 408.761719 208.046875 C 408.761719 215.25 403.578125 218.15625 401.429688 219.167969 C 399.277344 220.054688 393.589844 221.695312 388.40625 216.769531 L 356.296875 185.808594 L 368.9375 173.675781 C 378.167969 164.832031 383.222656 152.953125 383.222656 140.191406 C 383.222656 127.429688 378.167969 115.550781 368.9375 106.703125 L 298.394531 38.847656 C 284.742188 25.703125 265.398438 22.164062 247.953125 29.621094 C 230.507812 37.078125 219.636719 53.378906 219.636719 72.332031 L 219.636719 207.921875 C 219.636719 226.878906 230.507812 243.179688 247.953125 250.632812 C 254.023438 253.160156 260.21875 254.425781 266.410156 254.425781 C 278.042969 254.425781 289.421875 249.875 298.394531 241.410156 L 323.679688 217.148438 L 298.902344 193.265625 L 274.628906 216.640625 C 269.445312 221.570312 263.757812 219.925781 261.609375 219.042969 C 259.457031 218.15625 254.277344 215.125 254.277344 207.921875 L 254.277344 72.460938 C 254.277344 65.257812 259.457031 62.351562 261.609375 61.339844 C 262.617188 60.960938 264.390625 60.328125 266.539062 60.328125 C 268.941406 60.328125 271.847656 61.085938 274.628906 63.738281 L 306.738281 94.699219 L 294.097656 106.832031 C 284.867188 115.675781 279.8125 127.554688 279.8125 140.316406 C 279.8125 153.078125 284.867188 164.957031 294.097656 173.804688 L 364.640625 241.660156 C 373.617188 250.253906 384.867188 254.675781 396.625 254.675781 C 402.820312 254.675781 409.011719 253.414062 415.082031 250.886719 C 432.527344 243.429688 443.398438 227.128906 443.398438 208.175781 L 443.398438 131.851562 L 408.761719 164.707031 Z M 344.917969 148.910156 L 331.390625 161.925781 L 317.863281 148.910156 C 315.460938 146.636719 314.199219 143.476562 314.199219 140.191406 C 314.199219 136.90625 315.460938 133.746094 317.863281 131.472656 L 331.390625 118.457031 L 344.917969 131.472656 C 347.320312 133.746094 348.585938 136.90625 348.585938 140.191406 C 348.585938 143.601562 347.320312 146.636719 344.917969 148.910156 Z M 443.148438 72.460938 L 443.148438 115.675781 L 408.761719 115.675781 L 408.761719 72.460938 C 408.761719 65.257812 403.578125 62.351562 401.429688 61.339844 C 400.417969 60.960938 398.648438 60.328125 396.496094 60.328125 C 394.097656 60.328125 391.1875 61.085938 388.40625 63.738281 L 363.882812 87.242188 L 339.230469 63.234375 L 364.515625 38.847656 C 378.167969 25.703125 397.507812 22.164062 414.957031 29.621094 C 432.273438 37.078125 443.148438 53.503906 443.148438 72.460938 Z M 443.148438 72.460938 " fill-opacity="1" fill-rule="nonzero"/><g fill="#414042" fill-opacity="1"><g transform="translate(496.210608, 207.605828)"><g><path d="M 71.796875 -52.203125 L 71.796875 -33.59375 C 71.796875 -22.257812 69.03125 -13.5625 63.5 -7.5 C 57.96875 -1.4375 49.800781 1.59375 39 1.59375 C 28.195312 1.59375 20.03125 -1.4375 14.5 -7.5 C 8.96875 -13.5625 6.203125 -22.257812 6.203125 -33.59375 L 6.203125 -106.40625 C 6.203125 -117.738281 8.96875 -126.4375 14.5 -132.5 C 20.03125 -138.5625 28.195312 -141.59375 39 -141.59375 C 49.800781 -141.59375 57.96875 -138.5625 63.5 -132.5 C 69.03125 -126.4375 71.796875 -117.738281 71.796875 -106.40625 L 71.796875 -92.796875 L 51 -92.796875 L 51 -107.796875 C 51 -112.867188 49.960938 -116.4375 47.890625 -118.5 C 45.828125 -120.5625 43.0625 -121.59375 39.59375 -121.59375 C 36.132812 -121.59375 33.367188 -120.5625 31.296875 -118.5 C 29.234375 -116.4375 28.203125 -112.867188 28.203125 -107.796875 L 28.203125 -32.203125 C 28.203125 -27.128906 29.234375 -23.59375 31.296875 -21.59375 C 33.367188 -19.59375 36.132812 -18.59375 39.59375 -18.59375 C 43.0625 -18.59375 45.828125 -19.59375 47.890625 -21.59375 C 49.960938 -23.59375 51 -27.128906 51 -32.203125 L 51 -52.203125 Z M 71.796875 -52.203125 "/></g></g></g><g fill="#414042" fill-opacity="1"><g transform="translate(573.408552, 207.605828)"><g><path d="M 28.59375 -46.40625 L 0.796875 -140 L 23.796875 -140 L 40.59375 -76.203125 L 57.40625 -140 L 78.40625 -140 L 50.59375 -46.40625 L 50.59375 0 L 28.59375 0 Z M 28.59375 -46.40625 "/></g></g></g><g fill="#414042" fill-opacity="1"><g transform="translate(652.606443, 207.605828)"><g><path d="M 41.203125 -140 C 52.671875 -140 60.96875 -137.332031 66.09375 -132 C 71.226562 -126.664062 73.796875 -118.597656 73.796875 -107.796875 L 73.796875 -102.796875 C 73.796875 -95.597656 72.660156 -89.664062 70.390625 -85 C 68.128906 -80.332031 64.53125 -76.863281 59.59375 -74.59375 C 65.59375 -72.332031 69.828125 -68.632812 72.296875 -63.5 C 74.765625 -58.363281 76 -52.0625 76 -44.59375 L 76 -33.203125 C 76 -22.398438 73.195312 -14.164062 67.59375 -8.5 C 62 -2.832031 53.664062 0 42.59375 0 L 8 0 L 8 -140 Z M 30 -63 L 30 -20 L 42.59375 -20 C 46.332031 -20 49.164062 -21 51.09375 -23 C 53.03125 -25 54 -28.597656 54 -33.796875 L 54 -46 C 54 -52.53125 52.898438 -56.992188 50.703125 -59.390625 C 48.503906 -61.796875 44.867188 -63 39.796875 -63 Z M 30 -120 L 30 -83 L 38.59375 -83 C 42.726562 -83 45.960938 -84.066406 48.296875 -86.203125 C 50.628906 -88.335938 51.796875 -92.203125 51.796875 -97.796875 L 51.796875 -105.59375 C 51.796875 -110.664062 50.894531 -114.332031 49.09375 -116.59375 C 47.300781 -118.863281 44.46875 -120 40.59375 -120 Z M 30 -120 "/></g></g></g><g fill="#414042" fill-opacity="1"><g transform="translate(733.804303, 207.605828)"><g><path d="M 30 -81 L 60.203125 -81 L 60.203125 -61 L 30 -61 L 30 -20 L 68 -20 L 68 0 L 8 0 L 8 -140 L 68 -140 L 68 -120 L 30 -120 Z M 30 -81 "/></g></g></g><g fill="#414042" fill-opacity="1"><g transform="translate(807.402302, 207.605828)"><g><path d="M 54 0 C 53.726562 -0.9375 53.457031 -1.800781 53.1875 -2.59375 C 52.925781 -3.394531 52.695312 -4.394531 52.5 -5.59375 C 52.300781 -6.800781 52.164062 -8.335938 52.09375 -10.203125 C 52.03125 -12.066406 52 -14.398438 52 -17.203125 L 52 -39.203125 C 52 -45.734375 50.863281 -50.332031 48.59375 -53 C 46.332031 -55.664062 42.664062 -57 37.59375 -57 L 30 -57 L 30 0 L 8 0 L 8 -140 L 41.203125 -140 C 52.671875 -140 60.96875 -137.332031 66.09375 -132 C 71.226562 -126.664062 73.796875 -118.597656 73.796875 -107.796875 L 73.796875 -96.796875 C 73.796875 -82.398438 69 -72.9375 59.40625 -68.40625 C 65 -66.132812 68.828125 -62.429688 70.890625 -57.296875 C 72.960938 -52.160156 74 -45.925781 74 -38.59375 L 74 -17 C 74 -13.53125 74.128906 -10.492188 74.390625 -7.890625 C 74.660156 -5.296875 75.332031 -2.664062 76.40625 0 Z M 30 -120 L 30 -77 L 38.59375 -77 C 42.726562 -77 45.960938 -78.066406 48.296875 -80.203125 C 50.628906 -82.335938 51.796875 -86.203125 51.796875 -91.796875 L 51.796875 -105.59375 C 51.796875 -110.664062 50.894531 -114.332031 49.09375 -116.59375 C 47.300781 -118.863281 44.46875 -120 40.59375 -120 Z M 30 -120 "/></g></g></g><g fill="#414042" fill-opacity="1"><g transform="translate(887.800106, 207.605828)"><g/></g></g><g fill="#414042" fill-opacity="1"><g transform="translate(918.799264, 207.605828)"><g><path d="M 5.203125 -106.40625 C 5.203125 -117.738281 7.898438 -126.4375 13.296875 -132.5 C 18.703125 -138.5625 26.800781 -141.59375 37.59375 -141.59375 C 48.394531 -141.59375 56.492188 -138.5625 61.890625 -132.5 C 67.296875 -126.4375 70 -117.738281 70 -106.40625 L 70 -101 L 49.203125 -101 L 49.203125 -107.796875 C 49.203125 -112.867188 48.234375 -116.4375 46.296875 -118.5 C 44.367188 -120.5625 41.671875 -121.59375 38.203125 -121.59375 C 34.734375 -121.59375 32.03125 -120.5625 30.09375 -118.5 C 28.164062 -116.4375 27.203125 -112.867188 27.203125 -107.796875 C 27.203125 -102.992188 28.265625 -98.757812 30.390625 -95.09375 C 32.523438 -91.425781 35.191406 -87.957031 38.390625 -84.6875 C 41.597656 -81.425781 45.035156 -78.160156 48.703125 -74.890625 C 52.367188 -71.628906 55.800781 -68.066406 59 -64.203125 C 62.195312 -60.335938 64.863281 -55.9375 67 -51 C 69.132812 -46.0625 70.203125 -40.257812 70.203125 -33.59375 C 70.203125 -22.257812 67.429688 -13.5625 61.890625 -7.5 C 56.359375 -1.4375 48.195312 1.59375 37.40625 1.59375 C 26.601562 1.59375 18.429688 -1.4375 12.890625 -7.5 C 7.359375 -13.5625 4.59375 -22.257812 4.59375 -33.59375 L 4.59375 -43.203125 L 25.40625 -43.203125 L 25.40625 -32.203125 C 25.40625 -27.128906 26.4375 -23.59375 28.5 -21.59375 C 30.5625 -19.59375 33.328125 -18.59375 36.796875 -18.59375 C 40.265625 -18.59375 43.03125 -19.59375 45.09375 -21.59375 C 47.164062 -23.59375 48.203125 -27.128906 48.203125 -32.203125 C 48.203125 -37.003906 47.132812 -41.238281 45 -44.90625 C 42.863281 -48.570312 40.195312 -52.035156 37 -55.296875 C 33.800781 -58.566406 30.367188 -61.832031 26.703125 -65.09375 C 23.035156 -68.363281 19.597656 -71.929688 16.390625 -75.796875 C 13.191406 -79.660156 10.523438 -84.0625 8.390625 -89 C 6.265625 -93.9375 5.203125 -99.738281 5.203125 -106.40625 Z M 5.203125 -106.40625 "/></g></g></g><g fill="#414042" fill-opacity="1"><g transform="translate(993.597245, 207.605828)"><g><path d="M 30 -81 L 60.203125 -81 L 60.203125 -61 L 30 -61 L 30 -20 L 68 -20 L 68 0 L 8 0 L 8 -140 L 68 -140 L 68 -120 L 30 -120 Z M 30 -81 "/></g></g></g><g fill="#414042" fill-opacity="1"><g transform="translate(1067.195244, 207.605828)"><g><path d="M 71.796875 -52.203125 L 71.796875 -33.59375 C 71.796875 -22.257812 69.03125 -13.5625 63.5 -7.5 C 57.96875 -1.4375 49.800781 1.59375 39 1.59375 C 28.195312 1.59375 20.03125 -1.4375 14.5 -7.5 C 8.96875 -13.5625 6.203125 -22.257812 6.203125 -33.59375 L 6.203125 -106.40625 C 6.203125 -117.738281 8.96875 -126.4375 14.5 -132.5 C 20.03125 -138.5625 28.195312 -141.59375 39 -141.59375 C 49.800781 -141.59375 57.96875 -138.5625 63.5 -132.5 C 69.03125 -126.4375 71.796875 -117.738281 71.796875 -106.40625 L 71.796875 -92.796875 L 51 -92.796875 L 51 -107.796875 C 51 -112.867188 49.960938 -116.4375 47.890625 -118.5 C 45.828125 -120.5625 43.0625 -121.59375 39.59375 -121.59375 C 36.132812 -121.59375 33.367188 -120.5625 31.296875 -118.5 C 29.234375 -116.4375 28.203125 -112.867188 28.203125 -107.796875 L 28.203125 -32.203125 C 28.203125 -27.128906 29.234375 -23.59375 31.296875 -21.59375 C 33.367188 -19.59375 36.132812 -18.59375 39.59375 -18.59375 C 43.0625 -18.59375 45.828125 -19.59375 47.890625 -21.59375 C 49.960938 -23.59375 51 -27.128906 51 -32.203125 L 51 -52.203125 Z M 71.796875 -52.203125 "/></g></g></g><g fill="#414042" fill-opacity="1"><g transform="translate(1144.393189, 207.605828)"><g><path d="M 29 -140 L 29 -32 C 29 -26.9375 30.03125 -23.40625 32.09375 -21.40625 C 34.164062 -19.40625 36.9375 -18.40625 40.40625 -18.40625 C 43.863281 -18.40625 46.625 -19.40625 48.6875 -21.40625 C 50.757812 -23.40625 51.796875 -26.9375 51.796875 -32 L 51.796875 -140 L 72.59375 -140 L 72.59375 -33.40625 C 72.59375 -22.070312 69.828125 -13.367188 64.296875 -7.296875 C 58.765625 -1.234375 50.597656 1.796875 39.796875 1.796875 C 28.992188 1.796875 20.828125 -1.234375 15.296875 -7.296875 C 9.765625 -13.367188 7 -22.070312 7 -33.40625 L 7 -140 Z M 29 -140 "/></g></g></g><g fill="#414042" fill-opacity="1"><g transform="translate(1223.991051, 207.605828)"><g><path d="M 54 0 C 53.726562 -0.9375 53.457031 -1.800781 53.1875 -2.59375 C 52.925781 -3.394531 52.695312 -4.394531 52.5 -5.59375 C 52.300781 -6.800781 52.164062 -8.335938 52.09375 -10.203125 C 52.03125 -12.066406 52 -14.398438 52 -17.203125 L 52 -39.203125 C 52 -45.734375 50.863281 -50.332031 48.59375 -53 C 46.332031 -55.664062 42.664062 -57 37.59375 -57 L 30 -57 L 30 0 L 8 0 L 8 -140 L 41.203125 -140 C 52.671875 -140 60.96875 -137.332031 66.09375 -132 C 71.226562 -126.664062 73.796875 -118.597656 73.796875 -107.796875 L 73.796875 -96.796875 C 73.796875 -82.398438 69 -72.9375 59.40625 -68.40625 C 65 -66.132812 68.828125 -62.429688 70.890625 -57.296875 C 72.960938 -52.160156 74 -45.925781 74 -38.59375 L 74 -17 C 74 -13.53125 74.128906 -10.492188 74.390625 -7.890625 C 74.660156 -5.296875 75.332031 -2.664062 76.40625 0 Z M 30 -120 L 30 -77 L 38.59375 -77 C 42.726562 -77 45.960938 -78.066406 48.296875 -80.203125 C 50.628906 -82.335938 51.796875 -86.203125 51.796875 -91.796875 L 51.796875 -105.59375 C 51.796875 -110.664062 50.894531 -114.332031 49.09375 -116.59375 C 47.300781 -118.863281 44.46875 -120 40.59375 -120 Z M 30 -120 "/></g></g></g><g fill="#414042" fill-opacity="1"><g transform="translate(1304.3889, 207.605828)"><g><path d="M 8 -140 L 30 -140 L 30 0 L 8 0 Z M 8 -140 "/></g></g></g><g fill="#414042" fill-opacity="1"><g transform="translate(1342.387859, 207.605828)"><g><path d="M 2 -140 L 70 -140 L 70 -120 L 47 -120 L 47 0 L 25 0 L 25 -120 L 2 -120 Z M 2 -140 "/></g></g></g><g fill="#414042" fill-opacity="1"><g transform="translate(1414.385929, 207.605828)"><g><path d="M 28.59375 -46.40625 L 0.796875 -140 L 23.796875 -140 L 40.59375 -76.203125 L 57.40625 -140 L 78.40625 -140 L 50.59375 -46.40625 L 50.59375 0 L 28.59375 0 Z M 28.59375 -46.40625 "/></g></g></g></svg>