<svg xmlns="http://www.w3.org/2000/svg" xmlns:xlink="http://www.w3.org/1999/xlink" width="2240" zoomAndPan="magnify" viewBox="0 0 1680 284.999983" height="380" preserveAspectRatio="xMidYMid meet" version="1.0"><defs><g/></defs><path fill="#414042" d="M 444.195312 208.046875 C 444.195312 215.25 439.011719 218.15625 436.863281 219.167969 C 434.714844 220.054688 429.027344 221.695312 423.84375 216.769531 L 391.730469 185.808594 L 404.375 173.675781 C 413.601562 164.832031 418.660156 152.953125 418.660156 140.191406 C 418.660156 127.429688 413.601562 115.550781 404.375 106.703125 L 333.832031 38.847656 C 320.179688 25.703125 300.835938 22.164062 283.390625 29.621094 C 265.945312 37.078125 255.070312 53.378906 255.070312 72.332031 L 255.070312 207.921875 C 255.070312 226.878906 265.945312 243.179688 283.390625 250.632812 C 289.457031 253.160156 295.652344 254.425781 301.847656 254.425781 C 313.476562 254.425781 324.855469 249.875 333.832031 241.410156 L 359.117188 217.148438 L 334.335938 193.265625 L 310.066406 216.640625 C 304.882812 221.570312 299.191406 219.925781 297.042969 219.042969 C 294.894531 218.15625 289.710938 215.125 289.710938 207.921875 L 289.710938 72.460938 C 289.710938 65.257812 294.894531 62.351562 297.042969 61.339844 C 298.054688 60.960938 299.824219 60.328125 301.972656 60.328125 C 304.375 60.328125 307.285156 61.085938 310.066406 63.738281 L 342.175781 94.699219 L 329.535156 106.832031 C 320.304688 115.675781 315.25 127.554688 315.25 140.316406 C 315.25 153.078125 320.304688 164.957031 329.535156 173.804688 L 400.074219 241.660156 C 409.050781 250.253906 420.304688 254.675781 432.058594 254.675781 C 438.253906 254.675781 444.449219 253.414062 450.519531 250.886719 C 467.964844 243.429688 478.835938 227.128906 478.835938 208.175781 L 478.835938 131.851562 L 444.195312 164.707031 Z M 380.355469 148.910156 L 366.828125 161.925781 L 353.300781 148.910156 C 350.898438 146.636719 349.632812 143.476562 349.632812 140.191406 C 349.632812 136.90625 350.898438 133.746094 353.300781 131.472656 L 366.828125 118.457031 L 380.355469 131.472656 C 382.757812 133.746094 384.019531 136.90625 384.019531 140.191406 C 384.019531 143.601562 382.757812 146.636719 380.355469 148.910156 Z M 478.582031 72.460938 L 478.582031 115.675781 L 444.195312 115.675781 L 444.195312 72.460938 C 444.195312 65.257812 439.011719 62.351562 436.863281 61.339844 C 435.851562 60.960938 434.082031 60.328125 431.933594 60.328125 C 429.53125 60.328125 426.625 61.085938 423.84375 63.738281 L 399.316406 87.242188 L 374.664062 63.234375 L 399.949219 38.847656 C 413.601562 25.703125 432.945312 22.164062 450.390625 29.621094 C 467.710938 37.078125 478.582031 53.503906 478.582031 72.460938 Z M 478.582031 72.460938 " fill-opacity="1" fill-rule="nonzero"/><g fill="#414042" fill-opacity="1"><g transform="translate(536.770844, 207.605828)"><g><path d="M 8 -140 L 42.796875 -140 C 53.867188 -140 62.101562 -137.066406 67.5 -131.203125 C 72.894531 -125.335938 75.59375 -116.738281 75.59375 -105.40625 L 75.59375 -34.59375 C 75.59375 -23.257812 72.894531 -14.660156 67.5 -8.796875 C 62.101562 -2.929688 53.867188 0 42.796875 0 L 8 0 Z M 30 -120 L 30 -20 L 42.40625 -20 C 45.863281 -20 48.59375 -21 50.59375 -23 C 52.59375 -25 53.59375 -28.53125 53.59375 -33.59375 L 53.59375 -106.40625 C 53.59375 -111.46875 52.59375 -115 50.59375 -117 C 48.59375 -119 45.863281 -120 42.40625 -120 Z M 30 -120 "/></g></g></g><g fill="#414042" fill-opacity="1"><g transform="translate(618.368652, 207.605828)"><g><path d="M 30 -81 L 60.203125 -81 L 60.203125 -61 L 30 -61 L 30 -20 L 68 -20 L 68 0 L 8 0 L 8 -140 L 68 -140 L 68 -120 L 30 -120 Z M 30 -81 "/></g></g></g><g fill="#414042" fill-opacity="1"><g transform="translate(691.966664, 207.605828)"><g><path d="M 2 -140 L 70 -140 L 70 -120 L 47 -120 L 47 0 L 25 0 L 25 -120 L 2 -120 Z M 2 -140 "/></g></g></g><g fill="#414042" fill-opacity="1"><g transform="translate(763.964745, 207.605828)"><g><path d="M 30 -81 L 60.203125 -81 L 60.203125 -61 L 30 -61 L 30 -20 L 68 -20 L 68 0 L 8 0 L 8 -140 L 68 -140 L 68 -120 L 30 -120 Z M 30 -81 "/></g></g></g><g fill="#414042" fill-opacity="1"><g transform="translate(837.562745, 207.605828)"><g><path d="M 41 -78 L 71.796875 -78 L 71.796875 -33.59375 C 71.796875 -22.257812 69.03125 -13.5625 63.5 -7.5 C 57.96875 -1.4375 49.800781 1.59375 39 1.59375 C 28.195312 1.59375 20.03125 -1.4375 14.5 -7.5 C 8.96875 -13.5625 6.203125 -22.257812 6.203125 -33.59375 L 6.203125 -106.40625 C 6.203125 -117.738281 8.96875 -126.4375 14.5 -132.5 C 20.03125 -138.5625 28.195312 -141.59375 39 -141.59375 C 49.800781 -141.59375 57.96875 -138.5625 63.5 -132.5 C 69.03125 -126.4375 71.796875 -117.738281 71.796875 -106.40625 L 71.796875 -92.796875 L 51 -92.796875 L 51 -107.796875 C 51 -112.867188 49.960938 -116.4375 47.890625 -118.5 C 45.828125 -120.5625 43.0625 -121.59375 39.59375 -121.59375 C 36.132812 -121.59375 33.367188 -120.5625 31.296875 -118.5 C 29.234375 -116.4375 28.203125 -112.867188 28.203125 -107.796875 L 28.203125 -32.203125 C 28.203125 -27.128906 29.234375 -23.59375 31.296875 -21.59375 C 33.367188 -19.59375 36.132812 -18.59375 39.59375 -18.59375 C 43.0625 -18.59375 45.828125 -19.59375 47.890625 -21.59375 C 49.960938 -23.59375 51 -27.128906 51 -32.203125 L 51 -58 L 41 -58 Z M 41 -78 "/></g></g></g><g fill="#414042" fill-opacity="1"><g transform="translate(915.560677, 207.605828)"><g><path d="M 28.203125 -32.203125 C 28.203125 -27.128906 29.234375 -23.5625 31.296875 -21.5 C 33.367188 -19.4375 36.132812 -18.40625 39.59375 -18.40625 C 43.0625 -18.40625 45.828125 -19.4375 47.890625 -21.5 C 49.960938 -23.5625 51 -27.128906 51 -32.203125 L 51 -107.796875 C 51 -112.867188 49.960938 -116.4375 47.890625 -118.5 C 45.828125 -120.5625 43.0625 -121.59375 39.59375 -121.59375 C 36.132812 -121.59375 33.367188 -120.5625 31.296875 -118.5 C 29.234375 -116.4375 28.203125 -112.867188 28.203125 -107.796875 Z M 6.203125 -106.40625 C 6.203125 -117.738281 9.066406 -126.4375 14.796875 -132.5 C 20.535156 -138.5625 28.800781 -141.59375 39.59375 -141.59375 C 50.394531 -141.59375 58.660156 -138.5625 64.390625 -132.5 C 70.128906 -126.4375 73 -117.738281 73 -106.40625 L 73 -33.59375 C 73 -22.257812 70.128906 -13.5625 64.390625 -7.5 C 58.660156 -1.4375 50.394531 1.59375 39.59375 1.59375 C 28.800781 1.59375 20.535156 -1.4375 14.796875 -7.5 C 9.066406 -13.5625 6.203125 -22.257812 6.203125 -33.59375 Z M 6.203125 -106.40625 "/></g></g></g><g fill="#414042" fill-opacity="1"><g transform="translate(994.758591, 207.605828)"><g/></g></g><g fill="#414042" fill-opacity="1"><g transform="translate(1025.757748, 207.605828)"><g><path d="M 36.796875 -55.796875 L 30 -43 L 30 0 L 8 0 L 8 -140 L 30 -140 L 30 -79 L 59.203125 -140 L 80.796875 -140 L 50.203125 -77.59375 L 80.796875 0 L 58.203125 0 Z M 36.796875 -55.796875 "/></g></g></g><g fill="#414042" fill-opacity="1"><g transform="translate(1108.555515, 207.605828)"><g><path d="M 8 -140 L 30 -140 L 30 0 L 8 0 Z M 8 -140 "/></g></g></g><g fill="#414042" fill-opacity="1"><g transform="translate(1146.554473, 207.605828)"><g><path d="M 28.203125 -32.203125 C 28.203125 -27.128906 29.234375 -23.5625 31.296875 -21.5 C 33.367188 -19.4375 36.132812 -18.40625 39.59375 -18.40625 C 43.0625 -18.40625 45.828125 -19.4375 47.890625 -21.5 C 49.960938 -23.5625 51 -27.128906 51 -32.203125 L 51 -107.796875 C 51 -112.867188 49.960938 -116.4375 47.890625 -118.5 C 45.828125 -120.5625 43.0625 -121.59375 39.59375 -121.59375 C 36.132812 -121.59375 33.367188 -120.5625 31.296875 -118.5 C 29.234375 -116.4375 28.203125 -112.867188 28.203125 -107.796875 Z M 6.203125 -106.40625 C 6.203125 -117.738281 9.066406 -126.4375 14.796875 -132.5 C 20.535156 -138.5625 28.800781 -141.59375 39.59375 -141.59375 C 50.394531 -141.59375 58.660156 -138.5625 64.390625 -132.5 C 70.128906 -126.4375 73 -117.738281 73 -106.40625 L 73 -33.59375 C 73 -22.257812 70.128906 -13.5625 64.390625 -7.5 C 58.660156 -1.4375 50.394531 1.59375 39.59375 1.59375 C 28.800781 1.59375 20.535156 -1.4375 14.796875 -7.5 C 9.066406 -13.5625 6.203125 -22.257812 6.203125 -33.59375 Z M 6.203125 -106.40625 "/></g></g></g><g fill="#414042" fill-opacity="1"><g transform="translate(1225.752341, 207.605828)"><g><path d="M 5.203125 -106.40625 C 5.203125 -117.738281 7.898438 -126.4375 13.296875 -132.5 C 18.703125 -138.5625 26.800781 -141.59375 37.59375 -141.59375 C 48.394531 -141.59375 56.492188 -138.5625 61.890625 -132.5 C 67.296875 -126.4375 70 -117.738281 70 -106.40625 L 70 -101 L 49.203125 -101 L 49.203125 -107.796875 C 49.203125 -112.867188 48.234375 -116.4375 46.296875 -118.5 C 44.367188 -120.5625 41.671875 -121.59375 38.203125 -121.59375 C 34.734375 -121.59375 32.03125 -120.5625 30.09375 -118.5 C 28.164062 -116.4375 27.203125 -112.867188 27.203125 -107.796875 C 27.203125 -102.992188 28.265625 -98.757812 30.390625 -95.09375 C 32.523438 -91.425781 35.191406 -87.957031 38.390625 -84.6875 C 41.597656 -81.425781 45.035156 -78.160156 48.703125 -74.890625 C 52.367188 -71.628906 55.800781 -68.066406 59 -64.203125 C 62.195312 -60.335938 64.863281 -55.9375 67 -51 C 69.132812 -46.0625 70.203125 -40.257812 70.203125 -33.59375 C 70.203125 -22.257812 67.429688 -13.5625 61.890625 -7.5 C 56.359375 -1.4375 48.195312 1.59375 37.40625 1.59375 C 26.601562 1.59375 18.429688 -1.4375 12.890625 -7.5 C 7.359375 -13.5625 4.59375 -22.257812 4.59375 -33.59375 L 4.59375 -43.203125 L 25.40625 -43.203125 L 25.40625 -32.203125 C 25.40625 -27.128906 26.4375 -23.59375 28.5 -21.59375 C 30.5625 -19.59375 33.328125 -18.59375 36.796875 -18.59375 C 40.265625 -18.59375 43.03125 -19.59375 45.09375 -21.59375 C 47.164062 -23.59375 48.203125 -27.128906 48.203125 -32.203125 C 48.203125 -37.003906 47.132812 -41.238281 45 -44.90625 C 42.863281 -48.570312 40.195312 -52.035156 37 -55.296875 C 33.800781 -58.566406 30.367188 -61.832031 26.703125 -65.09375 C 23.035156 -68.363281 19.597656 -71.929688 16.390625 -75.796875 C 13.191406 -79.660156 10.523438 -84.0625 8.390625 -89 C 6.265625 -93.9375 5.203125 -99.738281 5.203125 -106.40625 Z M 5.203125 -106.40625 "/></g></g></g><g fill="#414042" fill-opacity="1"><g transform="translate(1300.550323, 207.605828)"><g><path d="M 36.796875 -55.796875 L 30 -43 L 30 0 L 8 0 L 8 -140 L 30 -140 L 30 -79 L 59.203125 -140 L 80.796875 -140 L 50.203125 -77.59375 L 80.796875 0 L 58.203125 0 Z M 36.796875 -55.796875 "/></g></g></g><g fill="#414042" fill-opacity="1"><g transform="translate(1383.34809, 207.605828)"><g><path d="M 5.203125 -106.40625 C 5.203125 -117.738281 7.898438 -126.4375 13.296875 -132.5 C 18.703125 -138.5625 26.800781 -141.59375 37.59375 -141.59375 C 48.394531 -141.59375 56.492188 -138.5625 61.890625 -132.5 C 67.296875 -126.4375 70 -117.738281 70 -106.40625 L 70 -101 L 49.203125 -101 L 49.203125 -107.796875 C 49.203125 -112.867188 48.234375 -116.4375 46.296875 -118.5 C 44.367188 -120.5625 41.671875 -121.59375 38.203125 -121.59375 C 34.734375 -121.59375 32.03125 -120.5625 30.09375 -118.5 C 28.164062 -116.4375 27.203125 -112.867188 27.203125 -107.796875 C 27.203125 -102.992188 28.265625 -98.757812 30.390625 -95.09375 C 32.523438 -91.425781 35.191406 -87.957031 38.390625 -84.6875 C 41.597656 -81.425781 45.035156 -78.160156 48.703125 -74.890625 C 52.367188 -71.628906 55.800781 -68.066406 59 -64.203125 C 62.195312 -60.335938 64.863281 -55.9375 67 -51 C 69.132812 -46.0625 70.203125 -40.257812 70.203125 -33.59375 C 70.203125 -22.257812 67.429688 -13.5625 61.890625 -7.5 C 56.359375 -1.4375 48.195312 1.59375 37.40625 1.59375 C 26.601562 1.59375 18.429688 -1.4375 12.890625 -7.5 C 7.359375 -13.5625 4.59375 -22.257812 4.59375 -33.59375 L 4.59375 -43.203125 L 25.40625 -43.203125 L 25.40625 -32.203125 C 25.40625 -27.128906 26.4375 -23.59375 28.5 -21.59375 C 30.5625 -19.59375 33.328125 -18.59375 36.796875 -18.59375 C 40.265625 -18.59375 43.03125 -19.59375 45.09375 -21.59375 C 47.164062 -23.59375 48.203125 -27.128906 48.203125 -32.203125 C 48.203125 -37.003906 47.132812 -41.238281 45 -44.90625 C 42.863281 -48.570312 40.195312 -52.035156 37 -55.296875 C 33.800781 -58.566406 30.367188 -61.832031 26.703125 -65.09375 C 23.035156 -68.363281 19.597656 -71.929688 16.390625 -75.796875 C 13.191406 -79.660156 10.523438 -84.0625 8.390625 -89 C 6.265625 -93.9375 5.203125 -99.738281 5.203125 -106.40625 Z M 5.203125 -106.40625 "/></g></g></g></svg>