<svg xmlns="http://www.w3.org/2000/svg" xmlns:xlink="http://www.w3.org/1999/xlink" width="2240" zoomAndPan="magnify" viewBox="0 0 1680 284.999983" height="380" preserveAspectRatio="xMidYMid meet" version="1.0"><defs><g/></defs><path fill="#414042" d="M 323.28125 208.046875 C 323.28125 215.25 318.097656 218.15625 315.949219 219.167969 C 313.800781 220.054688 308.109375 221.695312 302.925781 216.769531 L 270.816406 185.808594 L 283.457031 173.675781 C 292.6875 164.832031 297.742188 152.953125 297.742188 140.191406 C 297.742188 127.429688 292.6875 115.550781 283.457031 106.703125 L 212.917969 38.847656 C 199.261719 25.703125 179.921875 22.164062 162.472656 29.621094 C 145.027344 37.078125 134.15625 53.378906 134.15625 72.332031 L 134.15625 207.921875 C 134.15625 226.878906 145.027344 243.179688 162.472656 250.632812 C 168.542969 253.160156 174.738281 254.425781 180.933594 254.425781 C 192.5625 254.425781 203.941406 249.875 212.917969 241.410156 L 238.199219 217.148438 L 213.421875 193.265625 L 189.148438 216.640625 C 183.964844 221.570312 178.277344 219.925781 176.128906 219.042969 C 173.980469 218.15625 168.796875 215.125 168.796875 207.921875 L 168.796875 72.460938 C 168.796875 65.257812 173.980469 62.351562 176.128906 61.339844 C 177.140625 60.960938 178.910156 60.328125 181.058594 60.328125 C 183.460938 60.328125 186.367188 61.085938 189.148438 63.738281 L 221.257812 94.699219 L 208.617188 106.832031 C 199.390625 115.675781 194.332031 127.554688 194.332031 140.316406 C 194.332031 153.078125 199.390625 164.957031 208.617188 173.804688 L 279.160156 241.660156 C 288.136719 250.253906 299.386719 254.675781 311.144531 254.675781 C 317.339844 254.675781 323.535156 253.414062 329.601562 250.886719 C 347.046875 243.429688 357.917969 227.128906 357.917969 208.175781 L 357.917969 131.851562 L 323.28125 164.707031 Z M 259.4375 148.910156 L 245.910156 161.925781 L 232.382812 148.910156 C 229.984375 146.636719 228.71875 143.476562 228.71875 140.191406 C 228.71875 136.90625 229.984375 133.746094 232.382812 131.472656 L 245.910156 118.457031 L 259.4375 131.472656 C 261.839844 133.746094 263.105469 136.90625 263.105469 140.191406 C 263.105469 143.601562 261.839844 146.636719 259.4375 148.910156 Z M 357.667969 72.460938 L 357.667969 115.675781 L 323.28125 115.675781 L 323.28125 72.460938 C 323.28125 65.257812 318.097656 62.351562 315.949219 61.339844 C 314.9375 60.960938 313.167969 60.328125 311.019531 60.328125 C 308.617188 60.328125 305.707031 61.085938 302.925781 63.738281 L 278.402344 87.242188 L 253.75 63.234375 L 279.035156 38.847656 C 292.6875 25.703125 312.03125 22.164062 329.476562 29.621094 C 346.792969 37.078125 357.667969 53.503906 357.667969 72.460938 Z M 357.667969 72.460938 " fill-opacity="1" fill-rule="nonzero"/><g fill="#414042" fill-opacity="1"><g transform="translate(415.096856, 207.605828)"><g><path d="M 30 -81 L 60.203125 -81 L 60.203125 -61 L 30 -61 L 30 -20 L 68 -20 L 68 0 L 8 0 L 8 -140 L 68 -140 L 68 -120 L 30 -120 Z M 30 -81 "/></g></g></g><g fill="#414042" fill-opacity="1"><g transform="translate(488.694868, 207.605828)"><g><path d="M 27.59375 -101.40625 L 27.59375 0 L 7.796875 0 L 7.796875 -140 L 35.40625 -140 L 58 -56.203125 L 58 -140 L 77.59375 -140 L 77.59375 0 L 55 0 Z M 27.59375 -101.40625 "/></g></g></g><g fill="#414042" fill-opacity="1"><g transform="translate(574.092583, 207.605828)"><g><path d="M 8 -140 L 42.796875 -140 C 53.867188 -140 62.101562 -137.066406 67.5 -131.203125 C 72.894531 -125.335938 75.59375 -116.738281 75.59375 -105.40625 L 75.59375 -34.59375 C 75.59375 -23.257812 72.894531 -14.660156 67.5 -8.796875 C 62.101562 -2.929688 53.867188 0 42.796875 0 L 8 0 Z M 30 -120 L 30 -20 L 42.40625 -20 C 45.863281 -20 48.59375 -21 50.59375 -23 C 52.59375 -25 53.59375 -28.53125 53.59375 -33.59375 L 53.59375 -106.40625 C 53.59375 -111.46875 52.59375 -115 50.59375 -117 C 48.59375 -119 45.863281 -120 42.40625 -120 Z M 30 -120 "/></g></g></g><g fill="#414042" fill-opacity="1"><g transform="translate(655.690391, 207.605828)"><g><path d="M 40.40625 -140 C 51.46875 -140 59.695312 -137.066406 65.09375 -131.203125 C 70.5 -125.335938 73.203125 -116.738281 73.203125 -105.40625 L 73.203125 -87.203125 C 73.203125 -75.867188 70.5 -67.265625 65.09375 -61.390625 C 59.695312 -55.523438 51.46875 -52.59375 40.40625 -52.59375 L 30 -52.59375 L 30 0 L 8 0 L 8 -140 Z M 30 -120 L 30 -72.59375 L 40.40625 -72.59375 C 43.863281 -72.59375 46.523438 -73.523438 48.390625 -75.390625 C 50.265625 -77.265625 51.203125 -80.734375 51.203125 -85.796875 L 51.203125 -106.796875 C 51.203125 -111.867188 50.265625 -115.335938 48.390625 -117.203125 C 46.523438 -119.066406 43.863281 -120 40.40625 -120 Z M 30 -120 "/></g></g></g><g fill="#414042" fill-opacity="1"><g transform="translate(731.088386, 207.605828)"><g><path d="M 28.203125 -32.203125 C 28.203125 -27.128906 29.234375 -23.5625 31.296875 -21.5 C 33.367188 -19.4375 36.132812 -18.40625 39.59375 -18.40625 C 43.0625 -18.40625 45.828125 -19.4375 47.890625 -21.5 C 49.960938 -23.5625 51 -27.128906 51 -32.203125 L 51 -107.796875 C 51 -112.867188 49.960938 -116.4375 47.890625 -118.5 C 45.828125 -120.5625 43.0625 -121.59375 39.59375 -121.59375 C 36.132812 -121.59375 33.367188 -120.5625 31.296875 -118.5 C 29.234375 -116.4375 28.203125 -112.867188 28.203125 -107.796875 Z M 6.203125 -106.40625 C 6.203125 -117.738281 9.066406 -126.4375 14.796875 -132.5 C 20.535156 -138.5625 28.800781 -141.59375 39.59375 -141.59375 C 50.394531 -141.59375 58.660156 -138.5625 64.390625 -132.5 C 70.128906 -126.4375 73 -117.738281 73 -106.40625 L 73 -33.59375 C 73 -22.257812 70.128906 -13.5625 64.390625 -7.5 C 58.660156 -1.4375 50.394531 1.59375 39.59375 1.59375 C 28.800781 1.59375 20.535156 -1.4375 14.796875 -7.5 C 9.066406 -13.5625 6.203125 -22.257812 6.203125 -33.59375 Z M 6.203125 -106.40625 "/></g></g></g><g fill="#414042" fill-opacity="1"><g transform="translate(810.2863, 207.605828)"><g><path d="M 8 -140 L 30 -140 L 30 0 L 8 0 Z M 8 -140 "/></g></g></g><g fill="#414042" fill-opacity="1"><g transform="translate(848.285258, 207.605828)"><g><path d="M 27.59375 -101.40625 L 27.59375 0 L 7.796875 0 L 7.796875 -140 L 35.40625 -140 L 58 -56.203125 L 58 -140 L 77.59375 -140 L 77.59375 0 L 55 0 Z M 27.59375 -101.40625 "/></g></g></g><g fill="#414042" fill-opacity="1"><g transform="translate(933.682985, 207.605828)"><g><path d="M 2 -140 L 70 -140 L 70 -120 L 47 -120 L 47 0 L 25 0 L 25 -120 L 2 -120 Z M 2 -140 "/></g></g></g><g fill="#414042" fill-opacity="1"><g transform="translate(1005.681055, 207.605828)"><g/></g></g><g fill="#414042" fill-opacity="1"><g transform="translate(1036.680213, 207.605828)"><g><path d="M 54.59375 -40.59375 L 69.59375 -140 L 100.203125 -140 L 100.203125 0 L 79.40625 0 L 79.40625 -100.40625 L 64.203125 0 L 43.40625 0 L 27 -99 L 27 0 L 7.796875 0 L 7.796875 -140 L 38.40625 -140 Z M 54.59375 -40.59375 "/></g></g></g><g fill="#414042" fill-opacity="1"><g transform="translate(1144.87736, 207.605828)"><g><path d="M 28.203125 -32.203125 C 28.203125 -27.128906 29.234375 -23.5625 31.296875 -21.5 C 33.367188 -19.4375 36.132812 -18.40625 39.59375 -18.40625 C 43.0625 -18.40625 45.828125 -19.4375 47.890625 -21.5 C 49.960938 -23.5625 51 -27.128906 51 -32.203125 L 51 -107.796875 C 51 -112.867188 49.960938 -116.4375 47.890625 -118.5 C 45.828125 -120.5625 43.0625 -121.59375 39.59375 -121.59375 C 36.132812 -121.59375 33.367188 -120.5625 31.296875 -118.5 C 29.234375 -116.4375 28.203125 -112.867188 28.203125 -107.796875 Z M 6.203125 -106.40625 C 6.203125 -117.738281 9.066406 -126.4375 14.796875 -132.5 C 20.535156 -138.5625 28.800781 -141.59375 39.59375 -141.59375 C 50.394531 -141.59375 58.660156 -138.5625 64.390625 -132.5 C 70.128906 -126.4375 73 -117.738281 73 -106.40625 L 73 -33.59375 C 73 -22.257812 70.128906 -13.5625 64.390625 -7.5 C 58.660156 -1.4375 50.394531 1.59375 39.59375 1.59375 C 28.800781 1.59375 20.535156 -1.4375 14.796875 -7.5 C 9.066406 -13.5625 6.203125 -22.257812 6.203125 -33.59375 Z M 6.203125 -106.40625 "/></g></g></g><g fill="#414042" fill-opacity="1"><g transform="translate(1224.075228, 207.605828)"><g><path d="M 27.59375 -101.40625 L 27.59375 0 L 7.796875 0 L 7.796875 -140 L 35.40625 -140 L 58 -56.203125 L 58 -140 L 77.59375 -140 L 77.59375 0 L 55 0 Z M 27.59375 -101.40625 "/></g></g></g><g fill="#414042" fill-opacity="1"><g transform="translate(1309.472955, 207.605828)"><g><path d="M 8 -140 L 30 -140 L 30 0 L 8 0 Z M 8 -140 "/></g></g></g><g fill="#414042" fill-opacity="1"><g transform="translate(1347.471913, 207.605828)"><g><path d="M 2 -140 L 70 -140 L 70 -120 L 47 -120 L 47 0 L 25 0 L 25 -120 L 2 -120 Z M 2 -140 "/></g></g></g><g fill="#414042" fill-opacity="1"><g transform="translate(1419.469984, 207.605828)"><g><path d="M 28.203125 -32.203125 C 28.203125 -27.128906 29.234375 -23.5625 31.296875 -21.5 C 33.367188 -19.4375 36.132812 -18.40625 39.59375 -18.40625 C 43.0625 -18.40625 45.828125 -19.4375 47.890625 -21.5 C 49.960938 -23.5625 51 -27.128906 51 -32.203125 L 51 -107.796875 C 51 -112.867188 49.960938 -116.4375 47.890625 -118.5 C 45.828125 -120.5625 43.0625 -121.59375 39.59375 -121.59375 C 36.132812 -121.59375 33.367188 -120.5625 31.296875 -118.5 C 29.234375 -116.4375 28.203125 -112.867188 28.203125 -107.796875 Z M 6.203125 -106.40625 C 6.203125 -117.738281 9.066406 -126.4375 14.796875 -132.5 C 20.535156 -138.5625 28.800781 -141.59375 39.59375 -141.59375 C 50.394531 -141.59375 58.660156 -138.5625 64.390625 -132.5 C 70.128906 -126.4375 73 -117.738281 73 -106.40625 L 73 -33.59375 C 73 -22.257812 70.128906 -13.5625 64.390625 -7.5 C 58.660156 -1.4375 50.394531 1.59375 39.59375 1.59375 C 28.800781 1.59375 20.535156 -1.4375 14.796875 -7.5 C 9.066406 -13.5625 6.203125 -22.257812 6.203125 -33.59375 Z M 6.203125 -106.40625 "/></g></g></g><g fill="#414042" fill-opacity="1"><g transform="translate(1498.667852, 207.605828)"><g><path d="M 54 0 C 53.726562 -0.9375 53.457031 -1.800781 53.1875 -2.59375 C 52.925781 -3.394531 52.695312 -4.394531 52.5 -5.59375 C 52.300781 -6.800781 52.164062 -8.335938 52.09375 -10.203125 C 52.03125 -12.066406 52 -14.398438 52 -17.203125 L 52 -39.203125 C 52 -45.734375 50.863281 -50.332031 48.59375 -53 C 46.332031 -55.664062 42.664062 -57 37.59375 -57 L 30 -57 L 30 0 L 8 0 L 8 -140 L 41.203125 -140 C 52.671875 -140 60.96875 -137.332031 66.09375 -132 C 71.226562 -126.664062 73.796875 -118.597656 73.796875 -107.796875 L 73.796875 -96.796875 C 73.796875 -82.398438 69 -72.9375 59.40625 -68.40625 C 65 -66.132812 68.828125 -62.429688 70.890625 -57.296875 C 72.960938 -52.160156 74 -45.925781 74 -38.59375 L 74 -17 C 74 -13.53125 74.128906 -10.492188 74.390625 -7.890625 C 74.660156 -5.296875 75.332031 -2.664062 76.40625 0 Z M 30 -120 L 30 -77 L 38.59375 -77 C 42.726562 -77 45.960938 -78.066406 48.296875 -80.203125 C 50.628906 -82.335938 51.796875 -86.203125 51.796875 -91.796875 L 51.796875 -105.59375 C 51.796875 -110.664062 50.894531 -114.332031 49.09375 -116.59375 C 47.300781 -118.863281 44.46875 -120 40.59375 -120 Z M 30 -120 "/></g></g></g></svg>