<?xml version="1.0" encoding="utf-8"?>
<!-- Generator: Adobe Illustrator 26.0.3, SVG Export Plug-In . SVG Version: 6.00 Build 0)  -->
<svg version="1.1" id="Layer_1" xmlns="http://www.w3.org/2000/svg" xmlns:xlink="http://www.w3.org/1999/xlink" x="0px" y="0px"
	 viewBox="0 0 841.9 595.3" style="enable-background:new 0 0 841.9 595.3;" xml:space="preserve">
<style type="text/css">
	.st0{fill:#414042;}
</style>
<path class="st0" d="M482.2,351.3c0,5.7-4.1,8-5.8,8.8c-1.7,0.7-6.2,2-10.3-1.9l-25.4-24.5l10-9.6c7.3-7,11.3-16.4,11.3-26.5
	c0-10.1-4-19.5-11.3-26.5l-55.8-53.7c-10.8-10.4-26.1-13.2-39.9-7.3c-13.8,5.9-22.4,18.8-22.4,33.8v107.3c0,15,8.6,27.9,22.4,33.8
	c4.8,2,9.7,3,14.6,3c9.2,0,18.2-3.6,25.3-10.3l20-19.2l-19.6-18.9l-19.2,18.5c-4.1,3.9-8.6,2.6-10.3,1.9c-1.7-0.7-5.8-3.1-5.8-8.8
	V244c0-5.7,4.1-8,5.8-8.8c0.8-0.3,2.2-0.8,3.9-0.8c1.9,0,4.2,0.6,6.4,2.7l25.4,24.5l-10,9.6c-7.3,7-11.3,16.4-11.3,26.5
	c0,10.1,4,19.5,11.3,26.5l55.8,53.7c7.1,6.8,16,10.3,25.3,10.3c4.9,0,9.8-1,14.6-3c13.8-5.9,22.4-18.8,22.4-33.8v-60.4L482.2,317
	V351.3z M431.7,304.5l-10.7,10.3l-10.7-10.3v0c-1.9-1.8-2.9-4.3-2.9-6.9c0-2.6,1-5.1,2.9-6.9l10.7-10.3l10.7,10.3
	c1.9,1.8,2.9,4.3,2.9,6.9C434.6,300.3,433.6,302.7,431.7,304.5z M509.4,244v34.2h-27.2V244c0-5.7-4.1-8-5.8-8.8
	c-0.8-0.3-2.2-0.8-3.9-0.8c-1.9,0-4.2,0.6-6.4,2.7l-19.4,18.6l-19.5-19l20-19.3c10.8-10.4,26.1-13.2,39.9-7.3
	C500.8,216,509.4,229,509.4,244z"/>
</svg>
